<svg width="32" height="33" viewBox="0 0 32 33" fill="none" xmlns="http://www.w3.org/2000/svg">
<path d="M24.6156 12.8077C24.6156 6.01029 19.1052 0.499878 12.3078 0.499878C5.51041 0.499878 0 6.01029 0 12.8077C0 19.605 5.51041 25.1154 12.3078 25.1154C19.1019 25.1074 24.6076 19.6018 24.6156 12.8077ZM2.46156 12.8077C2.46156 7.36976 6.86989 2.96143 12.3078 2.96143C17.7457 2.96143 22.154 7.36976 22.154 12.8077C22.154 18.2456 17.7457 22.6539 12.3078 22.6539C6.87243 22.6477 2.4677 18.243 2.46156 12.8077Z" fill="white"/>
<path d="M30.7695 32.5001C31.4492 32.5 32.0001 31.9489 32 31.2691C31.9999 30.9428 31.8703 30.6299 31.6397 30.3992L21.5 19.9999C21.0111 19.5276 20.232 19.5413 19.7597 20.0301C19.299 20.507 19.299 21.2632 19.7597 21.7401L29.8993 32.1394C30.1298 32.3707 30.4429 32.5006 30.7695 32.5001Z" fill="white"/>
</svg>
