<svg width="89" height="18" viewBox="0 0 89 18" fill="none" xmlns="http://www.w3.org/2000/svg">
<mask id="path-1-outside-1_1_569" maskUnits="userSpaceOnUse" x="0" y="4.12774" width="47" height="10" fill="black">
<rect fill="white" y="4.12774" width="47" height="10"/>
<path d="M3.41406 8.31719H4.26367C4.78711 8.31719 5.18164 8.21172 5.44727 8.00078C5.71289 7.78594 5.8457 7.47149 5.8457 7.05742C5.8457 6.68633 5.7168 6.41289 5.45898 6.23711C5.20508 6.06133 4.80664 5.97344 4.26367 5.97344C4.16211 5.97344 4.08398 5.97539 4.0293 5.9793C3.97461 5.9793 3.91992 5.9832 3.86523 5.99102L3.41406 8.31719ZM2.47656 13.1277H0.794922L2.45312 4.59649H4.7207C5.63477 4.59649 6.33789 4.81328 6.83008 5.24688C7.32617 5.67656 7.57422 6.28789 7.57422 7.08086C7.57422 7.4832 7.5 7.85625 7.35156 8.2C7.20312 8.53984 6.98633 8.83086 6.70117 9.07305C6.38867 9.33477 6.05078 9.52227 5.6875 9.63555C5.32812 9.74883 4.83398 9.80547 4.20508 9.80547H3.12109L2.47656 13.1277ZM11.0488 7.89531C10.4785 7.89531 10.002 8.11016 9.61914 8.53984C9.23633 8.96953 9.04492 9.51055 9.04492 10.1629C9.04492 10.6668 9.20117 11.0809 9.51367 11.4051C9.83008 11.7293 10.2344 11.8914 10.7266 11.8914C11.3008 11.8914 11.7852 11.6766 12.1797 11.2469C12.5781 10.8172 12.7773 10.2879 12.7773 9.65899C12.7773 9.12774 12.6191 8.70195 12.3027 8.38164C11.9863 8.05742 11.5684 7.89531 11.0488 7.89531ZM7.55664 10.1863C7.55664 9.62774 7.66602 9.1043 7.88477 8.61602C8.10352 8.12383 8.41797 7.69609 8.82812 7.33281C9.14062 7.05547 9.49219 6.84649 9.88281 6.70586C10.2734 6.56133 10.6934 6.48906 11.1426 6.48906C12.0566 6.48906 12.8047 6.78008 13.3867 7.36211C13.9727 7.94414 14.2656 8.69024 14.2656 9.60039C14.2656 10.1121 14.1738 10.5984 13.9902 11.0594C13.8105 11.5164 13.5508 11.9227 13.2109 12.2781C12.8906 12.6063 12.5117 12.8582 12.0742 13.034C11.6406 13.2098 11.1699 13.2977 10.6621 13.2977C9.75586 13.2977 9.01172 13.0066 8.42969 12.4246C7.84766 11.8387 7.55664 11.0926 7.55664 10.1863ZM14.6055 13.1277L15.8535 6.68242H17.2246L17.0547 7.53789C17.3281 7.17852 17.6426 6.91484 17.998 6.74688C18.3574 6.575 18.7793 6.48906 19.2637 6.48906H19.3105L19.0234 8.00078C18.332 8.0125 17.8242 8.15313 17.5 8.42266C17.1758 8.68828 16.9434 9.17266 16.8027 9.87578L16.1641 13.1277H14.6055ZM19.5977 13.1277L20.582 8.03008H19.7148L19.9785 6.68242H20.8457L21.2383 4.6668H22.791L22.4043 6.68242H23.3301L23.0781 8.03008H22.1406L21.1445 13.1277H19.5977ZM23.4707 13.1277L24.4551 8.0418H23.5234L23.7871 6.69414H24.7188C24.8359 5.93242 25.0996 5.37578 25.5098 5.02422C25.9199 4.67266 26.5176 4.49688 27.3027 4.49688C27.4121 4.49688 27.5898 4.50469 27.8359 4.52031L27.877 4.52617L27.6133 5.90313C27.6055 5.90313 27.5938 5.90313 27.5781 5.90313C27.3945 5.8875 27.2656 5.87969 27.1914 5.87969C26.8711 5.87969 26.6387 5.94024 26.4941 6.06133C26.3496 6.18242 26.2539 6.39336 26.207 6.69414H27.1797L26.916 8.0418H25.9434L24.9473 13.1277H23.4707ZM30.6895 7.89531C30.1191 7.89531 29.6426 8.11016 29.2598 8.53984C28.877 8.96953 28.6855 9.51055 28.6855 10.1629C28.6855 10.6668 28.8418 11.0809 29.1543 11.4051C29.4707 11.7293 29.875 11.8914 30.3672 11.8914C30.9414 11.8914 31.4258 11.6766 31.8203 11.2469C32.2188 10.8172 32.418 10.2879 32.418 9.65899C32.418 9.12774 32.2598 8.70195 31.9434 8.38164C31.627 8.05742 31.209 7.89531 30.6895 7.89531ZM27.1973 10.1863C27.1973 9.62774 27.3066 9.1043 27.5254 8.61602C27.7441 8.12383 28.0586 7.69609 28.4688 7.33281C28.7812 7.05547 29.1328 6.84649 29.5234 6.70586C29.9141 6.56133 30.334 6.48906 30.7832 6.48906C31.6973 6.48906 32.4453 6.78008 33.0273 7.36211C33.6133 7.94414 33.9062 8.69024 33.9062 9.60039C33.9062 10.1121 33.8145 10.5984 33.6309 11.0594C33.4512 11.5164 33.1914 11.9227 32.8516 12.2781C32.5312 12.6063 32.1523 12.8582 31.7148 13.034C31.2812 13.2098 30.8105 13.2977 30.3027 13.2977C29.3965 13.2977 28.6523 13.0066 28.0703 12.4246C27.4883 11.8387 27.1973 11.0926 27.1973 10.1863ZM34.2109 13.1277L35.8691 4.59649H37.3691L35.7109 13.1277H34.2109ZM37.0352 13.1277L38.2832 6.68242H39.7715L38.5234 13.1277H37.0352ZM38.418 5.99688L38.6934 4.59649H40.1816L39.9062 5.99688H38.418ZM43.5918 7.89531C43.0215 7.89531 42.5449 8.11016 42.1621 8.53984C41.7793 8.96953 41.5879 9.51055 41.5879 10.1629C41.5879 10.6668 41.7441 11.0809 42.0566 11.4051C42.373 11.7293 42.7773 11.8914 43.2695 11.8914C43.8438 11.8914 44.3281 11.6766 44.7227 11.2469C45.1211 10.8172 45.3203 10.2879 45.3203 9.65899C45.3203 9.12774 45.1621 8.70195 44.8457 8.38164C44.5293 8.05742 44.1113 7.89531 43.5918 7.89531ZM40.0996 10.1863C40.0996 9.62774 40.209 9.1043 40.4277 8.61602C40.6465 8.12383 40.9609 7.69609 41.3711 7.33281C41.6836 7.05547 42.0352 6.84649 42.4258 6.70586C42.8164 6.56133 43.2363 6.48906 43.6855 6.48906C44.5996 6.48906 45.3477 6.78008 45.9297 7.36211C46.5156 7.94414 46.8086 8.69024 46.8086 9.60039C46.8086 10.1121 46.7168 10.5984 46.5332 11.0594C46.3535 11.5164 46.0938 11.9227 45.7539 12.2781C45.4336 12.6063 45.0547 12.8582 44.6172 13.034C44.1836 13.2098 43.7129 13.2977 43.2051 13.2977C42.2988 13.2977 41.5547 13.0066 40.9727 12.4246C40.3906 11.8387 40.0996 11.0926 40.0996 10.1863Z"/>
</mask>
<path d="M3.41406 8.31719H4.26367C4.78711 8.31719 5.18164 8.21172 5.44727 8.00078C5.71289 7.78594 5.8457 7.47149 5.8457 7.05742C5.8457 6.68633 5.7168 6.41289 5.45898 6.23711C5.20508 6.06133 4.80664 5.97344 4.26367 5.97344C4.16211 5.97344 4.08398 5.97539 4.0293 5.9793C3.97461 5.9793 3.91992 5.9832 3.86523 5.99102L3.41406 8.31719ZM2.47656 13.1277H0.794922L2.45312 4.59649H4.7207C5.63477 4.59649 6.33789 4.81328 6.83008 5.24688C7.32617 5.67656 7.57422 6.28789 7.57422 7.08086C7.57422 7.4832 7.5 7.85625 7.35156 8.2C7.20312 8.53984 6.98633 8.83086 6.70117 9.07305C6.38867 9.33477 6.05078 9.52227 5.6875 9.63555C5.32812 9.74883 4.83398 9.80547 4.20508 9.80547H3.12109L2.47656 13.1277ZM11.0488 7.89531C10.4785 7.89531 10.002 8.11016 9.61914 8.53984C9.23633 8.96953 9.04492 9.51055 9.04492 10.1629C9.04492 10.6668 9.20117 11.0809 9.51367 11.4051C9.83008 11.7293 10.2344 11.8914 10.7266 11.8914C11.3008 11.8914 11.7852 11.6766 12.1797 11.2469C12.5781 10.8172 12.7773 10.2879 12.7773 9.65899C12.7773 9.12774 12.6191 8.70195 12.3027 8.38164C11.9863 8.05742 11.5684 7.89531 11.0488 7.89531ZM7.55664 10.1863C7.55664 9.62774 7.66602 9.1043 7.88477 8.61602C8.10352 8.12383 8.41797 7.69609 8.82812 7.33281C9.14062 7.05547 9.49219 6.84649 9.88281 6.70586C10.2734 6.56133 10.6934 6.48906 11.1426 6.48906C12.0566 6.48906 12.8047 6.78008 13.3867 7.36211C13.9727 7.94414 14.2656 8.69024 14.2656 9.60039C14.2656 10.1121 14.1738 10.5984 13.9902 11.0594C13.8105 11.5164 13.5508 11.9227 13.2109 12.2781C12.8906 12.6063 12.5117 12.8582 12.0742 13.034C11.6406 13.2098 11.1699 13.2977 10.6621 13.2977C9.75586 13.2977 9.01172 13.0066 8.42969 12.4246C7.84766 11.8387 7.55664 11.0926 7.55664 10.1863ZM14.6055 13.1277L15.8535 6.68242H17.2246L17.0547 7.53789C17.3281 7.17852 17.6426 6.91484 17.998 6.74688C18.3574 6.575 18.7793 6.48906 19.2637 6.48906H19.3105L19.0234 8.00078C18.332 8.0125 17.8242 8.15313 17.5 8.42266C17.1758 8.68828 16.9434 9.17266 16.8027 9.87578L16.1641 13.1277H14.6055ZM19.5977 13.1277L20.582 8.03008H19.7148L19.9785 6.68242H20.8457L21.2383 4.6668H22.791L22.4043 6.68242H23.3301L23.0781 8.03008H22.1406L21.1445 13.1277H19.5977ZM23.4707 13.1277L24.4551 8.0418H23.5234L23.7871 6.69414H24.7188C24.8359 5.93242 25.0996 5.37578 25.5098 5.02422C25.9199 4.67266 26.5176 4.49688 27.3027 4.49688C27.4121 4.49688 27.5898 4.50469 27.8359 4.52031L27.877 4.52617L27.6133 5.90313C27.6055 5.90313 27.5938 5.90313 27.5781 5.90313C27.3945 5.8875 27.2656 5.87969 27.1914 5.87969C26.8711 5.87969 26.6387 5.94024 26.4941 6.06133C26.3496 6.18242 26.2539 6.39336 26.207 6.69414H27.1797L26.916 8.0418H25.9434L24.9473 13.1277H23.4707ZM30.6895 7.89531C30.1191 7.89531 29.6426 8.11016 29.2598 8.53984C28.877 8.96953 28.6855 9.51055 28.6855 10.1629C28.6855 10.6668 28.8418 11.0809 29.1543 11.4051C29.4707 11.7293 29.875 11.8914 30.3672 11.8914C30.9414 11.8914 31.4258 11.6766 31.8203 11.2469C32.2188 10.8172 32.418 10.2879 32.418 9.65899C32.418 9.12774 32.2598 8.70195 31.9434 8.38164C31.627 8.05742 31.209 7.89531 30.6895 7.89531ZM27.1973 10.1863C27.1973 9.62774 27.3066 9.1043 27.5254 8.61602C27.7441 8.12383 28.0586 7.69609 28.4688 7.33281C28.7812 7.05547 29.1328 6.84649 29.5234 6.70586C29.9141 6.56133 30.334 6.48906 30.7832 6.48906C31.6973 6.48906 32.4453 6.78008 33.0273 7.36211C33.6133 7.94414 33.9062 8.69024 33.9062 9.60039C33.9062 10.1121 33.8145 10.5984 33.6309 11.0594C33.4512 11.5164 33.1914 11.9227 32.8516 12.2781C32.5312 12.6063 32.1523 12.8582 31.7148 13.034C31.2812 13.2098 30.8105 13.2977 30.3027 13.2977C29.3965 13.2977 28.6523 13.0066 28.0703 12.4246C27.4883 11.8387 27.1973 11.0926 27.1973 10.1863ZM34.2109 13.1277L35.8691 4.59649H37.3691L35.7109 13.1277H34.2109ZM37.0352 13.1277L38.2832 6.68242H39.7715L38.5234 13.1277H37.0352ZM38.418 5.99688L38.6934 4.59649H40.1816L39.9062 5.99688H38.418ZM43.5918 7.89531C43.0215 7.89531 42.5449 8.11016 42.1621 8.53984C41.7793 8.96953 41.5879 9.51055 41.5879 10.1629C41.5879 10.6668 41.7441 11.0809 42.0566 11.4051C42.373 11.7293 42.7773 11.8914 43.2695 11.8914C43.8438 11.8914 44.3281 11.6766 44.7227 11.2469C45.1211 10.8172 45.3203 10.2879 45.3203 9.65899C45.3203 9.12774 45.1621 8.70195 44.8457 8.38164C44.5293 8.05742 44.1113 7.89531 43.5918 7.89531ZM40.0996 10.1863C40.0996 9.62774 40.209 9.1043 40.4277 8.61602C40.6465 8.12383 40.9609 7.69609 41.3711 7.33281C41.6836 7.05547 42.0352 6.84649 42.4258 6.70586C42.8164 6.56133 43.2363 6.48906 43.6855 6.48906C44.5996 6.48906 45.3477 6.78008 45.9297 7.36211C46.5156 7.94414 46.8086 8.69024 46.8086 9.60039C46.8086 10.1121 46.7168 10.5984 46.5332 11.0594C46.3535 11.5164 46.0938 11.9227 45.7539 12.2781C45.4336 12.6063 45.0547 12.8582 44.6172 13.034C44.1836 13.2098 43.7129 13.2977 43.2051 13.2977C42.2988 13.2977 41.5547 13.0066 40.9727 12.4246C40.3906 11.8387 40.0996 11.0926 40.0996 10.1863Z" fill="#1B1B1B"/>
<path d="M3.41406 8.31719L3.2829 8.29175L3.25205 8.45079H3.41406V8.31719ZM5.44727 8.00078L5.53036 8.10541L5.53129 8.10466L5.44727 8.00078ZM5.45898 6.23711L5.38293 6.34696L5.38372 6.3475L5.45898 6.23711ZM4.0293 5.9793V6.11324L4.03882 6.11256L4.0293 5.9793ZM3.86523 5.99102L3.84634 5.85875L3.75218 5.8722L3.73407 5.96558L3.86523 5.99102ZM2.47656 13.1277V13.2613H2.58674L2.60772 13.1532L2.47656 13.1277ZM0.794922 13.1277L0.66377 13.1022L0.632846 13.2613H0.794922V13.1277ZM2.45312 4.59649V4.46288H2.34299L2.32197 4.57099L2.45312 4.59649ZM6.83008 5.24688L6.74176 5.34713L6.74261 5.34787L6.83008 5.24688ZM7.35156 8.2L7.474 8.25348L7.47422 8.25297L7.35156 8.2ZM6.70117 9.07305L6.78696 9.17548L6.78766 9.17488L6.70117 9.07305ZM5.6875 9.63555L5.64773 9.508L5.64733 9.50812L5.6875 9.63555ZM3.12109 9.80547V9.67186H3.01092L2.98993 9.78002L3.12109 9.80547ZM3.41406 8.45079H4.26367V8.18358H3.41406V8.45079ZM4.26367 8.45079C4.80177 8.45079 5.23129 8.3429 5.53035 8.10541L5.36418 7.89615C5.13199 8.08054 4.77245 8.18358 4.26367 8.18358V8.45079ZM5.53129 8.10466C5.83495 7.85905 5.97931 7.50237 5.97931 7.05742H5.7121C5.7121 7.4406 5.59083 7.71283 5.36324 7.8969L5.53129 8.10466ZM5.97931 7.05742C5.97931 6.65174 5.83583 6.33235 5.53425 6.12672L5.38372 6.3475C5.59776 6.49344 5.7121 6.72091 5.7121 7.05742H5.97931ZM5.53503 6.12726C5.24746 5.92817 4.81566 5.83983 4.26367 5.83983V6.10704C4.79762 6.10704 5.1627 6.19449 5.38293 6.34696L5.53503 6.12726ZM4.26367 5.83983C4.16112 5.83983 4.07925 5.84178 4.01978 5.84603L4.03882 6.11256C4.08872 6.109 4.1631 6.10704 4.26367 6.10704V5.83983ZM4.0293 5.84569C3.96822 5.84569 3.90722 5.85006 3.84634 5.85875L3.88413 6.12328C3.93262 6.11635 3.981 6.1129 4.0293 6.1129V5.84569ZM3.73407 5.96558L3.2829 8.29175L3.54522 8.34263L3.9964 6.01646L3.73407 5.96558ZM2.47656 12.9941H0.794922V13.2613H2.47656V12.9941ZM0.926074 13.1532L2.58428 4.62198L2.32197 4.57099L0.66377 13.1022L0.926074 13.1532ZM2.45312 4.73009H4.7207V4.46288H2.45312V4.73009ZM4.7207 4.73009C5.61502 4.73009 6.2821 4.94219 6.74176 5.34713L6.9184 5.14662C6.39368 4.68437 5.65451 4.46288 4.7207 4.46288V4.73009ZM6.74261 5.34787C7.20333 5.74692 7.44061 6.31783 7.44061 7.08086H7.70783C7.70783 6.25795 7.44902 5.60621 6.91755 5.14588L6.74261 5.34787ZM7.44061 7.08086C7.44061 7.46636 7.36959 7.82123 7.2289 8.14703L7.47422 8.25297C7.63041 7.89127 7.70783 7.50005 7.70783 7.08086H7.44061ZM7.22913 8.14652C7.08891 8.46755 6.88447 8.74208 6.61468 8.97121L6.78766 9.17488C7.08818 8.91964 7.31734 8.61214 7.474 8.25348L7.22913 8.14652ZM6.61539 8.97062C6.31544 9.22182 5.99299 9.40034 5.64773 9.508L5.72727 9.7631C6.10857 9.6442 6.4619 9.44771 6.78696 9.17548L6.61539 8.97062ZM5.64733 9.50812C5.30675 9.61548 4.82818 9.67186 4.20508 9.67186V9.93908C4.83979 9.93908 5.3495 9.88218 5.72767 9.76297L5.64733 9.50812ZM4.20508 9.67186H3.12109V9.93908H4.20508V9.67186ZM2.98993 9.78002L2.3454 13.1023L2.60772 13.1532L3.25225 9.83092L2.98993 9.78002ZM9.51367 11.4051L9.41747 11.4978L9.41805 11.4984L9.51367 11.4051ZM12.1797 11.2469L12.0817 11.156L12.0813 11.1565L12.1797 11.2469ZM12.3027 8.38164L12.2071 8.47496L12.2077 8.47553L12.3027 8.38164ZM7.88477 8.61602L8.0067 8.67064L8.00686 8.67028L7.88477 8.61602ZM8.82812 7.33281L8.91671 7.43283L8.91681 7.43274L8.82812 7.33281ZM9.88281 6.70586L9.92807 6.83157L9.92918 6.83116L9.88281 6.70586ZM13.3867 7.36211L13.2922 7.45658L13.2926 7.4569L13.3867 7.36211ZM13.9902 11.0594L13.8661 11.0099L13.8659 11.0105L13.9902 11.0594ZM13.2109 12.2781L13.3065 12.3715L13.3075 12.3705L13.2109 12.2781ZM12.0742 13.034L12.0244 12.91L12.024 12.9102L12.0742 13.034ZM8.42969 12.4246L8.3349 12.5188L8.33521 12.5191L8.42969 12.4246ZM11.0488 7.76171C10.44 7.76171 9.92728 7.99312 9.51938 8.45097L9.7189 8.62872C10.0766 8.22719 10.517 8.02892 11.0488 8.02892V7.76171ZM9.51938 8.45097C9.11184 8.90841 8.91132 9.48246 8.91132 10.1629H9.17853C9.17853 9.53864 9.36082 9.03065 9.7189 8.62872L9.51938 8.45097ZM8.91132 10.1629C8.91132 10.6969 9.07804 11.1456 9.41748 11.4978L9.60987 11.3124C9.3243 11.0161 9.17853 10.6367 9.17853 10.1629H8.91132ZM9.41805 11.4984C9.76191 11.8507 10.2018 12.025 10.7266 12.025V11.7578C10.2669 11.7578 9.89825 11.6079 9.60929 11.3118L9.41805 11.4984ZM10.7266 12.025C11.3389 12.025 11.8587 11.794 12.2781 11.3372L12.0813 11.1565C11.7116 11.5591 11.2627 11.7578 10.7266 11.7578V12.025ZM12.2777 11.3377C12.7008 10.8814 12.911 10.3189 12.911 9.65899H12.6437C12.6437 10.2569 12.4555 10.753 12.0817 11.156L12.2777 11.3377ZM12.911 9.65899C12.911 9.09938 12.7433 8.63752 12.3978 8.28775L12.2077 8.47553C12.495 8.76639 12.6437 9.15609 12.6437 9.65899H12.911ZM12.3984 8.28833C12.053 7.93449 11.5986 7.76171 11.0488 7.76171V8.02892C11.5381 8.02892 11.9196 8.18035 12.2071 8.47496L12.3984 8.28833ZM7.69025 10.1863C7.69025 9.64572 7.79598 9.14098 8.0067 8.67064L7.76284 8.56139C7.53605 9.06761 7.42303 9.60976 7.42303 10.1863H7.69025ZM8.00686 8.67028C8.2177 8.19587 8.52061 7.78366 8.91671 7.43283L8.73954 7.2328C8.31532 7.60853 7.98933 8.05178 7.76267 8.56175L8.00686 8.67028ZM8.91681 7.43274C9.21669 7.1666 9.55353 6.9664 9.92807 6.83157L9.83756 6.58015C9.43084 6.72657 9.06456 6.94434 8.73944 7.23289L8.91681 7.43274ZM9.92918 6.83116C10.3038 6.69254 10.7079 6.62267 11.1426 6.62267V6.35546C10.6788 6.35546 10.243 6.43012 9.83645 6.58056L9.92918 6.83116ZM11.1426 6.62267C12.0255 6.62267 12.7381 6.90249 13.2922 7.45658L13.4812 7.26764C12.8712 6.65767 12.0878 6.35546 11.1426 6.35546V6.62267ZM13.2926 7.4569C13.8506 8.01117 14.132 8.72183 14.132 9.60039H14.3992C14.3992 8.65864 14.0948 7.87711 13.4809 7.26732L13.2926 7.4569ZM14.132 9.60039C14.132 10.0957 14.0432 10.5652 13.8661 11.0099L14.1144 11.1088C14.3044 10.6317 14.3992 10.1285 14.3992 9.60039H14.132ZM13.8659 11.0105C13.6926 11.4514 13.4422 11.8429 13.1144 12.1858L13.3075 12.3705C13.6593 12.0025 13.9285 11.5815 14.1146 11.1083L13.8659 11.0105ZM13.1153 12.1848C12.8084 12.4993 12.4452 12.741 12.0244 12.91L12.124 13.158C12.5783 12.9755 12.9729 12.7132 13.3065 12.3715L13.1153 12.1848ZM12.024 12.9102C11.6077 13.079 11.1542 13.1641 10.6621 13.1641V13.4313C11.1856 13.4313 11.6736 13.3406 12.1244 13.1578L12.024 12.9102ZM10.6621 13.1641C9.78736 13.1641 9.07849 12.8845 8.52416 12.3301L8.33521 12.5191C8.94495 13.1288 9.72436 13.4313 10.6621 13.4313V13.1641ZM8.52448 12.3305C7.96985 11.7721 7.69025 11.0611 7.69025 10.1863H7.42303C7.42303 11.1241 7.72547 11.9052 8.3349 12.5188L8.52448 12.3305ZM14.6055 13.1277L14.4743 13.1023L14.4435 13.2613H14.6055V13.1277ZM15.8535 6.68242V6.54882H15.7433L15.7223 6.65702L15.8535 6.68242ZM17.2246 6.68242L17.3557 6.70845L17.3874 6.54882H17.2246V6.68242ZM17.0547 7.53789L16.9236 7.51186L17.161 7.61879L17.0547 7.53789ZM17.998 6.74688L18.0551 6.86768L18.0557 6.86741L17.998 6.74688ZM19.3105 6.48906L19.4418 6.51399L19.4719 6.35546H19.3105V6.48906ZM19.0234 8.00078L19.0257 8.13437L19.1344 8.13253L19.1547 8.02571L19.0234 8.00078ZM17.5 8.42266L17.5847 8.52601L17.5854 8.5254L17.5 8.42266ZM16.8027 9.87578L16.6717 9.84958L16.6716 9.85003L16.8027 9.87578ZM16.1641 13.1277V13.2613H16.274L16.2952 13.1535L16.1641 13.1277ZM14.7366 13.1531L15.9847 6.70782L15.7223 6.65702L14.4743 13.1023L14.7366 13.1531ZM15.8535 6.81603H17.2246V6.54882H15.8535V6.81603ZM17.0936 6.65639L16.9236 7.51186L17.1857 7.56392L17.3557 6.70845L17.0936 6.65639ZM17.161 7.61879C17.4234 7.27393 17.7217 7.02521 18.0551 6.86768L17.941 6.62608C17.5634 6.80448 17.2328 7.08311 16.9484 7.45699L17.161 7.61879ZM18.0557 6.86741C18.3936 6.7058 18.795 6.62267 19.2637 6.62267V6.35546C18.7636 6.35546 18.3212 6.44421 17.9404 6.62634L18.0557 6.86741ZM19.2637 6.62267H19.3105V6.35546H19.2637V6.62267ZM19.1793 6.46413L18.8922 7.97585L19.1547 8.02571L19.4418 6.51399L19.1793 6.46413ZM19.0212 7.86719C18.3173 7.87912 17.7731 8.02192 17.4146 8.31992L17.5854 8.5254C17.8754 8.28433 18.3467 8.14588 19.0257 8.13437L19.0212 7.86719ZM17.4153 8.31931C17.0553 8.61425 16.8145 9.13574 16.6717 9.84958L16.9337 9.90198C17.0722 9.20957 17.2962 8.76232 17.5847 8.52601L17.4153 8.31931ZM16.6716 9.85003L16.033 13.102L16.2952 13.1535L16.9338 9.90153L16.6716 9.85003ZM16.1641 12.9941H14.6055V13.2613H16.1641V12.9941ZM19.5977 13.1277L19.4665 13.1024L19.4358 13.2613H19.5977V13.1277ZM20.582 8.03008L20.7132 8.05541L20.7439 7.89647H20.582V8.03008ZM19.7148 8.03008L19.5837 8.00442L19.5526 8.16369H19.7148V8.03008ZM19.9785 6.68242V6.54882H19.8685L19.8474 6.65677L19.9785 6.68242ZM20.8457 6.68242V6.81603H20.9558L20.9768 6.70796L20.8457 6.68242ZM21.2383 4.6668V4.53319H21.1282L21.1071 4.64126L21.2383 4.6668ZM22.791 4.6668L22.9222 4.69197L22.9527 4.53319H22.791V4.6668ZM22.4043 6.68242L22.2731 6.65725L22.2426 6.81603H22.4043V6.68242ZM23.3301 6.68242L23.4614 6.70698L23.491 6.54882H23.3301V6.68242ZM23.0781 8.03008V8.16369H23.1891L23.2095 8.05463L23.0781 8.03008ZM22.1406 8.03008V7.89647H22.0306L22.0095 8.00446L22.1406 8.03008ZM21.1445 13.1277V13.2613H21.2546L21.2757 13.1534L21.1445 13.1277ZM19.7288 13.1531L20.7132 8.05541L20.4508 8.00475L19.4665 13.1024L19.7288 13.1531ZM20.582 7.89647H19.7148V8.16369H20.582V7.89647ZM19.846 8.05573L20.1096 6.70808L19.8474 6.65677L19.5837 8.00442L19.846 8.05573ZM19.9785 6.81603H20.8457V6.54882H19.9785V6.81603ZM20.9768 6.70796L21.3694 4.69234L21.1071 4.64126L20.7146 6.65688L20.9768 6.70796ZM21.2383 4.8004H22.791V4.53319H21.2383V4.8004ZM22.6598 4.64162L22.2731 6.65725L22.5355 6.7076L22.9222 4.69197L22.6598 4.64162ZM22.4043 6.81603H23.3301V6.54882H22.4043V6.81603ZM23.1987 6.65787L22.9468 8.00553L23.2095 8.05463L23.4614 6.70698L23.1987 6.65787ZM23.0781 7.89647H22.1406V8.16369H23.0781V7.89647ZM22.0095 8.00446L21.0134 13.1021L21.2757 13.1534L22.2718 8.0557L22.0095 8.00446ZM21.1445 12.9941H19.5977V13.2613H21.1445V12.9941ZM23.4707 13.1277L23.3395 13.1023L23.3088 13.2613H23.4707V13.1277ZM24.4551 8.0418L24.5863 8.06719L24.617 7.90819H24.4551V8.0418ZM23.5234 8.0418L23.3923 8.01614L23.3612 8.1754H23.5234V8.0418ZM23.7871 6.69414V6.56053H23.6771L23.656 6.66849L23.7871 6.69414ZM24.7188 6.69414V6.82775H24.8334L24.8508 6.71446L24.7188 6.69414ZM27.8359 4.52031L27.8549 4.38764L27.8444 4.38698L27.8359 4.52031ZM27.877 4.52617L28.0082 4.5513L28.0345 4.41372L27.8958 4.39391L27.877 4.52617ZM27.6133 5.90313V6.03673H27.7237L27.7445 5.92825L27.6133 5.90313ZM27.5781 5.90313L27.5668 6.03673H27.5781V5.90313ZM26.207 6.69414L26.075 6.67357L26.051 6.82775H26.207V6.69414ZM27.1797 6.69414L27.3108 6.7198L27.342 6.56053H27.1797V6.69414ZM26.916 8.0418V8.1754H27.026L27.0471 8.06745L26.916 8.0418ZM25.9434 8.0418V7.90819H25.8334L25.8122 8.01612L25.9434 8.0418ZM24.9473 13.1277V13.2613H25.0572L25.0784 13.1534L24.9473 13.1277ZM23.6019 13.1531L24.5863 8.06719L24.3239 8.01641L23.3395 13.1023L23.6019 13.1531ZM24.4551 7.90819H23.5234V8.1754H24.4551V7.90819ZM23.6546 8.06745L23.9182 6.7198L23.656 6.66849L23.3923 8.01614L23.6546 8.06745ZM23.7871 6.82775H24.7188V6.56053H23.7871V6.82775ZM24.8508 6.71446C24.9652 5.97103 25.2194 5.44911 25.5967 5.12566L25.4228 4.92278C24.9799 5.30245 24.7067 5.89382 24.5867 6.67383L24.8508 6.71446ZM25.5967 5.12566C25.9737 4.80251 26.5353 4.63048 27.3027 4.63048V4.36327C26.4998 4.36327 25.8661 4.54281 25.4228 4.92278L25.5967 5.12566ZM27.3027 4.63048C27.4075 4.63048 27.5816 4.63804 27.8275 4.65365L27.8444 4.38698C27.5981 4.37134 27.4167 4.36327 27.3027 4.36327V4.63048ZM27.817 4.65258L27.8581 4.65844L27.8958 4.39391L27.8548 4.38805L27.817 4.65258ZM27.7457 4.50104L27.4821 5.878L27.7445 5.92825L28.0082 4.5513L27.7457 4.50104ZM27.6133 5.76952C27.6133 5.76952 27.6133 5.76952 27.6132 5.76952C27.6132 5.76952 27.6132 5.76952 27.6132 5.76952C27.6132 5.76952 27.6132 5.76952 27.6131 5.76952C27.6131 5.76952 27.6131 5.76952 27.6131 5.76952C27.6131 5.76952 27.6131 5.76952 27.6131 5.76952C27.613 5.76952 27.613 5.76952 27.613 5.76952C27.613 5.76952 27.613 5.76952 27.613 5.76952C27.6129 5.76952 27.6129 5.76952 27.6129 5.76952C27.6129 5.76952 27.6129 5.76952 27.6129 5.76952C27.6129 5.76952 27.6128 5.76952 27.6128 5.76952C27.6128 5.76952 27.6128 5.76952 27.6128 5.76952C27.6128 5.76952 27.6127 5.76952 27.6127 5.76952C27.6127 5.76952 27.6127 5.76952 27.6127 5.76952C27.6127 5.76952 27.6126 5.76952 27.6126 5.76952C27.6126 5.76952 27.6126 5.76952 27.6126 5.76952C27.6126 5.76952 27.6126 5.76952 27.6125 5.76952C27.6125 5.76952 27.6125 5.76952 27.6125 5.76952C27.6125 5.76952 27.6125 5.76952 27.6124 5.76952C27.6124 5.76952 27.6124 5.76952 27.6124 5.76952C27.6124 5.76952 27.6124 5.76952 27.6123 5.76952C27.6123 5.76952 27.6123 5.76952 27.6123 5.76952C27.6123 5.76952 27.6123 5.76952 27.6123 5.76952C27.6122 5.76952 27.6122 5.76952 27.6122 5.76952C27.6122 5.76952 27.6122 5.76952 27.6122 5.76952C27.6121 5.76952 27.6121 5.76952 27.6121 5.76952C27.6121 5.76952 27.6121 5.76952 27.6121 5.76952C27.612 5.76952 27.612 5.76952 27.612 5.76952C27.612 5.76952 27.612 5.76952 27.612 5.76952C27.6119 5.76952 27.6119 5.76952 27.6119 5.76952C27.6119 5.76952 27.6119 5.76952 27.6119 5.76952C27.6119 5.76952 27.6118 5.76952 27.6118 5.76952C27.6118 5.76952 27.6118 5.76952 27.6118 5.76952C27.6118 5.76952 27.6117 5.76952 27.6117 5.76952C27.6117 5.76952 27.6117 5.76952 27.6117 5.76952C27.6117 5.76952 27.6116 5.76952 27.6116 5.76952C27.6116 5.76952 27.6116 5.76952 27.6116 5.76952C27.6116 5.76952 27.6115 5.76952 27.6115 5.76952C27.6115 5.76952 27.6115 5.76952 27.6115 5.76952C27.6115 5.76952 27.6114 5.76952 27.6114 5.76952C27.6114 5.76952 27.6114 5.76952 27.6114 5.76952C27.6114 5.76952 27.6113 5.76952 27.6113 5.76952C27.6113 5.76952 27.6113 5.76952 27.6113 5.76952C27.6113 5.76952 27.6112 5.76952 27.6112 5.76952C27.6112 5.76952 27.6112 5.76952 27.6112 5.76952C27.6112 5.76952 27.6111 5.76952 27.6111 5.76952C27.6111 5.76952 27.6111 5.76952 27.6111 5.76952C27.6111 5.76952 27.611 5.76952 27.611 5.76952C27.611 5.76952 27.611 5.76952 27.611 5.76952C27.611 5.76952 27.6109 5.76952 27.6109 5.76952C27.6109 5.76952 27.6109 5.76952 27.6109 5.76952C27.6109 5.76952 27.6108 5.76952 27.6108 5.76952C27.6108 5.76952 27.6108 5.76952 27.6108 5.76952C27.6108 5.76952 27.6107 5.76952 27.6107 5.76952C27.6107 5.76952 27.6107 5.76952 27.6107 5.76952C27.6107 5.76952 27.6106 5.76952 27.6106 5.76952C27.6106 5.76952 27.6106 5.76952 27.6106 5.76952C27.6106 5.76952 27.6105 5.76952 27.6105 5.76952C27.6105 5.76952 27.6105 5.76952 27.6105 5.76952C27.6105 5.76952 27.6104 5.76952 27.6104 5.76952C27.6104 5.76952 27.6104 5.76952 27.6104 5.76952C27.6104 5.76952 27.6103 5.76952 27.6103 5.76952C27.6103 5.76952 27.6103 5.76952 27.6103 5.76952C27.6103 5.76952 27.6102 5.76952 27.6102 5.76952C27.6102 5.76952 27.6102 5.76952 27.6102 5.76952C27.6102 5.76952 27.6101 5.76952 27.6101 5.76952C27.6101 5.76952 27.6101 5.76952 27.6101 5.76952C27.61 5.76952 27.61 5.76952 27.61 5.76952C27.61 5.76952 27.61 5.76952 27.61 5.76952C27.6099 5.76952 27.6099 5.76952 27.6099 5.76952C27.6099 5.76952 27.6099 5.76952 27.6099 5.76952C27.6098 5.76952 27.6098 5.76952 27.6098 5.76952C27.6098 5.76952 27.6098 5.76952 27.6098 5.76952C27.6097 5.76952 27.6097 5.76952 27.6097 5.76952C27.6097 5.76952 27.6097 5.76952 27.6096 5.76952C27.6096 5.76952 27.6096 5.76952 27.6096 5.76952C27.6096 5.76952 27.6096 5.76952 27.6095 5.76952C27.6095 5.76952 27.6095 5.76952 27.6095 5.76952C27.6095 5.76952 27.6095 5.76952 27.6094 5.76952C27.6094 5.76952 27.6094 5.76952 27.6094 5.76952C27.6094 5.76952 27.6094 5.76952 27.6093 5.76952C27.6093 5.76952 27.6093 5.76952 27.6093 5.76952C27.6093 5.76952 27.6092 5.76952 27.6092 5.76952C27.6092 5.76952 27.6092 5.76952 27.6092 5.76952C27.6092 5.76952 27.6091 5.76952 27.6091 5.76952C27.6091 5.76952 27.6091 5.76952 27.6091 5.76952C27.609 5.76952 27.609 5.76952 27.609 5.76952C27.609 5.76952 27.609 5.76952 27.609 5.76952C27.6089 5.76952 27.6089 5.76952 27.6089 5.76952C27.6089 5.76952 27.6089 5.76952 27.6089 5.76952C27.6088 5.76952 27.6088 5.76952 27.6088 5.76952C27.6088 5.76952 27.6088 5.76952 27.6087 5.76952C27.6087 5.76952 27.6087 5.76952 27.6087 5.76952C27.6087 5.76952 27.6087 5.76952 27.6086 5.76952C27.6086 5.76952 27.6086 5.76952 27.6086 5.76952C27.6086 5.76952 27.6085 5.76952 27.6085 5.76952C27.6085 5.76952 27.6085 5.76952 27.6085 5.76952C27.6085 5.76952 27.6084 5.76952 27.6084 5.76952C27.6084 5.76952 27.6084 5.76952 27.6084 5.76952C27.6083 5.76952 27.6083 5.76952 27.6083 5.76952C27.6083 5.76952 27.6083 5.76952 27.6083 5.76952C27.6082 5.76952 27.6082 5.76952 27.6082 5.76952C27.6082 5.76952 27.6082 5.76952 27.6081 5.76952C27.6081 5.76952 27.6081 5.76952 27.6081 5.76952C27.6081 5.76952 27.6081 5.76952 27.608 5.76952C27.608 5.76952 27.608 5.76952 27.608 5.76952C27.608 5.76952 27.6079 5.76952 27.6079 5.76952C27.6079 5.76952 27.6079 5.76952 27.6079 5.76952C27.6079 5.76952 27.6078 5.76952 27.6078 5.76952C27.6078 5.76952 27.6078 5.76952 27.6078 5.76952C27.6077 5.76952 27.6077 5.76952 27.6077 5.76952C27.6077 5.76952 27.6077 5.76952 27.6076 5.76952C27.6076 5.76952 27.6076 5.76952 27.6076 5.76952C27.6076 5.76952 27.6076 5.76952 27.6075 5.76952C27.6075 5.76952 27.6075 5.76952 27.6075 5.76952C27.6075 5.76952 27.6074 5.76952 27.6074 5.76952C27.6074 5.76952 27.6074 5.76952 27.6074 5.76952C27.6074 5.76952 27.6073 5.76952 27.6073 5.76952C27.6073 5.76952 27.6073 5.76952 27.6073 5.76952C27.6072 5.76952 27.6072 5.76952 27.6072 5.76952C27.6072 5.76952 27.6072 5.76952 27.6071 5.76952C27.6071 5.76952 27.6071 5.76952 27.6071 5.76952C27.6071 5.76952 27.6071 5.76952 27.607 5.76952C27.607 5.76952 27.607 5.76952 27.607 5.76952C27.607 5.76952 27.6069 5.76952 27.6069 5.76952C27.6069 5.76952 27.6069 5.76952 27.6069 5.76952C27.6068 5.76952 27.6068 5.76952 27.6068 5.76952C27.6068 5.76952 27.6068 5.76952 27.6067 5.76952C27.6067 5.76952 27.6067 5.76952 27.6067 5.76952C27.6067 5.76952 27.6067 5.76952 27.6066 5.76952C27.6066 5.76952 27.6066 5.76952 27.6066 5.76952C27.6066 5.76952 27.6065 5.76952 27.6065 5.76952C27.6065 5.76952 27.6065 5.76952 27.6065 5.76952C27.6064 5.76952 27.6064 5.76952 27.6064 5.76952C27.6064 5.76952 27.6064 5.76952 27.6063 5.76952C27.6063 5.76952 27.6063 5.76952 27.6063 5.76952C27.6063 5.76952 27.6062 5.76952 27.6062 5.76952C27.6062 5.76952 27.6062 5.76952 27.6062 5.76952C27.6062 5.76952 27.6061 5.76952 27.6061 5.76952C27.6061 5.76952 27.6061 5.76952 27.6061 5.76952C27.606 5.76952 27.606 5.76952 27.606 5.76952C27.606 5.76952 27.606 5.76952 27.6059 5.76952C27.6059 5.76952 27.6059 5.76952 27.6059 5.76952C27.6059 5.76952 27.6058 5.76952 27.6058 5.76952C27.6058 5.76952 27.6058 5.76952 27.6058 5.76952C27.6057 5.76952 27.6057 5.76952 27.6057 5.76952C27.6057 5.76952 27.6057 5.76952 27.6056 5.76952C27.6056 5.76952 27.6056 5.76952 27.6056 5.76952C27.6056 5.76952 27.6055 5.76952 27.6055 5.76952C27.6055 5.76952 27.6055 5.76952 27.6055 5.76952C27.6054 5.76952 27.6054 5.76952 27.6054 5.76952C27.6054 5.76952 27.6054 5.76952 27.6053 5.76952C27.6053 5.76952 27.6053 5.76952 27.6053 5.76952C27.6053 5.76952 27.6053 5.76952 27.6052 5.76952C27.6052 5.76952 27.6052 5.76952 27.6052 5.76952C27.6052 5.76952 27.6051 5.76952 27.6051 5.76952C27.6051 5.76952 27.6051 5.76952 27.6051 5.76952C27.605 5.76952 27.605 5.76952 27.605 5.76952C27.605 5.76952 27.605 5.76952 27.6049 5.76952C27.6049 5.76952 27.6049 5.76952 27.6049 5.76952C27.6049 5.76952 27.6048 5.76952 27.6048 5.76952C27.6048 5.76952 27.6048 5.76952 27.6048 5.76952C27.6047 5.76952 27.6047 5.76952 27.6047 5.76952C27.6047 5.76952 27.6047 5.76952 27.6046 5.76952C27.6046 5.76952 27.6046 5.76952 27.6046 5.76952C27.6046 5.76952 27.6045 5.76952 27.6045 5.76952C27.6045 5.76952 27.6045 5.76952 27.6045 5.76952C27.6044 5.76952 27.6044 5.76952 27.6044 5.76952C27.6044 5.76952 27.6043 5.76952 27.6043 5.76952C27.6043 5.76952 27.6043 5.76952 27.6043 5.76952C27.6042 5.76952 27.6042 5.76952 27.6042 5.76952C27.6042 5.76952 27.6042 5.76952 27.6041 5.76952C27.6041 5.76952 27.6041 5.76952 27.6041 5.76952C27.6041 5.76952 27.604 5.76952 27.604 5.76952C27.604 5.76952 27.604 5.76952 27.604 5.76952C27.6039 5.76952 27.6039 5.76952 27.6039 5.76952C27.6039 5.76952 27.6039 5.76952 27.6038 5.76952C27.6038 5.76952 27.6038 5.76952 27.6038 5.76952C27.6038 5.76952 27.6037 5.76952 27.6037 5.76952C27.6037 5.76952 27.6037 5.76952 27.6037 5.76952C27.6036 5.76952 27.6036 5.76952 27.6036 5.76952C27.6036 5.76952 27.6036 5.76952 27.6035 5.76952C27.6035 5.76952 27.6035 5.76952 27.6035 5.76952C27.6034 5.76952 27.6034 5.76952 27.6034 5.76952C27.6034 5.76952 27.6034 5.76952 27.6033 5.76952C27.6033 5.76952 27.6033 5.76952 27.6033 5.76952C27.6033 5.76952 27.6032 5.76952 27.6032 5.76952C27.6032 5.76952 27.6032 5.76952 27.6032 5.76952C27.6031 5.76952 27.6031 5.76952 27.6031 5.76952C27.6031 5.76952 27.6031 5.76952 27.603 5.76952C27.603 5.76952 27.603 5.76952 27.603 5.76952C27.6029 5.76952 27.6029 5.76952 27.6029 5.76952C27.6029 5.76952 27.6029 5.76952 27.6028 5.76952C27.6028 5.76952 27.6028 5.76952 27.6028 5.76952C27.6028 5.76952 27.6027 5.76952 27.6027 5.76952C27.6027 5.76952 27.6027 5.76952 27.6027 5.76952C27.6026 5.76952 27.6026 5.76952 27.6026 5.76952C27.6026 5.76952 27.6025 5.76952 27.6025 5.76952C27.6025 5.76952 27.6025 5.76952 27.6025 5.76952C27.6024 5.76952 27.6024 5.76952 27.6024 5.76952C27.6024 5.76952 27.6024 5.76952 27.6023 5.76952C27.6023 5.76952 27.6023 5.76952 27.6023 5.76952C27.6023 5.76952 27.6022 5.76952 27.6022 5.76952C27.6022 5.76952 27.6022 5.76952 27.6021 5.76952C27.6021 5.76952 27.6021 5.76952 27.6021 5.76952C27.6021 5.76952 27.602 5.76952 27.602 5.76952C27.602 5.76952 27.602 5.76952 27.602 5.76952C27.6019 5.76952 27.6019 5.76952 27.6019 5.76952C27.6019 5.76952 27.6018 5.76952 27.6018 5.76952C27.6018 5.76952 27.6018 5.76952 27.6018 5.76952C27.6017 5.76952 27.6017 5.76952 27.6017 5.76952C27.6017 5.76952 27.6017 5.76952 27.6016 5.76952C27.6016 5.76952 27.6016 5.76952 27.6016 5.76952C27.6015 5.76952 27.6015 5.76952 27.6015 5.76952C27.6015 5.76952 27.6015 5.76952 27.6014 5.76952C27.6014 5.76952 27.6014 5.76952 27.6014 5.76952C27.6014 5.76952 27.6013 5.76952 27.6013 5.76952C27.6013 5.76952 27.6013 5.76952 27.6012 5.76952C27.6012 5.76952 27.6012 5.76952 27.6012 5.76952C27.6012 5.76952 27.6011 5.76952 27.6011 5.76952C27.6011 5.76952 27.6011 5.76952 27.601 5.76952C27.601 5.76952 27.601 5.76952 27.601 5.76952C27.601 5.76952 27.6009 5.76952 27.6009 5.76952C27.6009 5.76952 27.6009 5.76952 27.6009 5.76952C27.6008 5.76952 27.6008 5.76952 27.6008 5.76952C27.6008 5.76952 27.6007 5.76952 27.6007 5.76952C27.6007 5.76952 27.6007 5.76952 27.6007 5.76952C27.6006 5.76952 27.6006 5.76952 27.6006 5.76952C27.6006 5.76952 27.6005 5.76952 27.6005 5.76952C27.6005 5.76952 27.6005 5.76952 27.6005 5.76952C27.6004 5.76952 27.6004 5.76952 27.6004 5.76952C27.6004 5.76952 27.6003 5.76952 27.6003 5.76952C27.6003 5.76952 27.6003 5.76952 27.6003 5.76952C27.6002 5.76952 27.6002 5.76952 27.6002 5.76952C27.6002 5.76952 27.6001 5.76952 27.6001 5.76952C27.6001 5.76952 27.6001 5.76952 27.6001 5.76952C27.6 5.76952 27.6 5.76952 27.6 5.76952C27.6 5.76952 27.5999 5.76952 27.5999 5.76952C27.5999 5.76952 27.5999 5.76952 27.5999 5.76952C27.5998 5.76952 27.5998 5.76952 27.5998 5.76952C27.5998 5.76952 27.5997 5.76952 27.5997 5.76952C27.5997 5.76952 27.5997 5.76952 27.5997 5.76952C27.5996 5.76952 27.5996 5.76952 27.5996 5.76952C27.5996 5.76952 27.5995 5.76952 27.5995 5.76952C27.5995 5.76952 27.5995 5.76952 27.5995 5.76952C27.5994 5.76952 27.5994 5.76952 27.5994 5.76952C27.5994 5.76952 27.5993 5.76952 27.5993 5.76952C27.5993 5.76952 27.5993 5.76952 27.5992 5.76952C27.5992 5.76952 27.5992 5.76952 27.5992 5.76952C27.5992 5.76952 27.5991 5.76952 27.5991 5.76952C27.5991 5.76952 27.5991 5.76952 27.599 5.76952C27.599 5.76952 27.599 5.76952 27.599 5.76952C27.599 5.76952 27.5989 5.76952 27.5989 5.76952C27.5989 5.76952 27.5989 5.76952 27.5988 5.76952C27.5988 5.76952 27.5988 5.76952 27.5988 5.76952C27.5987 5.76952 27.5987 5.76952 27.5987 5.76952C27.5987 5.76952 27.5987 5.76952 27.5986 5.76952C27.5986 5.76952 27.5986 5.76952 27.5986 5.76952C27.5985 5.76952 27.5985 5.76952 27.5985 5.76952C27.5985 5.76952 27.5984 5.76952 27.5984 5.76952C27.5984 5.76952 27.5984 5.76952 27.5984 5.76952C27.5983 5.76952 27.5983 5.76952 27.5983 5.76952C27.5983 5.76952 27.5982 5.76952 27.5982 5.76952C27.5982 5.76952 27.5982 5.76952 27.5981 5.76952C27.5981 5.76952 27.5981 5.76952 27.5981 5.76952C27.5981 5.76952 27.598 5.76952 27.598 5.76952C27.598 5.76952 27.598 5.76952 27.5979 5.76952C27.5979 5.76952 27.5979 5.76952 27.5979 5.76952C27.5978 5.76952 27.5978 5.76952 27.5978 5.76952C27.5978 5.76952 27.5978 5.76952 27.5977 5.76952C27.5977 5.76952 27.5977 5.76952 27.5977 5.76952C27.5976 5.76952 27.5976 5.76952 27.5976 5.76952C27.5976 5.76952 27.5975 5.76952 27.5975 5.76952C27.5975 5.76952 27.5975 5.76952 27.5975 5.76952C27.5974 5.76952 27.5974 5.76952 27.5974 5.76952C27.5974 5.76952 27.5973 5.76952 27.5973 5.76952C27.5973 5.76952 27.5973 5.76952 27.5972 5.76952C27.5972 5.76952 27.5972 5.76952 27.5972 5.76952C27.5971 5.76952 27.5971 5.76952 27.5971 5.76952C27.5971 5.76952 27.5971 5.76952 27.597 5.76952C27.597 5.76952 27.597 5.76952 27.597 5.76952C27.5969 5.76952 27.5969 5.76952 27.5969 5.76952C27.5969 5.76952 27.5968 5.76952 27.5968 5.76952C27.5968 5.76952 27.5968 5.76952 27.5967 5.76952C27.5967 5.76952 27.5967 5.76952 27.5967 5.76952C27.5967 5.76952 27.5966 5.76952 27.5966 5.76952C27.5966 5.76952 27.5966 5.76952 27.5965 5.76952C27.5965 5.76952 27.5965 5.76952 27.5965 5.76952C27.5964 5.76952 27.5964 5.76952 27.5964 5.76952C27.5964 5.76952 27.5963 5.76952 27.5963 5.76952C27.5963 5.76952 27.5963 5.76952 27.5962 5.76952C27.5962 5.76952 27.5962 5.76952 27.5962 5.76952C27.5962 5.76952 27.5961 5.76952 27.5961 5.76952C27.5961 5.76952 27.5961 5.76952 27.596 5.76952C27.596 5.76952 27.596 5.76952 27.596 5.76952C27.5959 5.76952 27.5959 5.76952 27.5959 5.76952C27.5959 5.76952 27.5958 5.76952 27.5958 5.76952C27.5958 5.76952 27.5958 5.76952 27.5957 5.76952C27.5957 5.76952 27.5957 5.76952 27.5957 5.76952C27.5956 5.76952 27.5956 5.76952 27.5956 5.76952C27.5956 5.76952 27.5955 5.76952 27.5955 5.76952C27.5955 5.76952 27.5955 5.76952 27.5955 5.76952C27.5954 5.76952 27.5954 5.76952 27.5954 5.76952C27.5954 5.76952 27.5953 5.76952 27.5953 5.76952C27.5953 5.76952 27.5953 5.76952 27.5952 5.76952C27.5952 5.76952 27.5952 5.76952 27.5952 5.76952C27.5951 5.76952 27.5951 5.76952 27.5951 5.76952C27.5951 5.76952 27.595 5.76952 27.595 5.76952C27.595 5.76952 27.595 5.76952 27.5949 5.76952C27.5949 5.76952 27.5949 5.76952 27.5949 5.76952C27.5948 5.76952 27.5948 5.76952 27.5948 5.76952C27.5948 5.76952 27.5947 5.76952 27.5947 5.76952C27.5947 5.76952 27.5947 5.76952 27.5946 5.76952C27.5946 5.76952 27.5946 5.76952 27.5946 5.76952C27.5945 5.76952 27.5945 5.76952 27.5945 5.76952C27.5945 5.76952 27.5945 5.76952 27.5944 5.76952C27.5944 5.76952 27.5944 5.76952 27.5944 5.76952C27.5943 5.76952 27.5943 5.76952 27.5943 5.76952C27.5943 5.76952 27.5942 5.76952 27.5942 5.76952C27.5942 5.76952 27.5942 5.76952 27.5941 5.76952C27.5941 5.76952 27.5941 5.76952 27.5941 5.76952C27.594 5.76952 27.594 5.76952 27.594 5.76952C27.594 5.76952 27.5939 5.76952 27.5939 5.76952C27.5939 5.76952 27.5939 5.76952 27.5938 5.76952C27.5938 5.76952 27.5938 5.76952 27.5938 5.76952C27.5937 5.76952 27.5937 5.76952 27.5937 5.76952C27.5937 5.76952 27.5936 5.76952 27.5936 5.76952C27.5936 5.76952 27.5936 5.76952 27.5935 5.76952C27.5935 5.76952 27.5935 5.76952 27.5935 5.76952C27.5934 5.76952 27.5934 5.76952 27.5934 5.76952C27.5934 5.76952 27.5933 5.76952 27.5933 5.76952C27.5933 5.76952 27.5933 5.76952 27.5932 5.76952C27.5932 5.76952 27.5932 5.76952 27.5932 5.76952C27.5931 5.76952 27.5931 5.76952 27.5931 5.76952C27.5931 5.76952 27.593 5.76952 27.593 5.76952C27.593 5.76952 27.593 5.76952 27.5929 5.76952C27.5929 5.76952 27.5929 5.76952 27.5929 5.76952C27.5928 5.76952 27.5928 5.76952 27.5928 5.76952C27.5928 5.76952 27.5927 5.76952 27.5927 5.76952C27.5927 5.76952 27.5927 5.76952 27.5926 5.76952C27.5926 5.76952 27.5926 5.76952 27.5925 5.76952C27.5925 5.76952 27.5925 5.76952 27.5925 5.76952C27.5924 5.76952 27.5924 5.76952 27.5924 5.76952C27.5924 5.76952 27.5923 5.76952 27.5923 5.76952C27.5923 5.76952 27.5923 5.76952 27.5922 5.76952C27.5922 5.76952 27.5922 5.76952 27.5922 5.76952C27.5921 5.76952 27.5921 5.76952 27.5921 5.76952C27.5921 5.76952 27.592 5.76952 27.592 5.76952C27.592 5.76952 27.592 5.76952 27.5919 5.76952C27.5919 5.76952 27.5919 5.76952 27.5919 5.76952C27.5918 5.76952 27.5918 5.76952 27.5918 5.76952C27.5918 5.76952 27.5917 5.76952 27.5917 5.76952C27.5917 5.76952 27.5917 5.76952 27.5916 5.76952C27.5916 5.76952 27.5916 5.76952 27.5916 5.76952C27.5915 5.76952 27.5915 5.76952 27.5915 5.76952C27.5914 5.76952 27.5914 5.76952 27.5914 5.76952C27.5914 5.76952 27.5913 5.76952 27.5913 5.76952C27.5913 5.76952 27.5913 5.76952 27.5912 5.76952C27.5912 5.76952 27.5912 5.76952 27.5912 5.76952C27.5911 5.76952 27.5911 5.76952 27.5911 5.76952C27.5911 5.76952 27.591 5.76952 27.591 5.76952C27.591 5.76952 27.591 5.76952 27.5909 5.76952C27.5909 5.76952 27.5909 5.76952 27.5909 5.76952C27.5908 5.76952 27.5908 5.76952 27.5908 5.76952C27.5907 5.76952 27.5907 5.76952 27.5907 5.76952C27.5907 5.76952 27.5906 5.76952 27.5906 5.76952C27.5906 5.76952 27.5906 5.76952 27.5905 5.76952C27.5905 5.76952 27.5905 5.76952 27.5905 5.76952C27.5904 5.76952 27.5904 5.76952 27.5904 5.76952C27.5904 5.76952 27.5903 5.76952 27.5903 5.76952C27.5903 5.76952 27.5903 5.76952 27.5902 5.76952C27.5902 5.76952 27.5902 5.76952 27.5901 5.76952C27.5901 5.76952 27.5901 5.76952 27.5901 5.76952C27.59 5.76952 27.59 5.76952 27.59 5.76952C27.59 5.76952 27.5899 5.76952 27.5899 5.76952C27.5899 5.76952 27.5899 5.76952 27.5898 5.76952C27.5898 5.76952 27.5898 5.76952 27.5897 5.76952C27.5897 5.76952 27.5897 5.76952 27.5897 5.76952C27.5896 5.76952 27.5896 5.76952 27.5896 5.76952C27.5896 5.76952 27.5895 5.76952 27.5895 5.76952C27.5895 5.76952 27.5895 5.76952 27.5894 5.76952C27.5894 5.76952 27.5894 5.76952 27.5894 5.76952C27.5893 5.76952 27.5893 5.76952 27.5893 5.76952C27.5892 5.76952 27.5892 5.76952 27.5892 5.76952C27.5892 5.76952 27.5891 5.76952 27.5891 5.76952C27.5891 5.76952 27.5891 5.76952 27.589 5.76952C27.589 5.76952 27.589 5.76952 27.589 5.76952C27.5889 5.76952 27.5889 5.76952 27.5889 5.76952C27.5888 5.76952 27.5888 5.76952 27.5888 5.76952C27.5888 5.76952 27.5887 5.76952 27.5887 5.76952C27.5887 5.76952 27.5887 5.76952 27.5886 5.76952C27.5886 5.76952 27.5886 5.76952 27.5885 5.76952C27.5885 5.76952 27.5885 5.76952 27.5885 5.76952C27.5884 5.76952 27.5884 5.76952 27.5884 5.76952C27.5884 5.76952 27.5883 5.76952 27.5883 5.76952C27.5883 5.76952 27.5883 5.76952 27.5882 5.76952C27.5882 5.76952 27.5882 5.76952 27.5881 5.76952C27.5881 5.76952 27.5881 5.76952 27.5881 5.76952C27.588 5.76952 27.588 5.76952 27.588 5.76952C27.588 5.76952 27.5879 5.76952 27.5879 5.76952C27.5879 5.76952 27.5878 5.76952 27.5878 5.76952C27.5878 5.76952 27.5878 5.76952 27.5877 5.76952C27.5877 5.76952 27.5877 5.76952 27.5877 5.76952C27.5876 5.76952 27.5876 5.76952 27.5876 5.76952C27.5875 5.76952 27.5875 5.76952 27.5875 5.76952C27.5875 5.76952 27.5874 5.76952 27.5874 5.76952C27.5874 5.76952 27.5874 5.76952 27.5873 5.76952C27.5873 5.76952 27.5873 5.76952 27.5872 5.76952C27.5872 5.76952 27.5872 5.76952 27.5872 5.76952C27.5871 5.76952 27.5871 5.76952 27.5871 5.76952C27.5871 5.76952 27.587 5.76952 27.587 5.76952C27.587 5.76952 27.5869 5.76952 27.5869 5.76952C27.5869 5.76952 27.5869 5.76952 27.5868 5.76952C27.5868 5.76952 27.5868 5.76952 27.5868 5.76952C27.5867 5.76952 27.5867 5.76952 27.5867 5.76952C27.5866 5.76952 27.5866 5.76952 27.5866 5.76952C27.5866 5.76952 27.5865 5.76952 27.5865 5.76952C27.5865 5.76952 27.5864 5.76952 27.5864 5.76952C27.5864 5.76952 27.5864 5.76952 27.5863 5.76952C27.5863 5.76952 27.5863 5.76952 27.5863 5.76952C27.5862 5.76952 27.5862 5.76952 27.5862 5.76952C27.5861 5.76952 27.5861 5.76952 27.5861 5.76952C27.5861 5.76952 27.586 5.76952 27.586 5.76952C27.586 5.76952 27.5859 5.76952 27.5859 5.76952C27.5859 5.76952 27.5859 5.76952 27.5858 5.76952C27.5858 5.76952 27.5858 5.76952 27.5858 5.76952C27.5857 5.76952 27.5857 5.76952 27.5857 5.76952C27.5856 5.76952 27.5856 5.76952 27.5856 5.76952C27.5856 5.76952 27.5855 5.76952 27.5855 5.76952C27.5855 5.76952 27.5854 5.76952 27.5854 5.76952C27.5854 5.76952 27.5854 5.76952 27.5853 5.76952C27.5853 5.76952 27.5853 5.76952 27.5852 5.76952C27.5852 5.76952 27.5852 5.76952 27.5852 5.76952C27.5851 5.76952 27.5851 5.76952 27.5851 5.76952C27.5851 5.76952 27.585 5.76952 27.585 5.76952C27.585 5.76952 27.5849 5.76952 27.5849 5.76952C27.5849 5.76952 27.5849 5.76952 27.5848 5.76952C27.5848 5.76952 27.5848 5.76952 27.5847 5.76952C27.5847 5.76952 27.5847 5.76952 27.5847 5.76952C27.5846 5.76952 27.5846 5.76952 27.5846 5.76952C27.5845 5.76952 27.5845 5.76952 27.5845 5.76952C27.5845 5.76952 27.5844 5.76952 27.5844 5.76952C27.5844 5.76952 27.5843 5.76952 27.5843 5.76952C27.5843 5.76952 27.5843 5.76952 27.5842 5.76952C27.5842 5.76952 27.5842 5.76952 27.5841 5.76952C27.5841 5.76952 27.5841 5.76952 27.5841 5.76952C27.584 5.76952 27.584 5.76952 27.584 5.76952C27.5839 5.76952 27.5839 5.76952 27.5839 5.76952C27.5839 5.76952 27.5838 5.76952 27.5838 5.76952C27.5838 5.76952 27.5837 5.76952 27.5837 5.76952C27.5837 5.76952 27.5837 5.76952 27.5836 5.76952C27.5836 5.76952 27.5836 5.76952 27.5835 5.76952C27.5835 5.76952 27.5835 5.76952 27.5835 5.76952C27.5834 5.76952 27.5834 5.76952 27.5834 5.76952C27.5833 5.76952 27.5833 5.76952 27.5833 5.76952C27.5833 5.76952 27.5832 5.76952 27.5832 5.76952C27.5832 5.76952 27.5831 5.76952 27.5831 5.76952C27.5831 5.76952 27.5831 5.76952 27.583 5.76952C27.583 5.76952 27.583 5.76952 27.5829 5.76952C27.5829 5.76952 27.5829 5.76952 27.5829 5.76952C27.5828 5.76952 27.5828 5.76952 27.5828 5.76952C27.5827 5.76952 27.5827 5.76952 27.5827 5.76952C27.5826 5.76952 27.5826 5.76952 27.5826 5.76952C27.5826 5.76952 27.5825 5.76952 27.5825 5.76952C27.5825 5.76952 27.5824 5.76952 27.5824 5.76952C27.5824 5.76952 27.5824 5.76952 27.5823 5.76952C27.5823 5.76952 27.5823 5.76952 27.5822 5.76952C27.5822 5.76952 27.5822 5.76952 27.5822 5.76952C27.5821 5.76952 27.5821 5.76952 27.5821 5.76952C27.582 5.76952 27.582 5.76952 27.582 5.76952C27.5819 5.76952 27.5819 5.76952 27.5819 5.76952C27.5819 5.76952 27.5818 5.76952 27.5818 5.76952C27.5818 5.76952 27.5817 5.76952 27.5817 5.76952C27.5817 5.76952 27.5817 5.76952 27.5816 5.76952C27.5816 5.76952 27.5816 5.76952 27.5815 5.76952C27.5815 5.76952 27.5815 5.76952 27.5815 5.76952C27.5814 5.76952 27.5814 5.76952 27.5814 5.76952C27.5813 5.76952 27.5813 5.76952 27.5813 5.76952C27.5812 5.76952 27.5812 5.76952 27.5812 5.76952C27.5812 5.76952 27.5811 5.76952 27.5811 5.76952C27.5811 5.76952 27.581 5.76952 27.581 5.76952C27.581 5.76952 27.5809 5.76952 27.5809 5.76952C27.5809 5.76952 27.5809 5.76952 27.5808 5.76952C27.5808 5.76952 27.5808 5.76952 27.5807 5.76952C27.5807 5.76952 27.5807 5.76952 27.5807 5.76952C27.5806 5.76952 27.5806 5.76952 27.5806 5.76952C27.5805 5.76952 27.5805 5.76952 27.5805 5.76952C27.5804 5.76952 27.5804 5.76952 27.5804 5.76952C27.5804 5.76952 27.5803 5.76952 27.5803 5.76952C27.5803 5.76952 27.5802 5.76952 27.5802 5.76952C27.5802 5.76952 27.5801 5.76952 27.5801 5.76952C27.5801 5.76952 27.5801 5.76952 27.58 5.76952C27.58 5.76952 27.58 5.76952 27.5799 5.76952C27.5799 5.76952 27.5799 5.76952 27.5798 5.76952C27.5798 5.76952 27.5798 5.76952 27.5798 5.76952C27.5797 5.76952 27.5797 5.76952 27.5797 5.76952C27.5796 5.76952 27.5796 5.76952 27.5796 5.76952C27.5795 5.76952 27.5795 5.76952 27.5795 5.76952C27.5795 5.76952 27.5794 5.76952 27.5794 5.76952C27.5794 5.76952 27.5793 5.76952 27.5793 5.76952C27.5793 5.76952 27.5792 5.76952 27.5792 5.76952C27.5792 5.76952 27.5792 5.76952 27.5791 5.76952C27.5791 5.76952 27.5791 5.76952 27.579 5.76952C27.579 5.76952 27.579 5.76952 27.5789 5.76952C27.5789 5.76952 27.5789 5.76952 27.5789 5.76952C27.5788 5.76952 27.5788 5.76952 27.5788 5.76952C27.5787 5.76952 27.5787 5.76952 27.5787 5.76952C27.5786 5.76952 27.5786 5.76952 27.5786 5.76952C27.5786 5.76952 27.5785 5.76952 27.5785 5.76952C27.5785 5.76952 27.5784 5.76952 27.5784 5.76952C27.5784 5.76952 27.5783 5.76952 27.5783 5.76952C27.5783 5.76952 27.5782 5.76952 27.5782 5.76952C27.5782 5.76952 27.5782 5.76952 27.5781 5.76952V6.03673C27.5782 6.03673 27.5782 6.03673 27.5782 6.03673C27.5782 6.03673 27.5783 6.03673 27.5783 6.03673C27.5783 6.03673 27.5784 6.03673 27.5784 6.03673C27.5784 6.03673 27.5785 6.03673 27.5785 6.03673C27.5785 6.03673 27.5786 6.03673 27.5786 6.03673C27.5786 6.03673 27.5786 6.03673 27.5787 6.03673C27.5787 6.03673 27.5787 6.03673 27.5788 6.03673C27.5788 6.03673 27.5788 6.03673 27.5789 6.03673C27.5789 6.03673 27.5789 6.03673 27.5789 6.03673C27.579 6.03673 27.579 6.03673 27.579 6.03673C27.5791 6.03673 27.5791 6.03673 27.5791 6.03673C27.5792 6.03673 27.5792 6.03673 27.5792 6.03673C27.5792 6.03673 27.5793 6.03673 27.5793 6.03673C27.5793 6.03673 27.5794 6.03673 27.5794 6.03673C27.5794 6.03673 27.5795 6.03673 27.5795 6.03673C27.5795 6.03673 27.5795 6.03673 27.5796 6.03673C27.5796 6.03673 27.5796 6.03673 27.5797 6.03673C27.5797 6.03673 27.5797 6.03673 27.5798 6.03673C27.5798 6.03673 27.5798 6.03673 27.5798 6.03673C27.5799 6.03673 27.5799 6.03673 27.5799 6.03673C27.58 6.03673 27.58 6.03673 27.58 6.03673C27.5801 6.03673 27.5801 6.03673 27.5801 6.03673C27.5801 6.03673 27.5802 6.03673 27.5802 6.03673C27.5802 6.03673 27.5803 6.03673 27.5803 6.03673C27.5803 6.03673 27.5804 6.03673 27.5804 6.03673C27.5804 6.03673 27.5804 6.03673 27.5805 6.03673C27.5805 6.03673 27.5805 6.03673 27.5806 6.03673C27.5806 6.03673 27.5806 6.03673 27.5807 6.03673C27.5807 6.03673 27.5807 6.03673 27.5807 6.03673C27.5808 6.03673 27.5808 6.03673 27.5808 6.03673C27.5809 6.03673 27.5809 6.03673 27.5809 6.03673C27.5809 6.03673 27.581 6.03673 27.581 6.03673C27.581 6.03673 27.5811 6.03673 27.5811 6.03673C27.5811 6.03673 27.5812 6.03673 27.5812 6.03673C27.5812 6.03673 27.5812 6.03673 27.5813 6.03673C27.5813 6.03673 27.5813 6.03673 27.5814 6.03673C27.5814 6.03673 27.5814 6.03673 27.5815 6.03673C27.5815 6.03673 27.5815 6.03673 27.5815 6.03673C27.5816 6.03673 27.5816 6.03673 27.5816 6.03673C27.5817 6.03673 27.5817 6.03673 27.5817 6.03673C27.5817 6.03673 27.5818 6.03673 27.5818 6.03673C27.5818 6.03673 27.5819 6.03673 27.5819 6.03673C27.5819 6.03673 27.5819 6.03673 27.582 6.03673C27.582 6.03673 27.582 6.03673 27.5821 6.03673C27.5821 6.03673 27.5821 6.03673 27.5822 6.03673C27.5822 6.03673 27.5822 6.03673 27.5822 6.03673C27.5823 6.03673 27.5823 6.03673 27.5823 6.03673C27.5824 6.03673 27.5824 6.03673 27.5824 6.03673C27.5824 6.03673 27.5825 6.03673 27.5825 6.03673C27.5825 6.03673 27.5826 6.03673 27.5826 6.03673C27.5826 6.03673 27.5826 6.03673 27.5827 6.03673C27.5827 6.03673 27.5827 6.03673 27.5828 6.03673C27.5828 6.03673 27.5828 6.03673 27.5829 6.03673C27.5829 6.03673 27.5829 6.03673 27.5829 6.03673C27.583 6.03673 27.583 6.03673 27.583 6.03673C27.5831 6.03673 27.5831 6.03673 27.5831 6.03673C27.5831 6.03673 27.5832 6.03673 27.5832 6.03673C27.5832 6.03673 27.5833 6.03673 27.5833 6.03673C27.5833 6.03673 27.5833 6.03673 27.5834 6.03673C27.5834 6.03673 27.5834 6.03673 27.5835 6.03673C27.5835 6.03673 27.5835 6.03673 27.5835 6.03673C27.5836 6.03673 27.5836 6.03673 27.5836 6.03673C27.5837 6.03673 27.5837 6.03673 27.5837 6.03673C27.5837 6.03673 27.5838 6.03673 27.5838 6.03673C27.5838 6.03673 27.5839 6.03673 27.5839 6.03673C27.5839 6.03673 27.5839 6.03673 27.584 6.03673C27.584 6.03673 27.584 6.03673 27.5841 6.03673C27.5841 6.03673 27.5841 6.03673 27.5841 6.03673C27.5842 6.03673 27.5842 6.03673 27.5842 6.03673C27.5843 6.03673 27.5843 6.03673 27.5843 6.03673C27.5843 6.03673 27.5844 6.03673 27.5844 6.03673C27.5844 6.03673 27.5845 6.03673 27.5845 6.03673C27.5845 6.03673 27.5845 6.03673 27.5846 6.03673C27.5846 6.03673 27.5846 6.03673 27.5847 6.03673C27.5847 6.03673 27.5847 6.03673 27.5847 6.03673C27.5848 6.03673 27.5848 6.03673 27.5848 6.03673C27.5849 6.03673 27.5849 6.03673 27.5849 6.03673C27.5849 6.03673 27.585 6.03673 27.585 6.03673C27.585 6.03673 27.5851 6.03673 27.5851 6.03673C27.5851 6.03673 27.5851 6.03673 27.5852 6.03673C27.5852 6.03673 27.5852 6.03673 27.5852 6.03673C27.5853 6.03673 27.5853 6.03673 27.5853 6.03673C27.5854 6.03673 27.5854 6.03673 27.5854 6.03673C27.5854 6.03673 27.5855 6.03673 27.5855 6.03673C27.5855 6.03673 27.5856 6.03673 27.5856 6.03673C27.5856 6.03673 27.5856 6.03673 27.5857 6.03673C27.5857 6.03673 27.5857 6.03673 27.5858 6.03673C27.5858 6.03673 27.5858 6.03673 27.5858 6.03673C27.5859 6.03673 27.5859 6.03673 27.5859 6.03673C27.5859 6.03673 27.586 6.03673 27.586 6.03673C27.586 6.03673 27.5861 6.03673 27.5861 6.03673C27.5861 6.03673 27.5861 6.03673 27.5862 6.03673C27.5862 6.03673 27.5862 6.03673 27.5863 6.03673C27.5863 6.03673 27.5863 6.03673 27.5863 6.03673C27.5864 6.03673 27.5864 6.03673 27.5864 6.03673C27.5864 6.03673 27.5865 6.03673 27.5865 6.03673C27.5865 6.03673 27.5866 6.03673 27.5866 6.03673C27.5866 6.03673 27.5866 6.03673 27.5867 6.03673C27.5867 6.03673 27.5867 6.03673 27.5868 6.03673C27.5868 6.03673 27.5868 6.03673 27.5868 6.03673C27.5869 6.03673 27.5869 6.03673 27.5869 6.03673C27.5869 6.03673 27.587 6.03673 27.587 6.03673C27.587 6.03673 27.5871 6.03673 27.5871 6.03673C27.5871 6.03673 27.5871 6.03673 27.5872 6.03673C27.5872 6.03673 27.5872 6.03673 27.5872 6.03673C27.5873 6.03673 27.5873 6.03673 27.5873 6.03673C27.5874 6.03673 27.5874 6.03673 27.5874 6.03673C27.5874 6.03673 27.5875 6.03673 27.5875 6.03673C27.5875 6.03673 27.5875 6.03673 27.5876 6.03673C27.5876 6.03673 27.5876 6.03673 27.5877 6.03673C27.5877 6.03673 27.5877 6.03673 27.5877 6.03673C27.5878 6.03673 27.5878 6.03673 27.5878 6.03673C27.5878 6.03673 27.5879 6.03673 27.5879 6.03673C27.5879 6.03673 27.588 6.03673 27.588 6.03673C27.588 6.03673 27.588 6.03673 27.5881 6.03673C27.5881 6.03673 27.5881 6.03673 27.5881 6.03673C27.5882 6.03673 27.5882 6.03673 27.5882 6.03673C27.5883 6.03673 27.5883 6.03673 27.5883 6.03673C27.5883 6.03673 27.5884 6.03673 27.5884 6.03673C27.5884 6.03673 27.5884 6.03673 27.5885 6.03673C27.5885 6.03673 27.5885 6.03673 27.5885 6.03673C27.5886 6.03673 27.5886 6.03673 27.5886 6.03673C27.5887 6.03673 27.5887 6.03673 27.5887 6.03673C27.5887 6.03673 27.5888 6.03673 27.5888 6.03673C27.5888 6.03673 27.5888 6.03673 27.5889 6.03673C27.5889 6.03673 27.5889 6.03673 27.589 6.03673C27.589 6.03673 27.589 6.03673 27.589 6.03673C27.5891 6.03673 27.5891 6.03673 27.5891 6.03673C27.5891 6.03673 27.5892 6.03673 27.5892 6.03673C27.5892 6.03673 27.5892 6.03673 27.5893 6.03673C27.5893 6.03673 27.5893 6.03673 27.5894 6.03673C27.5894 6.03673 27.5894 6.03673 27.5894 6.03673C27.5895 6.03673 27.5895 6.03673 27.5895 6.03673C27.5895 6.03673 27.5896 6.03673 27.5896 6.03673C27.5896 6.03673 27.5896 6.03673 27.5897 6.03673C27.5897 6.03673 27.5897 6.03673 27.5897 6.03673C27.5898 6.03673 27.5898 6.03673 27.5898 6.03673C27.5899 6.03673 27.5899 6.03673 27.5899 6.03673C27.5899 6.03673 27.59 6.03673 27.59 6.03673C27.59 6.03673 27.59 6.03673 27.5901 6.03673C27.5901 6.03673 27.5901 6.03673 27.5901 6.03673C27.5902 6.03673 27.5902 6.03673 27.5902 6.03673C27.5903 6.03673 27.5903 6.03673 27.5903 6.03673C27.5903 6.03673 27.5904 6.03673 27.5904 6.03673C27.5904 6.03673 27.5904 6.03673 27.5905 6.03673C27.5905 6.03673 27.5905 6.03673 27.5905 6.03673C27.5906 6.03673 27.5906 6.03673 27.5906 6.03673C27.5906 6.03673 27.5907 6.03673 27.5907 6.03673C27.5907 6.03673 27.5907 6.03673 27.5908 6.03673C27.5908 6.03673 27.5908 6.03673 27.5909 6.03673C27.5909 6.03673 27.5909 6.03673 27.5909 6.03673C27.591 6.03673 27.591 6.03673 27.591 6.03673C27.591 6.03673 27.5911 6.03673 27.5911 6.03673C27.5911 6.03673 27.5911 6.03673 27.5912 6.03673C27.5912 6.03673 27.5912 6.03673 27.5912 6.03673C27.5913 6.03673 27.5913 6.03673 27.5913 6.03673C27.5913 6.03673 27.5914 6.03673 27.5914 6.03673C27.5914 6.03673 27.5914 6.03673 27.5915 6.03673C27.5915 6.03673 27.5915 6.03673 27.5916 6.03673C27.5916 6.03673 27.5916 6.03673 27.5916 6.03673C27.5917 6.03673 27.5917 6.03673 27.5917 6.03673C27.5917 6.03673 27.5918 6.03673 27.5918 6.03673C27.5918 6.03673 27.5918 6.03673 27.5919 6.03673C27.5919 6.03673 27.5919 6.03673 27.5919 6.03673C27.592 6.03673 27.592 6.03673 27.592 6.03673C27.592 6.03673 27.5921 6.03673 27.5921 6.03673C27.5921 6.03673 27.5921 6.03673 27.5922 6.03673C27.5922 6.03673 27.5922 6.03673 27.5922 6.03673C27.5923 6.03673 27.5923 6.03673 27.5923 6.03673C27.5923 6.03673 27.5924 6.03673 27.5924 6.03673C27.5924 6.03673 27.5924 6.03673 27.5925 6.03673C27.5925 6.03673 27.5925 6.03673 27.5925 6.03673C27.5926 6.03673 27.5926 6.03673 27.5926 6.03673C27.5927 6.03673 27.5927 6.03673 27.5927 6.03673C27.5927 6.03673 27.5928 6.03673 27.5928 6.03673C27.5928 6.03673 27.5928 6.03673 27.5929 6.03673C27.5929 6.03673 27.5929 6.03673 27.5929 6.03673C27.593 6.03673 27.593 6.03673 27.593 6.03673C27.593 6.03673 27.5931 6.03673 27.5931 6.03673C27.5931 6.03673 27.5931 6.03673 27.5932 6.03673C27.5932 6.03673 27.5932 6.03673 27.5932 6.03673C27.5933 6.03673 27.5933 6.03673 27.5933 6.03673C27.5933 6.03673 27.5934 6.03673 27.5934 6.03673C27.5934 6.03673 27.5934 6.03673 27.5935 6.03673C27.5935 6.03673 27.5935 6.03673 27.5935 6.03673C27.5936 6.03673 27.5936 6.03673 27.5936 6.03673C27.5936 6.03673 27.5937 6.03673 27.5937 6.03673C27.5937 6.03673 27.5937 6.03673 27.5938 6.03673C27.5938 6.03673 27.5938 6.03673 27.5938 6.03673C27.5939 6.03673 27.5939 6.03673 27.5939 6.03673C27.5939 6.03673 27.594 6.03673 27.594 6.03673C27.594 6.03673 27.594 6.03673 27.5941 6.03673C27.5941 6.03673 27.5941 6.03673 27.5941 6.03673C27.5942 6.03673 27.5942 6.03673 27.5942 6.03673C27.5942 6.03673 27.5943 6.03673 27.5943 6.03673C27.5943 6.03673 27.5943 6.03673 27.5944 6.03673C27.5944 6.03673 27.5944 6.03673 27.5944 6.03673C27.5945 6.03673 27.5945 6.03673 27.5945 6.03673C27.5945 6.03673 27.5945 6.03673 27.5946 6.03673C27.5946 6.03673 27.5946 6.03673 27.5946 6.03673C27.5947 6.03673 27.5947 6.03673 27.5947 6.03673C27.5947 6.03673 27.5948 6.03673 27.5948 6.03673C27.5948 6.03673 27.5948 6.03673 27.5949 6.03673C27.5949 6.03673 27.5949 6.03673 27.5949 6.03673C27.595 6.03673 27.595 6.03673 27.595 6.03673C27.595 6.03673 27.5951 6.03673 27.5951 6.03673C27.5951 6.03673 27.5951 6.03673 27.5952 6.03673C27.5952 6.03673 27.5952 6.03673 27.5952 6.03673C27.5953 6.03673 27.5953 6.03673 27.5953 6.03673C27.5953 6.03673 27.5954 6.03673 27.5954 6.03673C27.5954 6.03673 27.5954 6.03673 27.5955 6.03673C27.5955 6.03673 27.5955 6.03673 27.5955 6.03673C27.5955 6.03673 27.5956 6.03673 27.5956 6.03673C27.5956 6.03673 27.5956 6.03673 27.5957 6.03673C27.5957 6.03673 27.5957 6.03673 27.5957 6.03673C27.5958 6.03673 27.5958 6.03673 27.5958 6.03673C27.5958 6.03673 27.5959 6.03673 27.5959 6.03673C27.5959 6.03673 27.5959 6.03673 27.596 6.03673C27.596 6.03673 27.596 6.03673 27.596 6.03673C27.5961 6.03673 27.5961 6.03673 27.5961 6.03673C27.5961 6.03673 27.5962 6.03673 27.5962 6.03673C27.5962 6.03673 27.5962 6.03673 27.5962 6.03673C27.5963 6.03673 27.5963 6.03673 27.5963 6.03673C27.5963 6.03673 27.5964 6.03673 27.5964 6.03673C27.5964 6.03673 27.5964 6.03673 27.5965 6.03673C27.5965 6.03673 27.5965 6.03673 27.5965 6.03673C27.5966 6.03673 27.5966 6.03673 27.5966 6.03673C27.5966 6.03673 27.5967 6.03673 27.5967 6.03673C27.5967 6.03673 27.5967 6.03673 27.5967 6.03673C27.5968 6.03673 27.5968 6.03673 27.5968 6.03673C27.5968 6.03673 27.5969 6.03673 27.5969 6.03673C27.5969 6.03673 27.5969 6.03673 27.597 6.03673C27.597 6.03673 27.597 6.03673 27.597 6.03673C27.5971 6.03673 27.5971 6.03673 27.5971 6.03673C27.5971 6.03673 27.5971 6.03673 27.5972 6.03673C27.5972 6.03673 27.5972 6.03673 27.5972 6.03673C27.5973 6.03673 27.5973 6.03673 27.5973 6.03673C27.5973 6.03673 27.5974 6.03673 27.5974 6.03673C27.5974 6.03673 27.5974 6.03673 27.5975 6.03673C27.5975 6.03673 27.5975 6.03673 27.5975 6.03673C27.5975 6.03673 27.5976 6.03673 27.5976 6.03673C27.5976 6.03673 27.5976 6.03673 27.5977 6.03673C27.5977 6.03673 27.5977 6.03673 27.5977 6.03673C27.5978 6.03673 27.5978 6.03673 27.5978 6.03673C27.5978 6.03673 27.5978 6.03673 27.5979 6.03673C27.5979 6.03673 27.5979 6.03673 27.5979 6.03673C27.598 6.03673 27.598 6.03673 27.598 6.03673C27.598 6.03673 27.5981 6.03673 27.5981 6.03673C27.5981 6.03673 27.5981 6.03673 27.5981 6.03673C27.5982 6.03673 27.5982 6.03673 27.5982 6.03673C27.5982 6.03673 27.5983 6.03673 27.5983 6.03673C27.5983 6.03673 27.5983 6.03673 27.5984 6.03673C27.5984 6.03673 27.5984 6.03673 27.5984 6.03673C27.5984 6.03673 27.5985 6.03673 27.5985 6.03673C27.5985 6.03673 27.5985 6.03673 27.5986 6.03673C27.5986 6.03673 27.5986 6.03673 27.5986 6.03673C27.5987 6.03673 27.5987 6.03673 27.5987 6.03673C27.5987 6.03673 27.5987 6.03673 27.5988 6.03673C27.5988 6.03673 27.5988 6.03673 27.5988 6.03673C27.5989 6.03673 27.5989 6.03673 27.5989 6.03673C27.5989 6.03673 27.599 6.03673 27.599 6.03673C27.599 6.03673 27.599 6.03673 27.599 6.03673C27.5991 6.03673 27.5991 6.03673 27.5991 6.03673C27.5991 6.03673 27.5992 6.03673 27.5992 6.03673C27.5992 6.03673 27.5992 6.03673 27.5992 6.03673C27.5993 6.03673 27.5993 6.03673 27.5993 6.03673C27.5993 6.03673 27.5994 6.03673 27.5994 6.03673C27.5994 6.03673 27.5994 6.03673 27.5995 6.03673C27.5995 6.03673 27.5995 6.03673 27.5995 6.03673C27.5995 6.03673 27.5996 6.03673 27.5996 6.03673C27.5996 6.03673 27.5996 6.03673 27.5997 6.03673C27.5997 6.03673 27.5997 6.03673 27.5997 6.03673C27.5997 6.03673 27.5998 6.03673 27.5998 6.03673C27.5998 6.03673 27.5998 6.03673 27.5999 6.03673C27.5999 6.03673 27.5999 6.03673 27.5999 6.03673C27.5999 6.03673 27.6 6.03673 27.6 6.03673C27.6 6.03673 27.6 6.03673 27.6001 6.03673C27.6001 6.03673 27.6001 6.03673 27.6001 6.03673C27.6001 6.03673 27.6002 6.03673 27.6002 6.03673C27.6002 6.03673 27.6002 6.03673 27.6003 6.03673C27.6003 6.03673 27.6003 6.03673 27.6003 6.03673C27.6003 6.03673 27.6004 6.03673 27.6004 6.03673C27.6004 6.03673 27.6004 6.03673 27.6005 6.03673C27.6005 6.03673 27.6005 6.03673 27.6005 6.03673C27.6005 6.03673 27.6006 6.03673 27.6006 6.03673C27.6006 6.03673 27.6006 6.03673 27.6007 6.03673C27.6007 6.03673 27.6007 6.03673 27.6007 6.03673C27.6007 6.03673 27.6008 6.03673 27.6008 6.03673C27.6008 6.03673 27.6008 6.03673 27.6009 6.03673C27.6009 6.03673 27.6009 6.03673 27.6009 6.03673C27.6009 6.03673 27.601 6.03673 27.601 6.03673C27.601 6.03673 27.601 6.03673 27.601 6.03673C27.6011 6.03673 27.6011 6.03673 27.6011 6.03673C27.6011 6.03673 27.6012 6.03673 27.6012 6.03673C27.6012 6.03673 27.6012 6.03673 27.6012 6.03673C27.6013 6.03673 27.6013 6.03673 27.6013 6.03673C27.6013 6.03673 27.6014 6.03673 27.6014 6.03673C27.6014 6.03673 27.6014 6.03673 27.6014 6.03673C27.6015 6.03673 27.6015 6.03673 27.6015 6.03673C27.6015 6.03673 27.6015 6.03673 27.6016 6.03673C27.6016 6.03673 27.6016 6.03673 27.6016 6.03673C27.6017 6.03673 27.6017 6.03673 27.6017 6.03673C27.6017 6.03673 27.6017 6.03673 27.6018 6.03673C27.6018 6.03673 27.6018 6.03673 27.6018 6.03673C27.6018 6.03673 27.6019 6.03673 27.6019 6.03673C27.6019 6.03673 27.6019 6.03673 27.602 6.03673C27.602 6.03673 27.602 6.03673 27.602 6.03673C27.602 6.03673 27.6021 6.03673 27.6021 6.03673C27.6021 6.03673 27.6021 6.03673 27.6021 6.03673C27.6022 6.03673 27.6022 6.03673 27.6022 6.03673C27.6022 6.03673 27.6023 6.03673 27.6023 6.03673C27.6023 6.03673 27.6023 6.03673 27.6023 6.03673C27.6024 6.03673 27.6024 6.03673 27.6024 6.03673C27.6024 6.03673 27.6024 6.03673 27.6025 6.03673C27.6025 6.03673 27.6025 6.03673 27.6025 6.03673C27.6025 6.03673 27.6026 6.03673 27.6026 6.03673C27.6026 6.03673 27.6026 6.03673 27.6027 6.03673C27.6027 6.03673 27.6027 6.03673 27.6027 6.03673C27.6027 6.03673 27.6028 6.03673 27.6028 6.03673C27.6028 6.03673 27.6028 6.03673 27.6028 6.03673C27.6029 6.03673 27.6029 6.03673 27.6029 6.03673C27.6029 6.03673 27.6029 6.03673 27.603 6.03673C27.603 6.03673 27.603 6.03673 27.603 6.03673C27.6031 6.03673 27.6031 6.03673 27.6031 6.03673C27.6031 6.03673 27.6031 6.03673 27.6032 6.03673C27.6032 6.03673 27.6032 6.03673 27.6032 6.03673C27.6032 6.03673 27.6033 6.03673 27.6033 6.03673C27.6033 6.03673 27.6033 6.03673 27.6033 6.03673C27.6034 6.03673 27.6034 6.03673 27.6034 6.03673C27.6034 6.03673 27.6034 6.03673 27.6035 6.03673C27.6035 6.03673 27.6035 6.03673 27.6035 6.03673C27.6036 6.03673 27.6036 6.03673 27.6036 6.03673C27.6036 6.03673 27.6036 6.03673 27.6037 6.03673C27.6037 6.03673 27.6037 6.03673 27.6037 6.03673C27.6037 6.03673 27.6038 6.03673 27.6038 6.03673C27.6038 6.03673 27.6038 6.03673 27.6038 6.03673C27.6039 6.03673 27.6039 6.03673 27.6039 6.03673C27.6039 6.03673 27.6039 6.03673 27.604 6.03673C27.604 6.03673 27.604 6.03673 27.604 6.03673C27.604 6.03673 27.6041 6.03673 27.6041 6.03673C27.6041 6.03673 27.6041 6.03673 27.6041 6.03673C27.6042 6.03673 27.6042 6.03673 27.6042 6.03673C27.6042 6.03673 27.6042 6.03673 27.6043 6.03673C27.6043 6.03673 27.6043 6.03673 27.6043 6.03673C27.6043 6.03673 27.6044 6.03673 27.6044 6.03673C27.6044 6.03673 27.6044 6.03673 27.6045 6.03673C27.6045 6.03673 27.6045 6.03673 27.6045 6.03673C27.6045 6.03673 27.6046 6.03673 27.6046 6.03673C27.6046 6.03673 27.6046 6.03673 27.6046 6.03673C27.6047 6.03673 27.6047 6.03673 27.6047 6.03673C27.6047 6.03673 27.6047 6.03673 27.6048 6.03673C27.6048 6.03673 27.6048 6.03673 27.6048 6.03673C27.6048 6.03673 27.6049 6.03673 27.6049 6.03673C27.6049 6.03673 27.6049 6.03673 27.6049 6.03673C27.605 6.03673 27.605 6.03673 27.605 6.03673C27.605 6.03673 27.605 6.03673 27.6051 6.03673C27.6051 6.03673 27.6051 6.03673 27.6051 6.03673C27.6051 6.03673 27.6052 6.03673 27.6052 6.03673C27.6052 6.03673 27.6052 6.03673 27.6052 6.03673C27.6053 6.03673 27.6053 6.03673 27.6053 6.03673C27.6053 6.03673 27.6053 6.03673 27.6053 6.03673C27.6054 6.03673 27.6054 6.03673 27.6054 6.03673C27.6054 6.03673 27.6054 6.03673 27.6055 6.03673C27.6055 6.03673 27.6055 6.03673 27.6055 6.03673C27.6055 6.03673 27.6056 6.03673 27.6056 6.03673C27.6056 6.03673 27.6056 6.03673 27.6056 6.03673C27.6057 6.03673 27.6057 6.03673 27.6057 6.03673C27.6057 6.03673 27.6057 6.03673 27.6058 6.03673C27.6058 6.03673 27.6058 6.03673 27.6058 6.03673C27.6058 6.03673 27.6059 6.03673 27.6059 6.03673C27.6059 6.03673 27.6059 6.03673 27.6059 6.03673C27.606 6.03673 27.606 6.03673 27.606 6.03673C27.606 6.03673 27.606 6.03673 27.6061 6.03673C27.6061 6.03673 27.6061 6.03673 27.6061 6.03673C27.6061 6.03673 27.6062 6.03673 27.6062 6.03673C27.6062 6.03673 27.6062 6.03673 27.6062 6.03673C27.6062 6.03673 27.6063 6.03673 27.6063 6.03673C27.6063 6.03673 27.6063 6.03673 27.6063 6.03673C27.6064 6.03673 27.6064 6.03673 27.6064 6.03673C27.6064 6.03673 27.6064 6.03673 27.6065 6.03673C27.6065 6.03673 27.6065 6.03673 27.6065 6.03673C27.6065 6.03673 27.6066 6.03673 27.6066 6.03673C27.6066 6.03673 27.6066 6.03673 27.6066 6.03673C27.6067 6.03673 27.6067 6.03673 27.6067 6.03673C27.6067 6.03673 27.6067 6.03673 27.6067 6.03673C27.6068 6.03673 27.6068 6.03673 27.6068 6.03673C27.6068 6.03673 27.6068 6.03673 27.6069 6.03673C27.6069 6.03673 27.6069 6.03673 27.6069 6.03673C27.6069 6.03673 27.607 6.03673 27.607 6.03673C27.607 6.03673 27.607 6.03673 27.607 6.03673C27.6071 6.03673 27.6071 6.03673 27.6071 6.03673C27.6071 6.03673 27.6071 6.03673 27.6071 6.03673C27.6072 6.03673 27.6072 6.03673 27.6072 6.03673C27.6072 6.03673 27.6072 6.03673 27.6073 6.03673C27.6073 6.03673 27.6073 6.03673 27.6073 6.03673C27.6073 6.03673 27.6074 6.03673 27.6074 6.03673C27.6074 6.03673 27.6074 6.03673 27.6074 6.03673C27.6074 6.03673 27.6075 6.03673 27.6075 6.03673C27.6075 6.03673 27.6075 6.03673 27.6075 6.03673C27.6076 6.03673 27.6076 6.03673 27.6076 6.03673C27.6076 6.03673 27.6076 6.03673 27.6076 6.03673C27.6077 6.03673 27.6077 6.03673 27.6077 6.03673C27.6077 6.03673 27.6077 6.03673 27.6078 6.03673C27.6078 6.03673 27.6078 6.03673 27.6078 6.03673C27.6078 6.03673 27.6079 6.03673 27.6079 6.03673C27.6079 6.03673 27.6079 6.03673 27.6079 6.03673C27.6079 6.03673 27.608 6.03673 27.608 6.03673C27.608 6.03673 27.608 6.03673 27.608 6.03673C27.6081 6.03673 27.6081 6.03673 27.6081 6.03673C27.6081 6.03673 27.6081 6.03673 27.6081 6.03673C27.6082 6.03673 27.6082 6.03673 27.6082 6.03673C27.6082 6.03673 27.6082 6.03673 27.6083 6.03673C27.6083 6.03673 27.6083 6.03673 27.6083 6.03673C27.6083 6.03673 27.6083 6.03673 27.6084 6.03673C27.6084 6.03673 27.6084 6.03673 27.6084 6.03673C27.6084 6.03673 27.6085 6.03673 27.6085 6.03673C27.6085 6.03673 27.6085 6.03673 27.6085 6.03673C27.6085 6.03673 27.6086 6.03673 27.6086 6.03673C27.6086 6.03673 27.6086 6.03673 27.6086 6.03673C27.6087 6.03673 27.6087 6.03673 27.6087 6.03673C27.6087 6.03673 27.6087 6.03673 27.6087 6.03673C27.6088 6.03673 27.6088 6.03673 27.6088 6.03673C27.6088 6.03673 27.6088 6.03673 27.6089 6.03673C27.6089 6.03673 27.6089 6.03673 27.6089 6.03673C27.6089 6.03673 27.6089 6.03673 27.609 6.03673C27.609 6.03673 27.609 6.03673 27.609 6.03673C27.609 6.03673 27.609 6.03673 27.6091 6.03673C27.6091 6.03673 27.6091 6.03673 27.6091 6.03673C27.6091 6.03673 27.6092 6.03673 27.6092 6.03673C27.6092 6.03673 27.6092 6.03673 27.6092 6.03673C27.6092 6.03673 27.6093 6.03673 27.6093 6.03673C27.6093 6.03673 27.6093 6.03673 27.6093 6.03673C27.6094 6.03673 27.6094 6.03673 27.6094 6.03673C27.6094 6.03673 27.6094 6.03673 27.6094 6.03673C27.6095 6.03673 27.6095 6.03673 27.6095 6.03673C27.6095 6.03673 27.6095 6.03673 27.6095 6.03673C27.6096 6.03673 27.6096 6.03673 27.6096 6.03673C27.6096 6.03673 27.6096 6.03673 27.6096 6.03673C27.6097 6.03673 27.6097 6.03673 27.6097 6.03673C27.6097 6.03673 27.6097 6.03673 27.6098 6.03673C27.6098 6.03673 27.6098 6.03673 27.6098 6.03673C27.6098 6.03673 27.6098 6.03673 27.6099 6.03673C27.6099 6.03673 27.6099 6.03673 27.6099 6.03673C27.6099 6.03673 27.6099 6.03673 27.61 6.03673C27.61 6.03673 27.61 6.03673 27.61 6.03673C27.61 6.03673 27.61 6.03673 27.6101 6.03673C27.6101 6.03673 27.6101 6.03673 27.6101 6.03673C27.6101 6.03673 27.6102 6.03673 27.6102 6.03673C27.6102 6.03673 27.6102 6.03673 27.6102 6.03673C27.6102 6.03673 27.6103 6.03673 27.6103 6.03673C27.6103 6.03673 27.6103 6.03673 27.6103 6.03673C27.6103 6.03673 27.6104 6.03673 27.6104 6.03673C27.6104 6.03673 27.6104 6.03673 27.6104 6.03673C27.6104 6.03673 27.6105 6.03673 27.6105 6.03673C27.6105 6.03673 27.6105 6.03673 27.6105 6.03673C27.6105 6.03673 27.6106 6.03673 27.6106 6.03673C27.6106 6.03673 27.6106 6.03673 27.6106 6.03673C27.6106 6.03673 27.6107 6.03673 27.6107 6.03673C27.6107 6.03673 27.6107 6.03673 27.6107 6.03673C27.6107 6.03673 27.6108 6.03673 27.6108 6.03673C27.6108 6.03673 27.6108 6.03673 27.6108 6.03673C27.6108 6.03673 27.6109 6.03673 27.6109 6.03673C27.6109 6.03673 27.6109 6.03673 27.6109 6.03673C27.6109 6.03673 27.611 6.03673 27.611 6.03673C27.611 6.03673 27.611 6.03673 27.611 6.03673C27.611 6.03673 27.6111 6.03673 27.6111 6.03673C27.6111 6.03673 27.6111 6.03673 27.6111 6.03673C27.6111 6.03673 27.6112 6.03673 27.6112 6.03673C27.6112 6.03673 27.6112 6.03673 27.6112 6.03673C27.6112 6.03673 27.6113 6.03673 27.6113 6.03673C27.6113 6.03673 27.6113 6.03673 27.6113 6.03673C27.6113 6.03673 27.6114 6.03673 27.6114 6.03673C27.6114 6.03673 27.6114 6.03673 27.6114 6.03673C27.6114 6.03673 27.6115 6.03673 27.6115 6.03673C27.6115 6.03673 27.6115 6.03673 27.6115 6.03673C27.6115 6.03673 27.6116 6.03673 27.6116 6.03673C27.6116 6.03673 27.6116 6.03673 27.6116 6.03673C27.6116 6.03673 27.6117 6.03673 27.6117 6.03673C27.6117 6.03673 27.6117 6.03673 27.6117 6.03673C27.6117 6.03673 27.6118 6.03673 27.6118 6.03673C27.6118 6.03673 27.6118 6.03673 27.6118 6.03673C27.6118 6.03673 27.6119 6.03673 27.6119 6.03673C27.6119 6.03673 27.6119 6.03673 27.6119 6.03673C27.6119 6.03673 27.6119 6.03673 27.612 6.03673C27.612 6.03673 27.612 6.03673 27.612 6.03673C27.612 6.03673 27.612 6.03673 27.6121 6.03673C27.6121 6.03673 27.6121 6.03673 27.6121 6.03673C27.6121 6.03673 27.6121 6.03673 27.6122 6.03673C27.6122 6.03673 27.6122 6.03673 27.6122 6.03673C27.6122 6.03673 27.6122 6.03673 27.6123 6.03673C27.6123 6.03673 27.6123 6.03673 27.6123 6.03673C27.6123 6.03673 27.6123 6.03673 27.6123 6.03673C27.6124 6.03673 27.6124 6.03673 27.6124 6.03673C27.6124 6.03673 27.6124 6.03673 27.6124 6.03673C27.6125 6.03673 27.6125 6.03673 27.6125 6.03673C27.6125 6.03673 27.6125 6.03673 27.6125 6.03673C27.6126 6.03673 27.6126 6.03673 27.6126 6.03673C27.6126 6.03673 27.6126 6.03673 27.6126 6.03673C27.6126 6.03673 27.6127 6.03673 27.6127 6.03673C27.6127 6.03673 27.6127 6.03673 27.6127 6.03673C27.6127 6.03673 27.6128 6.03673 27.6128 6.03673C27.6128 6.03673 27.6128 6.03673 27.6128 6.03673C27.6128 6.03673 27.6129 6.03673 27.6129 6.03673C27.6129 6.03673 27.6129 6.03673 27.6129 6.03673C27.6129 6.03673 27.6129 6.03673 27.613 6.03673C27.613 6.03673 27.613 6.03673 27.613 6.03673C27.613 6.03673 27.613 6.03673 27.6131 6.03673C27.6131 6.03673 27.6131 6.03673 27.6131 6.03673C27.6131 6.03673 27.6131 6.03673 27.6131 6.03673C27.6132 6.03673 27.6132 6.03673 27.6132 6.03673C27.6132 6.03673 27.6132 6.03673 27.6132 6.03673C27.6133 6.03673 27.6133 6.03673 27.6133 6.03673V5.76952ZM27.5895 5.77C27.406 5.75439 27.2719 5.74608 27.1914 5.74608V6.01329C27.2593 6.01329 27.3831 6.02062 27.5668 6.03625L27.5895 5.77ZM27.1914 5.74608C26.8598 5.74608 26.5888 5.80774 26.4083 5.95892L26.5799 6.16374C26.6886 6.07273 26.8824 6.01329 27.1914 6.01329V5.74608ZM26.4083 5.95892C26.2277 6.11028 26.124 6.35929 26.075 6.67357L26.339 6.71471C26.3838 6.42743 26.4715 6.25456 26.5799 6.16374L26.4083 5.95892ZM26.207 6.82775H27.1797V6.56053H26.207V6.82775ZM27.0486 6.66849L26.7849 8.01614L27.0471 8.06745L27.3108 6.7198L27.0486 6.66849ZM26.916 7.90819H25.9434V8.1754H26.916V7.90819ZM25.8122 8.01612L24.8162 13.1021L25.0784 13.1534L26.0745 8.06748L25.8122 8.01612ZM24.9473 12.9941H23.4707V13.2613H24.9473V12.9941ZM29.1543 11.4051L29.0581 11.4978L29.0587 11.4984L29.1543 11.4051ZM31.8203 11.2469L31.7223 11.156L31.7219 11.1565L31.8203 11.2469ZM31.9434 8.38164L31.8477 8.47496L31.8483 8.47553L31.9434 8.38164ZM27.5254 8.61602L27.6473 8.67064L27.6475 8.67028L27.5254 8.61602ZM28.4688 7.33281L28.5573 7.43283L28.5574 7.43274L28.4688 7.33281ZM29.5234 6.70586L29.5687 6.83157L29.5698 6.83116L29.5234 6.70586ZM33.0273 7.36211L32.9329 7.45658L32.9332 7.4569L33.0273 7.36211ZM33.6309 11.0594L33.5067 11.0099L33.5065 11.0105L33.6309 11.0594ZM32.8516 12.2781L32.9472 12.3715L32.9481 12.3705L32.8516 12.2781ZM31.7148 13.034L31.665 12.91L31.6646 12.9102L31.7148 13.034ZM28.0703 12.4246L27.9755 12.5188L27.9758 12.5191L28.0703 12.4246ZM30.6895 7.76171C30.0806 7.76171 29.5679 7.99312 29.16 8.45097L29.3595 8.62872C29.7172 8.22719 30.1576 8.02892 30.6895 8.02892V7.76171ZM29.16 8.45097C28.7525 8.90841 28.5519 9.48246 28.5519 10.1629H28.8192C28.8192 9.53864 29.0014 9.03065 29.3595 8.62872L29.16 8.45097ZM28.5519 10.1629C28.5519 10.6969 28.7187 11.1456 29.0581 11.4978L29.2505 11.3124C28.9649 11.0161 28.8192 10.6367 28.8192 10.1629H28.5519ZM29.0587 11.4984C29.4025 11.8507 29.8424 12.025 30.3672 12.025V11.7578C29.9076 11.7578 29.5389 11.6079 29.2499 11.3118L29.0587 11.4984ZM30.3672 12.025C30.9795 12.025 31.4993 11.794 31.9187 11.3372L31.7219 11.1565C31.3522 11.5591 30.9033 11.7578 30.3672 11.7578V12.025ZM31.9183 11.3377C32.3414 10.8814 32.5516 10.3189 32.5516 9.65899H32.2844C32.2844 10.2569 32.0961 10.753 31.7223 11.156L31.9183 11.3377ZM32.5516 9.65899C32.5516 9.09938 32.3839 8.63752 32.0384 8.28775L31.8483 8.47553C32.1356 8.76639 32.2844 9.15609 32.2844 9.65899H32.5516ZM32.039 8.28833C31.6937 7.93449 31.2392 7.76171 30.6895 7.76171V8.02892C31.1787 8.02892 31.5602 8.18035 31.8477 8.47496L32.039 8.28833ZM27.3309 10.1863C27.3309 9.64572 27.4366 9.14098 27.6473 8.67064L27.4035 8.56139C27.1767 9.06761 27.0637 9.60976 27.0637 10.1863H27.3309ZM27.6475 8.67028C27.8583 8.19587 28.1612 7.78366 28.5573 7.43283L28.3802 7.2328C27.9559 7.60853 27.63 8.05178 27.4033 8.56175L27.6475 8.67028ZM28.5574 7.43274C28.8573 7.1666 29.1942 6.9664 29.5687 6.83157L29.4782 6.58015C29.0715 6.72657 28.7052 6.94434 28.3801 7.23289L28.5574 7.43274ZM29.5698 6.83116C29.9445 6.69254 30.3486 6.62267 30.7832 6.62267V6.35546C30.3194 6.35546 29.8837 6.43012 29.4771 6.58056L29.5698 6.83116ZM30.7832 6.62267C31.6661 6.62267 32.3788 6.90249 32.9329 7.45658L33.1218 7.26764C32.5119 6.65767 31.7284 6.35546 30.7832 6.35546V6.62267ZM32.9332 7.4569C33.4912 8.01117 33.7726 8.72183 33.7726 9.60039H34.0399C34.0399 8.65864 33.7354 7.87711 33.1215 7.26732L32.9332 7.4569ZM33.7726 9.60039C33.7726 10.0957 33.6839 10.5652 33.5067 11.0099L33.755 11.1088C33.945 10.6317 34.0399 10.1285 34.0399 9.60039H33.7726ZM33.5065 11.0105C33.3332 11.4514 33.0829 11.8429 32.755 12.1858L32.9481 12.3705C33.3 12.0025 33.5692 11.5815 33.7552 11.1083L33.5065 11.0105ZM32.756 12.1848C32.449 12.4993 32.0858 12.741 31.665 12.91L31.7647 13.158C32.2189 12.9755 32.6135 12.7132 32.9472 12.3715L32.756 12.1848ZM31.6646 12.9102C31.2483 13.079 30.7948 13.1641 30.3027 13.1641V13.4313C30.8263 13.4313 31.3142 13.3406 31.765 13.1578L31.6646 12.9102ZM30.3027 13.1641C29.428 13.1641 28.7191 12.8845 28.1648 12.3301L27.9758 12.5191C28.5856 13.1288 29.365 13.4313 30.3027 13.4313V13.1641ZM28.1651 12.3305C27.6105 11.7721 27.3309 11.0611 27.3309 10.1863H27.0637C27.0637 11.1241 27.3661 11.9052 27.9755 12.5188L28.1651 12.3305ZM34.2109 13.1277L34.0798 13.1022L34.0489 13.2613H34.2109V13.1277ZM35.8691 4.59649V4.46288H35.759L35.738 4.57099L35.8691 4.59649ZM37.3691 4.59649L37.5003 4.62198L37.5312 4.46288H37.3691V4.59649ZM35.7109 13.1277V13.2613H35.8211L35.8421 13.1532L35.7109 13.1277ZM34.3421 13.1532L36.0003 4.62198L35.738 4.57099L34.0798 13.1022L34.3421 13.1532ZM35.8691 4.73009H37.3691V4.46288H35.8691V4.73009ZM37.238 4.57099L35.5798 13.1022L35.8421 13.1532L37.5003 4.62198L37.238 4.57099ZM35.7109 12.9941H34.2109V13.2613H35.7109V12.9941ZM37.0352 13.1277L36.904 13.1023L36.8732 13.2613H37.0352V13.1277ZM38.2832 6.68242V6.54882H38.173L38.152 6.65702L38.2832 6.68242ZM39.7715 6.68242L39.9027 6.70782L39.9334 6.54882H39.7715V6.68242ZM38.5234 13.1277V13.2613H38.6337L38.6546 13.1531L38.5234 13.1277ZM38.418 5.99688L38.2869 5.9711L38.2555 6.13048H38.418V5.99688ZM38.6934 4.59649V4.46288H38.5835L38.5623 4.5707L38.6934 4.59649ZM40.1816 4.59649L40.3127 4.62227L40.3441 4.46288H40.1816V4.59649ZM39.9062 5.99688V6.13048H40.0161L40.0373 6.02266L39.9062 5.99688ZM37.1663 13.1531L38.4144 6.70782L38.152 6.65702L36.904 13.1023L37.1663 13.1531ZM38.2832 6.81603H39.7715V6.54882H38.2832V6.81603ZM39.6403 6.65702L38.3923 13.1023L38.6546 13.1531L39.9027 6.70782L39.6403 6.65702ZM38.5234 12.9941H37.0352V13.2613H38.5234V12.9941ZM38.5491 6.02266L38.8245 4.62227L38.5623 4.5707L38.2869 5.9711L38.5491 6.02266ZM38.6934 4.73009H40.1816V4.46288H38.6934V4.73009ZM40.0505 4.5707L39.7752 5.9711L40.0373 6.02266L40.3127 4.62227L40.0505 4.5707ZM39.9062 5.86327H38.418V6.13048H39.9062V5.86327ZM42.0566 11.4051L41.9604 11.4978L41.961 11.4984L42.0566 11.4051ZM44.7227 11.2469L44.6247 11.156L44.6242 11.1565L44.7227 11.2469ZM44.8457 8.38164L44.7501 8.47496L44.7507 8.47553L44.8457 8.38164ZM40.4277 8.61602L40.5497 8.67064L40.5498 8.67028L40.4277 8.61602ZM41.3711 7.33281L41.4597 7.43283L41.4598 7.43274L41.3711 7.33281ZM42.4258 6.70586L42.471 6.83157L42.4721 6.83116L42.4258 6.70586ZM45.9297 7.36211L45.8352 7.45658L45.8355 7.4569L45.9297 7.36211ZM46.5332 11.0594L46.4091 11.0099L46.4089 11.0105L46.5332 11.0594ZM45.7539 12.2781L45.8495 12.3715L45.8505 12.3705L45.7539 12.2781ZM44.6172 13.034L44.5674 12.91L44.567 12.9102L44.6172 13.034ZM40.9727 12.4246L40.8779 12.5188L40.8782 12.5191L40.9727 12.4246ZM43.5918 7.76171C42.983 7.76171 42.4703 7.99312 42.0624 8.45097L42.2619 8.62872C42.6196 8.22719 43.06 8.02892 43.5918 8.02892V7.76171ZM42.0624 8.45097C41.6548 8.90841 41.4543 9.48246 41.4543 10.1629H41.7215C41.7215 9.53864 41.9038 9.03065 42.2619 8.62872L42.0624 8.45097ZM41.4543 10.1629C41.4543 10.6969 41.621 11.1456 41.9604 11.4978L42.1528 11.3124C41.8673 11.0161 41.7215 10.6367 41.7215 10.1629H41.4543ZM41.961 11.4984C42.3049 11.8507 42.7448 12.025 43.2695 12.025V11.7578C42.8099 11.7578 42.4412 11.6079 42.1523 11.3118L41.961 11.4984ZM43.2695 12.025C43.8818 12.025 44.4017 11.794 44.8211 11.3372L44.6242 11.1565C44.2546 11.5591 43.8057 11.7578 43.2695 11.7578V12.025ZM44.8206 11.3377C45.2437 10.8814 45.4539 10.3189 45.4539 9.65899H45.1867C45.1867 10.2569 44.9984 10.753 44.6247 11.156L44.8206 11.3377ZM45.4539 9.65899C45.4539 9.09938 45.2863 8.63752 44.9408 8.28775L44.7507 8.47553C45.038 8.76639 45.1867 9.15609 45.1867 9.65899H45.4539ZM44.9413 8.28833C44.596 7.93449 44.1416 7.76171 43.5918 7.76171V8.02892C44.0811 8.02892 44.4626 8.18035 44.7501 8.47496L44.9413 8.28833ZM40.2332 10.1863C40.2332 9.64572 40.339 9.14098 40.5497 8.67064L40.3058 8.56139C40.079 9.06761 39.966 9.60976 39.966 10.1863H40.2332ZM40.5498 8.67028C40.7607 8.19587 41.0636 7.78366 41.4597 7.43283L41.2825 7.2328C40.8583 7.60853 40.5323 8.05178 40.3056 8.56175L40.5498 8.67028ZM41.4598 7.43274C41.7597 7.1666 42.0965 6.9664 42.471 6.83157L42.3805 6.58015C41.9738 6.72657 41.6075 6.94434 41.2824 7.23289L41.4598 7.43274ZM42.4721 6.83116C42.8468 6.69254 43.2509 6.62267 43.6855 6.62267V6.35546C43.2218 6.35546 42.786 6.43012 42.3794 6.58056L42.4721 6.83116ZM43.6855 6.62267C44.5685 6.62267 45.2811 6.90249 45.8352 7.45658L46.0242 7.26764C45.4142 6.65767 44.6308 6.35546 43.6855 6.35546V6.62267ZM45.8355 7.4569C46.3935 8.01117 46.675 8.72183 46.675 9.60039H46.9422C46.9422 8.65864 46.6377 7.87711 46.0238 7.26732L45.8355 7.4569ZM46.675 9.60039C46.675 10.0957 46.5862 10.5652 46.4091 11.0099L46.6573 11.1088C46.8474 10.6317 46.9422 10.1285 46.9422 9.60039H46.675ZM46.4089 11.0105C46.2355 11.4514 45.9852 11.8429 45.6573 12.1858L45.8505 12.3705C46.2023 12.0025 46.4715 11.5815 46.6575 11.1083L46.4089 11.0105ZM45.6583 12.1848C45.3513 12.4993 44.9881 12.741 44.5674 12.91L44.667 13.158C45.1212 12.9755 45.5159 12.7132 45.8495 12.3715L45.6583 12.1848ZM44.567 12.9102C44.1507 13.079 43.6972 13.1641 43.2051 13.1641V13.4313C43.7286 13.4313 44.2165 13.3406 44.6674 13.1578L44.567 12.9102ZM43.2051 13.1641C42.3303 13.1641 41.6215 12.8845 41.0671 12.3301L40.8782 12.5191C41.4879 13.1288 42.2673 13.4313 43.2051 13.4313V13.1641ZM41.0674 12.3305C40.5128 11.7721 40.2332 11.0611 40.2332 10.1863H39.966C39.966 11.1241 40.2684 11.9052 40.8779 12.5188L41.0674 12.3305Z" fill="#1B1B1B" mask="url(#path-1-outside-1_1_569)"/>
<path d="M52.273 3.66104H50.0554L50 14.3607H51.9958L56.1537 8.207V14.3607H58.1494L65.301 3.66104H66.3543L65.5782 1L61.1986 3.66104H62.5291L58.3158 9.75927V3.66104H56.3754L52.273 9.75927V3.66104Z" fill="#05AC4E" stroke="#05AC4E" stroke-width="0.110877"/>
<mask id="path-4-outside-2_1_569" maskUnits="userSpaceOnUse" x="62.7826" y="4.62775" width="26" height="10" fill="black">
<rect fill="white" x="62.7826" y="4.62775" width="26" height="10"/>
<path d="M67.7279 13.6277L67.8099 13.1824C67.5873 13.3895 67.3392 13.5438 67.0658 13.6453C66.7924 13.7469 66.4877 13.7977 66.1517 13.7977C65.2611 13.7977 64.5385 13.5067 63.9838 12.9246C63.4291 12.3387 63.1517 11.5731 63.1517 10.6277C63.1517 10.2293 63.2103 9.84845 63.3275 9.48517C63.4486 9.12189 63.6302 8.77032 63.8724 8.43048C64.1967 7.98126 64.5951 7.63751 65.0677 7.39923C65.5443 7.16095 66.0658 7.04181 66.6322 7.04181C67.0619 7.04181 67.4584 7.12384 67.8217 7.2879C68.1849 7.45197 68.5052 7.69415 68.7826 8.01447L68.9408 7.18243H70.476L69.1927 13.6277H67.7279ZM66.6967 8.39532C66.1381 8.39532 65.6556 8.61212 65.2494 9.04572C64.8431 9.4754 64.64 9.99493 64.64 10.6043C64.64 11.1395 64.7943 11.5711 65.1029 11.8992C65.4154 12.2274 65.8256 12.3914 66.3334 12.3914C66.8998 12.3914 67.3783 12.1766 67.7689 11.7469C68.1635 11.3133 68.3607 10.7801 68.3607 10.1473C68.3607 9.63556 68.2025 9.21564 67.8861 8.88751C67.5736 8.55939 67.1771 8.39532 66.6967 8.39532ZM70.9623 13.6277L71.9467 8.53009H71.0795L71.3431 7.18243H72.2103L72.6029 5.16681H74.1556L73.7689 7.18243H74.6947L74.4427 8.53009H73.5052L72.5092 13.6277H70.9623ZM81.2103 11.3719C80.9525 12.1375 80.5287 12.7332 79.9388 13.159C79.3529 13.5848 78.6576 13.7977 77.8529 13.7977C76.9349 13.7977 76.1849 13.5086 75.6029 12.9305C75.0209 12.3484 74.7299 11.6004 74.7299 10.6863C74.7299 10.1395 74.8373 9.62384 75.0521 9.13947C75.267 8.65118 75.5756 8.22736 75.9779 7.86798C76.2826 7.59454 76.6283 7.38751 77.015 7.24689C77.4017 7.10236 77.8158 7.03009 78.2572 7.03009C79.0619 7.03009 79.7396 7.24884 80.2904 7.68634C80.8451 8.11993 81.2006 8.71564 81.3568 9.47345H79.8275C79.6791 9.13361 79.4681 8.87579 79.1947 8.70001C78.9252 8.52032 78.6049 8.43048 78.2338 8.43048C77.6439 8.43048 77.1595 8.63947 76.7806 9.05743C76.4056 9.4715 76.2181 10.0067 76.2181 10.6629C76.2181 11.1746 76.3763 11.5906 76.6927 11.9109C77.0092 12.2313 77.4193 12.3914 77.9232 12.3914C78.2826 12.3914 78.6049 12.3055 78.89 12.1336C79.1752 11.9617 79.4174 11.7078 79.6166 11.3719H81.2103ZM81.5092 13.6277L83.1674 5.0965H84.6674L84.1635 7.63947C84.3939 7.45197 84.6342 7.31134 84.8842 7.21759C85.1381 7.12384 85.4056 7.07697 85.6869 7.07697C86.4408 7.07697 87.0131 7.2547 87.4037 7.61017C87.7943 7.96564 87.9896 8.48712 87.9896 9.17462C87.9896 9.30353 87.9701 9.50275 87.931 9.77228C87.8959 10.0379 87.8431 10.3465 87.7728 10.6981L87.2103 13.6277H85.6635L86.3197 10.2234C86.347 10.0906 86.3685 9.95782 86.3842 9.82501C86.3998 9.6922 86.4076 9.56329 86.4076 9.43829C86.4076 9.09845 86.3217 8.84064 86.1498 8.66486C85.9779 8.48517 85.7279 8.39532 85.3998 8.39532C84.9271 8.39532 84.5482 8.55548 84.2631 8.87579C83.9779 9.19611 83.7689 9.70001 83.6361 10.3875L83.0092 13.6277H81.5092Z"/>
</mask>
<path d="M67.7279 13.6277L67.8099 13.1824C67.5873 13.3895 67.3392 13.5438 67.0658 13.6453C66.7924 13.7469 66.4877 13.7977 66.1517 13.7977C65.2611 13.7977 64.5385 13.5067 63.9838 12.9246C63.4291 12.3387 63.1517 11.5731 63.1517 10.6277C63.1517 10.2293 63.2103 9.84845 63.3275 9.48517C63.4486 9.12189 63.6302 8.77032 63.8724 8.43048C64.1967 7.98126 64.5951 7.63751 65.0677 7.39923C65.5443 7.16095 66.0658 7.04181 66.6322 7.04181C67.0619 7.04181 67.4584 7.12384 67.8217 7.2879C68.1849 7.45197 68.5052 7.69415 68.7826 8.01447L68.9408 7.18243H70.476L69.1927 13.6277H67.7279ZM66.6967 8.39532C66.1381 8.39532 65.6556 8.61212 65.2494 9.04572C64.8431 9.4754 64.64 9.99493 64.64 10.6043C64.64 11.1395 64.7943 11.5711 65.1029 11.8992C65.4154 12.2274 65.8256 12.3914 66.3334 12.3914C66.8998 12.3914 67.3783 12.1766 67.7689 11.7469C68.1635 11.3133 68.3607 10.7801 68.3607 10.1473C68.3607 9.63556 68.2025 9.21564 67.8861 8.88751C67.5736 8.55939 67.1771 8.39532 66.6967 8.39532ZM70.9623 13.6277L71.9467 8.53009H71.0795L71.3431 7.18243H72.2103L72.6029 5.16681H74.1556L73.7689 7.18243H74.6947L74.4427 8.53009H73.5052L72.5092 13.6277H70.9623ZM81.2103 11.3719C80.9525 12.1375 80.5287 12.7332 79.9388 13.159C79.3529 13.5848 78.6576 13.7977 77.8529 13.7977C76.9349 13.7977 76.1849 13.5086 75.6029 12.9305C75.0209 12.3484 74.7299 11.6004 74.7299 10.6863C74.7299 10.1395 74.8373 9.62384 75.0521 9.13947C75.267 8.65118 75.5756 8.22736 75.9779 7.86798C76.2826 7.59454 76.6283 7.38751 77.015 7.24689C77.4017 7.10236 77.8158 7.03009 78.2572 7.03009C79.0619 7.03009 79.7396 7.24884 80.2904 7.68634C80.8451 8.11993 81.2006 8.71564 81.3568 9.47345H79.8275C79.6791 9.13361 79.4681 8.87579 79.1947 8.70001C78.9252 8.52032 78.6049 8.43048 78.2338 8.43048C77.6439 8.43048 77.1595 8.63947 76.7806 9.05743C76.4056 9.4715 76.2181 10.0067 76.2181 10.6629C76.2181 11.1746 76.3763 11.5906 76.6927 11.9109C77.0092 12.2313 77.4193 12.3914 77.9232 12.3914C78.2826 12.3914 78.6049 12.3055 78.89 12.1336C79.1752 11.9617 79.4174 11.7078 79.6166 11.3719H81.2103ZM81.5092 13.6277L83.1674 5.0965H84.6674L84.1635 7.63947C84.3939 7.45197 84.6342 7.31134 84.8842 7.21759C85.1381 7.12384 85.4056 7.07697 85.6869 7.07697C86.4408 7.07697 87.0131 7.2547 87.4037 7.61017C87.7943 7.96564 87.9896 8.48712 87.9896 9.17462C87.9896 9.30353 87.9701 9.50275 87.931 9.77228C87.8959 10.0379 87.8431 10.3465 87.7728 10.6981L87.2103 13.6277H85.6635L86.3197 10.2234C86.347 10.0906 86.3685 9.95782 86.3842 9.82501C86.3998 9.6922 86.4076 9.56329 86.4076 9.43829C86.4076 9.09845 86.3217 8.84064 86.1498 8.66486C85.9779 8.48517 85.7279 8.39532 85.3998 8.39532C84.9271 8.39532 84.5482 8.55548 84.2631 8.87579C83.9779 9.19611 83.7689 9.70001 83.6361 10.3875L83.0092 13.6277H81.5092Z" fill="#05AC4E"/>
<path d="M67.7279 13.6277L67.5965 13.6035L67.5674 13.7614H67.7279V13.6277ZM67.8099 13.1824L67.9413 13.2066L68.0144 12.8099L67.719 13.0846L67.8099 13.1824ZM63.9838 12.9246L63.8867 13.0165L63.887 13.0168L63.9838 12.9246ZM63.3275 9.48517L63.2008 9.44292L63.2004 9.44415L63.3275 9.48517ZM63.8724 8.43048L63.7641 8.35229L63.7636 8.35294L63.8724 8.43048ZM65.0677 7.39923L65.008 7.27973L65.0076 7.27993L65.0677 7.39923ZM68.7826 8.01447L68.6816 8.10192L68.8623 8.31061L68.9138 8.03942L68.7826 8.01447ZM68.9408 7.18243V7.04883H68.8302L68.8095 7.15748L68.9408 7.18243ZM70.476 7.18243L70.607 7.20852L70.6388 7.04883H70.476V7.18243ZM69.1927 13.6277V13.7614H69.3024L69.3238 13.6538L69.1927 13.6277ZM65.2494 9.04572L65.3465 9.13751L65.3469 9.13707L65.2494 9.04572ZM65.1029 11.8992L65.0056 11.9908L65.0062 11.9914L65.1029 11.8992ZM67.7689 11.7469L67.6701 11.657L67.6701 11.657L67.7689 11.7469ZM67.8861 8.88751L67.7894 8.97966L67.7899 8.98025L67.8861 8.88751ZM67.8593 13.652L67.9413 13.2066L67.6785 13.1582L67.5965 13.6035L67.8593 13.652ZM67.719 13.0846C67.5086 13.2802 67.2755 13.4249 67.0193 13.5201L67.1123 13.7706C67.4029 13.6626 67.6659 13.4988 67.9009 13.2803L67.719 13.0846ZM67.0193 13.5201C66.7628 13.6153 66.4742 13.6641 66.1517 13.6641V13.9313C66.5012 13.9313 66.8219 13.8784 67.1123 13.7706L67.0193 13.5201ZM66.1517 13.6641C65.2933 13.6641 64.6071 13.385 64.0805 12.8324L63.887 13.0168C64.4698 13.6283 65.2289 13.9313 66.1517 13.9313V13.6641ZM64.0808 12.8328C63.5536 12.2759 63.2853 11.5452 63.2853 10.6277H63.0181C63.0181 11.601 63.3046 12.4015 63.8867 13.0165L64.0808 12.8328ZM63.2853 10.6277C63.2853 10.2426 63.3419 9.87564 63.4547 9.52619L63.2004 9.44415C63.0787 9.82126 63.0181 10.216 63.0181 10.6277H63.2853ZM63.4543 9.52742C63.5708 9.1778 63.7461 8.83802 63.9812 8.50802L63.7636 8.35294C63.5144 8.70263 63.3264 9.06597 63.2008 9.44292L63.4543 9.52742ZM63.9808 8.50867C64.2931 8.07599 64.6753 7.74672 65.1279 7.51853L65.0076 7.27993C64.5149 7.52831 64.1003 7.88654 63.7641 8.35229L63.9808 8.50867ZM65.1275 7.51873C65.5843 7.29031 66.0852 7.17542 66.6322 7.17542V6.9082C66.0464 6.9082 65.5043 7.03159 65.008 7.27973L65.1275 7.51873ZM66.6322 7.17542C67.0444 7.17542 67.422 7.254 67.7667 7.40967L67.8766 7.16614C67.4948 6.99368 67.0794 6.9082 66.6322 6.9082V7.17542ZM67.7667 7.40967C68.1112 7.56527 68.4161 7.7953 68.6816 8.10192L68.8836 7.92701C68.5944 7.593 68.2587 7.33866 67.8766 7.16614L67.7667 7.40967ZM68.9138 8.03942L69.0721 7.20739L68.8095 7.15748L68.6513 7.98951L68.9138 8.03942ZM68.9408 7.31604H70.476V7.04883H68.9408V7.31604ZM70.3449 7.15635L69.0617 13.6017L69.3238 13.6538L70.607 7.20852L70.3449 7.15635ZM69.1927 13.4941H67.7279V13.7614H69.1927V13.4941ZM66.6967 8.26172C66.0986 8.26172 65.5816 8.49574 65.1519 8.95437L65.3469 9.13707C65.7297 8.72851 66.1776 8.52893 66.6967 8.52893V8.26172ZM65.1523 8.95393C64.7218 9.40925 64.5064 9.96195 64.5064 10.6043H64.7736C64.7736 10.0279 64.9645 9.54156 65.3465 9.1375L65.1523 8.95393ZM64.5064 10.6043C64.5064 11.1667 64.6694 11.6333 65.0056 11.9908L65.2002 11.8077C64.9192 11.5089 64.7736 11.1123 64.7736 10.6043H64.5064ZM65.0062 11.9914C65.347 12.3493 65.7939 12.525 66.3334 12.525V12.2578C65.8573 12.2578 65.4838 12.1054 65.1997 11.8071L65.0062 11.9914ZM66.3334 12.525C66.9385 12.525 67.4526 12.2935 67.8678 11.8368L67.6701 11.657C67.304 12.0596 66.8611 12.2578 66.3334 12.2578V12.525ZM67.8677 11.8368C68.2865 11.3766 68.4943 10.8105 68.4943 10.1473H68.2271C68.2271 10.7497 68.0404 11.25 67.6701 11.657L67.8677 11.8368ZM68.4943 10.1473C68.4943 9.60557 68.3257 9.15093 67.9823 8.79477L67.7899 8.98025C68.0793 9.28035 68.2271 9.66555 68.2271 10.1473H68.4943ZM67.9829 8.79537C67.6435 8.43903 67.2112 8.26172 66.6967 8.26172V8.52893C67.143 8.52893 67.5037 8.67974 67.7894 8.97965L67.9829 8.79537ZM70.9623 13.6277L70.8311 13.6024L70.8004 13.7614H70.9623V13.6277ZM71.9467 8.53009L72.0778 8.55542L72.1085 8.39648H71.9467V8.53009ZM71.0795 8.53009L70.9483 8.50444L70.9172 8.6637H71.0795V8.53009ZM71.3431 7.18243V7.04883H71.2331L71.212 7.15678L71.3431 7.18243ZM72.2103 7.18243V7.31604H72.3204L72.3415 7.20798L72.2103 7.18243ZM72.6029 5.16681V5.0332H72.4928L72.4718 5.14127L72.6029 5.16681ZM74.1556 5.16681L74.2869 5.19198L74.3173 5.0332H74.1556V5.16681ZM73.7689 7.18243L73.6377 7.15726L73.6072 7.31604H73.7689V7.18243ZM74.6947 7.18243L74.826 7.20699L74.8556 7.04883H74.6947V7.18243ZM74.4427 8.53009V8.6637H74.5537L74.5741 8.55464L74.4427 8.53009ZM73.5052 8.53009V8.39648H73.3952L73.3741 8.50447L73.5052 8.53009ZM72.5092 13.6277V13.7614H72.6192L72.6403 13.6534L72.5092 13.6277ZM71.0935 13.6531L72.0778 8.55542L71.8155 8.50476L70.8311 13.6024L71.0935 13.6531ZM71.9467 8.39648H71.0795V8.6637H71.9467V8.39648ZM71.2106 8.55574L71.4743 7.20809L71.212 7.15678L70.9483 8.50444L71.2106 8.55574ZM71.3431 7.31604H72.2103V7.04883H71.3431V7.31604ZM72.3415 7.20798L72.734 5.19235L72.4718 5.14127L72.0792 7.15689L72.3415 7.20798ZM72.6029 5.30042H74.1556V5.0332H72.6029V5.30042ZM74.0244 5.14163L73.6377 7.15726L73.9001 7.20761L74.2869 5.19198L74.0244 5.14163ZM73.7689 7.31604H74.6947V7.04883H73.7689V7.31604ZM74.5634 7.15788L74.3114 8.50554L74.5741 8.55464L74.826 7.20699L74.5634 7.15788ZM74.4427 8.39648H73.5052V8.6637H74.4427V8.39648ZM73.3741 8.50447L72.378 13.6021L72.6403 13.6534L73.6364 8.55571L73.3741 8.50447ZM72.5092 13.4941H70.9623V13.7614H72.5092V13.4941ZM81.2103 11.3719L81.3369 11.4145L81.3963 11.2383H81.2103V11.3719ZM79.9388 13.159L79.8606 13.0507L79.8603 13.0509L79.9388 13.159ZM75.6029 12.9305L75.5084 13.025L75.5087 13.0253L75.6029 12.9305ZM75.0521 9.13947L75.1743 9.19364L75.1744 9.19327L75.0521 9.13947ZM75.9779 7.86798L76.0669 7.96763L76.0671 7.96742L75.9779 7.86798ZM77.015 7.24689L77.0607 7.37245L77.0618 7.37204L77.015 7.24689ZM80.2904 7.68634L80.2073 7.79096L80.2081 7.7916L80.2904 7.68634ZM81.3568 9.47345V9.60706H81.5208L81.4877 9.44647L81.3568 9.47345ZM79.8275 9.47345L79.7051 9.52693L79.7401 9.60706H79.8275V9.47345ZM79.1947 8.70001L79.1206 8.8112L79.1225 8.8124L79.1947 8.70001ZM76.7806 9.05743L76.6817 8.9677L76.6816 8.96775L76.7806 9.05743ZM79.6166 11.3719V11.2383H79.5405L79.5017 11.3037L79.6166 11.3719ZM81.0837 11.3292C80.8338 12.0715 80.4254 12.643 79.8606 13.0507L80.017 13.2673C80.632 12.8234 81.0713 12.2035 81.3369 11.4145L81.0837 11.3292ZM79.8603 13.0509C79.2997 13.4583 78.6327 13.6641 77.8529 13.6641V13.9313C78.6825 13.9313 79.4061 13.7113 80.0174 13.2671L79.8603 13.0509ZM77.8529 13.6641C76.9656 13.6641 76.251 13.3859 75.6971 12.8357L75.5087 13.0253C76.1189 13.6313 76.9042 13.9313 77.8529 13.9313V13.6641ZM75.6974 12.836C75.1433 12.2819 74.8635 11.5693 74.8635 10.6863H74.5963C74.5963 11.6315 74.8985 12.415 75.5084 13.025L75.6974 12.836ZM74.8635 10.6863C74.8635 10.1575 74.9672 9.6604 75.1743 9.19364L74.93 9.08529C74.7073 9.58728 74.5963 10.1214 74.5963 10.6863H74.8635ZM75.1744 9.19327C75.3815 8.72268 75.6786 8.31443 76.0669 7.96763L75.8889 7.76834C75.4725 8.14029 75.1525 8.57969 74.9298 9.08566L75.1744 9.19327ZM76.0671 7.96742C76.359 7.70546 76.6899 7.50726 77.0607 7.37245L76.9694 7.12132C76.5667 7.26776 76.2061 7.48363 75.8887 7.76855L76.0671 7.96742ZM77.0618 7.37204C77.4325 7.23348 77.8307 7.1637 78.2572 7.1637V6.89648C77.8009 6.89648 77.3709 6.97124 76.9682 7.12174L77.0618 7.37204ZM78.2572 7.1637C79.0363 7.1637 79.6835 7.37489 80.2073 7.79096L80.3735 7.58172C79.7957 7.12279 79.0875 6.89648 78.2572 6.89648V7.1637ZM80.2081 7.7916C80.7353 8.20371 81.0754 8.77035 81.226 9.50043L81.4877 9.44647C81.3257 8.66093 80.9549 8.03616 80.3727 7.58108L80.2081 7.7916ZM81.3568 9.33984H79.8275V9.60706H81.3568V9.33984ZM79.95 9.41997C79.7925 9.05948 79.5656 8.7796 79.267 8.58763L79.1225 8.8124C79.3707 8.97199 79.5657 9.20774 79.7051 9.52693L79.95 9.41997ZM79.2688 8.58884C78.9743 8.39248 78.6273 8.29687 78.2338 8.29687V8.56409C78.5824 8.56409 78.8761 8.64817 79.1206 8.81118L79.2688 8.58884ZM78.2338 8.29687C77.6082 8.29687 77.0872 8.52038 76.6817 8.9677L76.8796 9.14717C77.2319 8.75855 77.6797 8.56409 78.2338 8.56409V8.29687ZM76.6816 8.96775C76.2805 9.41059 76.0845 9.97965 76.0845 10.6629H76.3517C76.3517 10.0337 76.5307 9.53241 76.8797 9.14712L76.6816 8.96775ZM76.0845 10.6629C76.0845 11.2046 76.2532 11.656 76.5977 12.0048L76.7878 11.8171C76.4995 11.5252 76.3517 11.1447 76.3517 10.6629H76.0845ZM76.5977 12.0048C76.9423 12.3537 77.3883 12.525 77.9232 12.525V12.2578C77.4504 12.2578 77.076 12.1088 76.7878 11.8171L76.5977 12.0048ZM77.9232 12.525C78.3049 12.525 78.6514 12.4335 78.959 12.248L78.821 12.0192C78.5584 12.1775 78.2603 12.2578 77.9232 12.2578V12.525ZM78.959 12.248C79.2661 12.0629 79.523 11.7917 79.7315 11.44L79.5017 11.3037C79.3117 11.624 79.0843 11.8605 78.821 12.0192L78.959 12.248ZM79.6166 11.5055H81.2103V11.2383H79.6166V11.5055ZM81.5092 13.6277L81.378 13.6023L81.3471 13.7614H81.5092V13.6277ZM83.1674 5.0965V4.96289H83.0572L83.0362 5.071L83.1674 5.0965ZM84.6674 5.0965L84.7984 5.12247L84.83 4.96289H84.6674V5.0965ZM84.1635 7.63947L84.0324 7.6135L83.9604 7.97691L84.2478 7.74311L84.1635 7.63947ZM84.8842 7.21759L84.8379 7.09225L84.8372 7.09249L84.8842 7.21759ZM87.931 9.77228L87.7988 9.75311L87.7986 9.75475L87.931 9.77228ZM87.7728 10.6981L87.6418 10.6719L87.6416 10.6729L87.7728 10.6981ZM87.2103 13.6277V13.7614H87.3207L87.3415 13.6529L87.2103 13.6277ZM85.6635 13.6277L85.5323 13.6025L85.5016 13.7614H85.6635V13.6277ZM86.3197 10.2234L86.1888 10.1965L86.1885 10.1982L86.3197 10.2234ZM86.1498 8.66486L86.0532 8.75721L86.0543 8.75826L86.1498 8.66486ZM83.6361 10.3875L83.7673 10.4129L83.7673 10.4129L83.6361 10.3875ZM83.0092 13.6277V13.7614H83.1194L83.1403 13.6531L83.0092 13.6277ZM81.6403 13.6532L83.2985 5.12199L83.0362 5.071L81.378 13.6023L81.6403 13.6532ZM83.1674 5.2301H84.6674V4.96289H83.1674V5.2301ZM84.5363 5.07053L84.0324 7.6135L84.2945 7.66544L84.7984 5.12247L84.5363 5.07053ZM84.2478 7.74311C84.4683 7.56372 84.6961 7.43082 84.9311 7.34269L84.8372 7.09249C84.5723 7.19186 84.3196 7.34021 84.0791 7.53583L84.2478 7.74311ZM84.9304 7.34293C85.1689 7.25486 85.4208 7.21057 85.6869 7.21057V6.94336C85.3905 6.94336 85.1072 6.99282 84.8379 7.09225L84.9304 7.34293ZM85.6869 7.21057C86.4217 7.21057 86.9565 7.38387 87.3138 7.70898L87.4936 7.51135C87.0696 7.12553 86.4599 6.94336 85.6869 6.94336V7.21057ZM87.3138 7.70898C87.6688 8.03205 87.856 8.51274 87.856 9.17462H88.1232C88.1232 8.46151 87.9198 7.89923 87.4936 7.51135L87.3138 7.70898ZM87.856 9.17462C87.856 9.29334 87.8377 9.48456 87.7988 9.75311L88.0633 9.79144C88.1025 9.52093 88.1232 9.31372 88.1232 9.17462H87.856ZM87.7986 9.75475C87.7639 10.0167 87.7117 10.3223 87.6418 10.6719L87.9038 10.7243C87.9745 10.3707 88.0278 10.0591 88.0635 9.78981L87.7986 9.75475ZM87.6416 10.6729L87.0791 13.6026L87.3415 13.6529L87.904 10.7233L87.6416 10.6729ZM87.2103 13.4941H85.6635V13.7614H87.2103V13.4941ZM85.7946 13.653L86.4509 10.2487L86.1885 10.1982L85.5323 13.6025L85.7946 13.653ZM86.4506 10.2504C86.4787 10.1139 86.5008 9.97729 86.5168 9.84062L86.2515 9.8094C86.2363 9.93836 86.2154 10.0674 86.1888 10.1965L86.4506 10.2504ZM86.5168 9.84062C86.533 9.70299 86.5412 9.56886 86.5412 9.43829H86.274C86.274 9.55773 86.2665 9.68141 86.2515 9.8094L86.5168 9.84062ZM86.5412 9.43829C86.5412 9.0771 86.4497 8.78045 86.2453 8.57145L86.0543 8.75826C86.1936 8.90082 86.274 9.1198 86.274 9.43829H86.5412ZM86.2463 8.5725C86.0419 8.3588 85.7522 8.26172 85.3998 8.26172V8.52893C85.7036 8.52893 85.9139 8.61153 86.0532 8.75721L86.2463 8.5725ZM85.3998 8.26172C84.8934 8.26172 84.4765 8.43506 84.1633 8.78695L84.3629 8.96463C84.6199 8.6759 84.9609 8.52893 85.3998 8.52893V8.26172ZM84.1633 8.78695C83.855 9.13323 83.6397 9.66446 83.5049 10.3622L83.7673 10.4129C83.8981 9.73556 84.1008 9.25898 84.3629 8.96463L84.1633 8.78695ZM83.5049 10.3621L82.878 13.6024L83.1403 13.6531L83.7673 10.4129L83.5049 10.3621ZM83.0092 13.4941H81.5092V13.7614H83.0092V13.4941Z" fill="#05AC4E" mask="url(#path-4-outside-2_1_569)"/>
</svg>
