<svg width="268" height="47" viewBox="0 0 268 47" fill="none" xmlns="http://www.w3.org/2000/svg">
<mask id="path-1-outside-1_6_238" maskUnits="userSpaceOnUse" x="0" y="8" width="148" height="29" fill="black">
<rect fill="white" y="8" width="148" height="29"/>
<path d="M9.64453 20.7666H12.335C13.9925 20.7666 15.2419 20.4326 16.083 19.7646C16.9242 19.0843 17.3447 18.0885 17.3447 16.7773C17.3447 15.6022 16.9365 14.7363 16.1201 14.1797C15.3161 13.623 14.0544 13.3447 12.335 13.3447C12.0133 13.3447 11.766 13.3509 11.5928 13.3633C11.4196 13.3633 11.2464 13.3757 11.0732 13.4004L9.64453 20.7666ZM6.67578 36H1.35059L6.60156 8.98438H13.7822C16.6768 8.98438 18.9033 9.6709 20.4619 11.0439C22.0329 12.4046 22.8184 14.3405 22.8184 16.8516C22.8184 18.1257 22.5833 19.307 22.1133 20.3955C21.6432 21.4717 20.9567 22.3932 20.0537 23.1602C19.0641 23.9889 17.9941 24.5827 16.8438 24.9414C15.7057 25.3001 14.141 25.4795 12.1494 25.4795H8.7168L6.67578 36ZM33.8213 19.4307C32.0153 19.4307 30.5062 20.111 29.2939 21.4717C28.0817 22.8324 27.4756 24.5456 27.4756 26.6113C27.4756 28.207 27.9704 29.5182 28.96 30.5449C29.9619 31.5716 31.2422 32.085 32.8008 32.085C34.6191 32.085 36.153 31.4046 37.4023 30.0439C38.6641 28.6833 39.2949 27.0072 39.2949 25.0156C39.2949 23.3333 38.7939 21.985 37.792 20.9707C36.79 19.944 35.4665 19.4307 33.8213 19.4307ZM22.7627 26.6855C22.7627 24.9167 23.109 23.2591 23.8018 21.7129C24.4945 20.1543 25.4902 18.7998 26.7891 17.6494C27.7786 16.7712 28.8919 16.1094 30.1289 15.6641C31.3659 15.2064 32.6956 14.9775 34.1182 14.9775C37.0127 14.9775 39.3815 15.8991 41.2246 17.7422C43.0801 19.5853 44.0078 21.9479 44.0078 24.8301C44.0078 26.4505 43.7171 27.9906 43.1357 29.4502C42.5667 30.8975 41.7441 32.1839 40.668 33.3096C39.6536 34.3486 38.4538 35.1465 37.0684 35.7031C35.6953 36.2598 34.2048 36.5381 32.5967 36.5381C29.7269 36.5381 27.3704 35.6165 25.5273 33.7734C23.6842 31.918 22.7627 29.5553 22.7627 26.6855ZM45.084 36L49.0361 15.5898H53.3779L52.8398 18.2988C53.7057 17.1608 54.7015 16.3258 55.8271 15.7939C56.9652 15.2497 58.3011 14.9775 59.835 14.9775H59.9834L59.0742 19.7646C56.8848 19.8018 55.2767 20.2471 54.25 21.1006C53.2233 21.9417 52.4873 23.4756 52.042 25.7021L50.0195 36H45.084ZM60.8926 36L64.0098 19.8574H61.2637L62.0986 15.5898H64.8447L66.0879 9.20703H71.0049L69.7803 15.5898H72.7119L71.9141 19.8574H68.9453L65.791 36H60.8926ZM73.1572 36L76.2744 19.8945H73.3242L74.1592 15.627H77.1094C77.4805 13.2148 78.3154 11.4521 79.6143 10.3389C80.9131 9.22559 82.8057 8.66895 85.292 8.66895C85.6383 8.66895 86.2012 8.69368 86.9805 8.74316L87.1104 8.76172L86.2754 13.1221C86.2507 13.1221 86.2135 13.1221 86.1641 13.1221C85.5827 13.0726 85.1745 13.0479 84.9395 13.0479C83.9251 13.0479 83.1891 13.2396 82.7314 13.623C82.2738 14.0065 81.9707 14.6745 81.8223 15.627H84.9023L84.0674 19.8945H80.9873L77.833 36H73.1572ZM96.0166 19.4307C94.2106 19.4307 92.7015 20.111 91.4893 21.4717C90.277 22.8324 89.6709 24.5456 89.6709 26.6113C89.6709 28.207 90.1657 29.5182 91.1553 30.5449C92.1572 31.5716 93.4375 32.085 94.9961 32.085C96.8145 32.085 98.3483 31.4046 99.5977 30.0439C100.859 28.6833 101.49 27.0072 101.49 25.0156C101.49 23.3333 100.989 21.985 99.9873 20.9707C98.9854 19.944 97.6618 19.4307 96.0166 19.4307ZM84.958 26.6855C84.958 24.9167 85.3044 23.2591 85.9971 21.7129C86.6898 20.1543 87.6855 18.7998 88.9844 17.6494C89.974 16.7712 91.0872 16.1094 92.3242 15.6641C93.5612 15.2064 94.891 14.9775 96.3135 14.9775C99.208 14.9775 101.577 15.8991 103.42 17.7422C105.275 19.5853 106.203 21.9479 106.203 24.8301C106.203 26.4505 105.912 27.9906 105.331 29.4502C104.762 30.8975 103.939 32.1839 102.863 33.3096C101.849 34.3486 100.649 35.1465 99.2637 35.7031C97.8906 36.2598 96.4001 36.5381 94.792 36.5381C91.9222 36.5381 89.5658 35.6165 87.7227 33.7734C85.8796 31.918 84.958 29.5553 84.958 26.6855ZM107.168 36L112.419 8.98438H117.169L111.918 36H107.168ZM116.111 36L120.063 15.5898H124.776L120.824 36H116.111ZM120.49 13.4189L121.362 8.98438H126.075L125.203 13.4189H120.49ZM136.874 19.4307C135.068 19.4307 133.559 20.111 132.347 21.4717C131.134 22.8324 130.528 24.5456 130.528 26.6113C130.528 28.207 131.023 29.5182 132.013 30.5449C133.015 31.5716 134.295 32.085 135.854 32.085C137.672 32.085 139.206 31.4046 140.455 30.0439C141.717 28.6833 142.348 27.0072 142.348 25.0156C142.348 23.3333 141.847 21.985 140.845 20.9707C139.843 19.944 138.519 19.4307 136.874 19.4307ZM125.815 26.6855C125.815 24.9167 126.162 23.2591 126.854 21.7129C127.547 20.1543 128.543 18.7998 129.842 17.6494C130.831 16.7712 131.945 16.1094 133.182 15.6641C134.419 15.2064 135.748 14.9775 137.171 14.9775C140.065 14.9775 142.434 15.8991 144.277 17.7422C146.133 19.5853 147.061 21.9479 147.061 24.8301C147.061 26.4505 146.77 27.9906 146.188 29.4502C145.619 30.8975 144.797 32.1839 143.721 33.3096C142.706 34.3486 141.507 35.1465 140.121 35.7031C138.748 36.2598 137.257 36.5381 135.649 36.5381C132.78 36.5381 130.423 35.6165 128.58 33.7734C126.737 31.918 125.815 29.5553 125.815 26.6855Z"/>
</mask>
<path d="M9.64453 20.7666H12.335C13.9925 20.7666 15.2419 20.4326 16.083 19.7646C16.9242 19.0843 17.3447 18.0885 17.3447 16.7773C17.3447 15.6022 16.9365 14.7363 16.1201 14.1797C15.3161 13.623 14.0544 13.3447 12.335 13.3447C12.0133 13.3447 11.766 13.3509 11.5928 13.3633C11.4196 13.3633 11.2464 13.3757 11.0732 13.4004L9.64453 20.7666ZM6.67578 36H1.35059L6.60156 8.98438H13.7822C16.6768 8.98438 18.9033 9.6709 20.4619 11.0439C22.0329 12.4046 22.8184 14.3405 22.8184 16.8516C22.8184 18.1257 22.5833 19.307 22.1133 20.3955C21.6432 21.4717 20.9567 22.3932 20.0537 23.1602C19.0641 23.9889 17.9941 24.5827 16.8438 24.9414C15.7057 25.3001 14.141 25.4795 12.1494 25.4795H8.7168L6.67578 36ZM33.8213 19.4307C32.0153 19.4307 30.5062 20.111 29.2939 21.4717C28.0817 22.8324 27.4756 24.5456 27.4756 26.6113C27.4756 28.207 27.9704 29.5182 28.96 30.5449C29.9619 31.5716 31.2422 32.085 32.8008 32.085C34.6191 32.085 36.153 31.4046 37.4023 30.0439C38.6641 28.6833 39.2949 27.0072 39.2949 25.0156C39.2949 23.3333 38.7939 21.985 37.792 20.9707C36.79 19.944 35.4665 19.4307 33.8213 19.4307ZM22.7627 26.6855C22.7627 24.9167 23.109 23.2591 23.8018 21.7129C24.4945 20.1543 25.4902 18.7998 26.7891 17.6494C27.7786 16.7712 28.8919 16.1094 30.1289 15.6641C31.3659 15.2064 32.6956 14.9775 34.1182 14.9775C37.0127 14.9775 39.3815 15.8991 41.2246 17.7422C43.0801 19.5853 44.0078 21.9479 44.0078 24.8301C44.0078 26.4505 43.7171 27.9906 43.1357 29.4502C42.5667 30.8975 41.7441 32.1839 40.668 33.3096C39.6536 34.3486 38.4538 35.1465 37.0684 35.7031C35.6953 36.2598 34.2048 36.5381 32.5967 36.5381C29.7269 36.5381 27.3704 35.6165 25.5273 33.7734C23.6842 31.918 22.7627 29.5553 22.7627 26.6855ZM45.084 36L49.0361 15.5898H53.3779L52.8398 18.2988C53.7057 17.1608 54.7015 16.3258 55.8271 15.7939C56.9652 15.2497 58.3011 14.9775 59.835 14.9775H59.9834L59.0742 19.7646C56.8848 19.8018 55.2767 20.2471 54.25 21.1006C53.2233 21.9417 52.4873 23.4756 52.042 25.7021L50.0195 36H45.084ZM60.8926 36L64.0098 19.8574H61.2637L62.0986 15.5898H64.8447L66.0879 9.20703H71.0049L69.7803 15.5898H72.7119L71.9141 19.8574H68.9453L65.791 36H60.8926ZM73.1572 36L76.2744 19.8945H73.3242L74.1592 15.627H77.1094C77.4805 13.2148 78.3154 11.4521 79.6143 10.3389C80.9131 9.22559 82.8057 8.66895 85.292 8.66895C85.6383 8.66895 86.2012 8.69368 86.9805 8.74316L87.1104 8.76172L86.2754 13.1221C86.2507 13.1221 86.2135 13.1221 86.1641 13.1221C85.5827 13.0726 85.1745 13.0479 84.9395 13.0479C83.9251 13.0479 83.1891 13.2396 82.7314 13.623C82.2738 14.0065 81.9707 14.6745 81.8223 15.627H84.9023L84.0674 19.8945H80.9873L77.833 36H73.1572ZM96.0166 19.4307C94.2106 19.4307 92.7015 20.111 91.4893 21.4717C90.277 22.8324 89.6709 24.5456 89.6709 26.6113C89.6709 28.207 90.1657 29.5182 91.1553 30.5449C92.1572 31.5716 93.4375 32.085 94.9961 32.085C96.8145 32.085 98.3483 31.4046 99.5977 30.0439C100.859 28.6833 101.49 27.0072 101.49 25.0156C101.49 23.3333 100.989 21.985 99.9873 20.9707C98.9854 19.944 97.6618 19.4307 96.0166 19.4307ZM84.958 26.6855C84.958 24.9167 85.3044 23.2591 85.9971 21.7129C86.6898 20.1543 87.6855 18.7998 88.9844 17.6494C89.974 16.7712 91.0872 16.1094 92.3242 15.6641C93.5612 15.2064 94.891 14.9775 96.3135 14.9775C99.208 14.9775 101.577 15.8991 103.42 17.7422C105.275 19.5853 106.203 21.9479 106.203 24.8301C106.203 26.4505 105.912 27.9906 105.331 29.4502C104.762 30.8975 103.939 32.1839 102.863 33.3096C101.849 34.3486 100.649 35.1465 99.2637 35.7031C97.8906 36.2598 96.4001 36.5381 94.792 36.5381C91.9222 36.5381 89.5658 35.6165 87.7227 33.7734C85.8796 31.918 84.958 29.5553 84.958 26.6855ZM107.168 36L112.419 8.98438H117.169L111.918 36H107.168ZM116.111 36L120.063 15.5898H124.776L120.824 36H116.111ZM120.49 13.4189L121.362 8.98438H126.075L125.203 13.4189H120.49ZM136.874 19.4307C135.068 19.4307 133.559 20.111 132.347 21.4717C131.134 22.8324 130.528 24.5456 130.528 26.6113C130.528 28.207 131.023 29.5182 132.013 30.5449C133.015 31.5716 134.295 32.085 135.854 32.085C137.672 32.085 139.206 31.4046 140.455 30.0439C141.717 28.6833 142.348 27.0072 142.348 25.0156C142.348 23.3333 141.847 21.985 140.845 20.9707C139.843 19.944 138.519 19.4307 136.874 19.4307ZM125.815 26.6855C125.815 24.9167 126.162 23.2591 126.854 21.7129C127.547 20.1543 128.543 18.7998 129.842 17.6494C130.831 16.7712 131.945 16.1094 133.182 15.6641C134.419 15.2064 135.748 14.9775 137.171 14.9775C140.065 14.9775 142.434 15.8991 144.277 17.7422C146.133 19.5853 147.061 21.9479 147.061 24.8301C147.061 26.4505 146.77 27.9906 146.188 29.4502C145.619 30.8975 144.797 32.1839 143.721 33.3096C142.706 34.3486 141.507 35.1465 140.121 35.7031C138.748 36.2598 137.257 36.5381 135.649 36.5381C132.78 36.5381 130.423 35.6165 128.58 33.7734C126.737 31.918 125.815 29.5553 125.815 26.6855Z" fill="white"/>
<path d="M9.64453 20.7666L9.25185 20.6904L9.1595 21.1666H9.64453V20.7666ZM16.083 19.7646L16.3318 20.0779L16.3346 20.0757L16.083 19.7646ZM16.1201 14.1797L15.8924 14.5086L15.8948 14.5102L16.1201 14.1797ZM11.5928 13.3633V13.7633H11.607L11.6213 13.7623L11.5928 13.3633ZM11.0732 13.4004L11.0167 13.0044L10.7348 13.0447L10.6806 13.3242L11.0732 13.4004ZM6.67578 36V36.4H7.00564L7.06846 36.0762L6.67578 36ZM1.35059 36L0.957934 35.9237L0.865353 36.4H1.35059V36ZM6.60156 8.98438V8.58437H6.27182L6.20891 8.90806L6.60156 8.98438ZM20.4619 11.0439L20.1975 11.3441L20.2 11.3463L20.4619 11.0439ZM22.1133 20.3955L22.4798 20.5556L22.4805 20.5541L22.1133 20.3955ZM20.0537 23.1602L20.3105 23.4668L20.3126 23.465L20.0537 23.1602ZM16.8438 24.9414L16.7247 24.5595L16.7235 24.5599L16.8438 24.9414ZM8.7168 25.4795V25.0795H8.38694L8.32412 25.4033L8.7168 25.4795ZM9.64453 21.1666H12.335V20.3666H9.64453V21.1666ZM12.335 21.1666C14.0364 21.1666 15.3905 20.8254 16.3318 20.0779L15.8343 19.4514C15.0932 20.0399 13.9486 20.3666 12.335 20.3666V21.1666ZM16.3346 20.0757C17.2896 19.3032 17.7447 18.181 17.7447 16.7773H16.9447C16.9447 17.9961 16.5587 18.8654 15.8315 19.4536L16.3346 20.0757ZM17.7447 16.7773C17.7447 15.4987 17.2929 14.4952 16.3455 13.8492L15.8948 14.5102C16.5801 14.9775 16.9447 15.7058 16.9447 16.7773H17.7447ZM16.3478 13.8508C15.443 13.2244 14.0814 12.9447 12.335 12.9447V13.7447C14.0274 13.7447 15.1892 14.0217 15.8924 14.5086L16.3478 13.8508ZM12.335 12.9447C12.0104 12.9447 11.7518 12.9509 11.5643 12.9643L11.6213 13.7623C11.7801 13.7509 12.0163 13.7447 12.335 13.7447V12.9447ZM11.5928 12.9633C11.4005 12.9633 11.2084 12.977 11.0167 13.0044L11.1298 13.7964C11.2844 13.7743 11.4387 13.7633 11.5928 13.7633V12.9633ZM10.6806 13.3242L9.25185 20.6904L10.0372 20.8428L11.4659 13.4766L10.6806 13.3242ZM6.67578 35.6H1.35059V36.4H6.67578V35.6ZM1.74324 36.0763L6.99421 9.06069L6.20891 8.90806L0.957934 35.9237L1.74324 36.0763ZM6.60156 9.38438H13.7822V8.58437H6.60156V9.38438ZM13.7822 9.38438C16.6176 9.38438 18.7363 10.0568 20.1975 11.3441L20.7263 10.7438C19.0704 9.28497 16.7359 8.58437 13.7822 8.58437V9.38438ZM20.2 11.3463C21.6651 12.6153 22.4184 14.4301 22.4184 16.8516H23.2184C23.2184 14.2509 22.4007 12.194 20.7238 10.7416L20.2 11.3463ZM22.4184 16.8516C22.4184 18.0752 22.1929 19.2021 21.7461 20.2369L22.4805 20.5541C22.9738 19.4118 23.2184 18.1761 23.2184 16.8516H22.4184ZM21.7467 20.2354C21.3013 21.2552 20.6518 22.1274 19.7948 22.8553L20.3126 23.465C21.2616 22.659 21.9852 21.6881 22.4798 20.5556L21.7467 20.2354ZM19.7969 22.8535C18.8449 23.6508 17.8211 24.2176 16.7247 24.5595L16.9628 25.3233C18.1672 24.9477 19.2834 24.3271 20.3105 23.4668L19.7969 22.8535ZM16.7235 24.5599C15.6417 24.9009 14.1236 25.0795 12.1494 25.0795V25.8795C14.1583 25.8795 15.7697 25.6994 16.964 25.3229L16.7235 24.5599ZM12.1494 25.0795H8.7168V25.8795H12.1494V25.0795ZM8.32412 25.4033L6.2831 35.9238L7.06846 36.0762L9.10948 25.5557L8.32412 25.4033ZM28.96 30.5449L28.672 30.8225L28.6737 30.8243L28.96 30.5449ZM37.4023 30.0439L37.109 29.772L37.1077 29.7734L37.4023 30.0439ZM37.792 20.9707L37.5057 21.2501L37.5074 21.2518L37.792 20.9707ZM23.8018 21.7129L24.1668 21.8764L24.1673 21.8753L23.8018 21.7129ZM26.7891 17.6494L27.0543 17.9488L27.0546 17.9486L26.7891 17.6494ZM30.1289 15.6641L30.2644 16.0404L30.2677 16.0392L30.1289 15.6641ZM41.2246 17.7422L40.9418 18.025L40.9427 18.026L41.2246 17.7422ZM43.1357 29.4502L42.7641 29.3022L42.7635 29.3038L43.1357 29.4502ZM40.668 33.3096L40.9542 33.589L40.9571 33.586L40.668 33.3096ZM37.0684 35.7031L36.9192 35.332L36.9181 35.3324L37.0684 35.7031ZM25.5273 33.7734L25.2436 34.0553L25.2445 34.0563L25.5273 33.7734ZM33.8213 19.0307C31.9 19.0307 30.2826 19.7606 28.9953 21.2056L29.5926 21.7378C30.7297 20.4614 32.1306 19.8307 33.8213 19.8307V19.0307ZM28.9953 21.2056C27.709 22.6494 27.0756 24.4615 27.0756 26.6113H27.8756C27.8756 24.6297 28.4544 23.0153 29.5926 21.7378L28.9953 21.2056ZM27.0756 26.6113C27.0756 28.2972 27.6017 29.7122 28.672 30.8225L29.248 30.2673C28.339 29.3243 27.8756 28.1169 27.8756 26.6113H27.0756ZM28.6737 30.8243C29.7578 31.9352 31.1447 32.485 32.8008 32.485V31.685C31.3397 31.685 30.166 31.208 29.2462 30.2655L28.6737 30.8243ZM32.8008 32.485C34.7332 32.485 36.3732 31.7562 37.697 30.3145L37.1077 29.7734C35.9327 31.0531 34.5051 31.685 32.8008 31.685V32.485ZM37.6957 30.3159C39.0313 28.8756 39.6949 27.1 39.6949 25.0156H38.8949C38.8949 26.9144 38.2969 28.491 37.109 29.772L37.6957 30.3159ZM39.6949 25.0156C39.6949 23.2484 39.1656 21.7921 38.0766 20.6896L37.5074 21.2518C38.4223 22.1779 38.8949 23.4182 38.8949 25.0156H39.6949ZM38.0783 20.6913C36.9898 19.576 35.557 19.0307 33.8213 19.0307V19.8307C35.3759 19.8307 36.5903 20.312 37.5057 21.2501L38.0783 20.6913ZM23.1627 26.6855C23.1627 24.9705 23.4982 23.3689 24.1668 21.8764L23.4367 21.5494C22.7199 23.1493 22.3627 24.8628 22.3627 26.6855H23.1627ZM24.1673 21.8753C24.8363 20.37 25.7975 19.062 27.0543 17.9488L26.5238 17.35C25.1829 18.5377 24.1526 19.9386 23.4362 21.5504L24.1673 21.8753ZM27.0546 17.9486C28.0064 17.1039 29.0756 16.4684 30.2644 16.0404L29.9934 15.2877C28.7083 15.7504 27.5509 16.4384 26.5235 17.3502L27.0546 17.9486ZM30.2677 16.0392C31.4569 15.5992 32.7393 15.3775 34.1182 15.3775V14.5775C32.652 14.5775 31.2749 14.8135 29.9901 15.2889L30.2677 16.0392ZM34.1182 15.3775C36.9195 15.3775 39.1823 16.2656 40.9418 18.025L41.5075 17.4593C39.5807 15.5326 37.1059 14.5775 34.1182 14.5775V15.3775ZM40.9427 18.026C42.7145 19.786 43.6078 22.0425 43.6078 24.8301H44.4078C44.4078 21.8533 43.4456 19.3846 41.5065 17.4584L40.9427 18.026ZM43.6078 24.8301C43.6078 26.4015 43.3262 27.8911 42.7641 29.3022L43.5073 29.5982C44.1081 28.09 44.4078 26.4996 44.4078 24.8301H43.6078ZM42.7635 29.3038C42.2135 30.7027 41.4192 31.945 40.3788 33.0332L40.9571 33.586C42.0691 32.4228 42.92 31.0922 43.508 29.5966L42.7635 29.3038ZM40.3817 33.0302C39.4074 34.0283 38.2546 34.7954 36.9192 35.332L37.2175 36.0743C38.653 35.4975 39.8999 34.669 40.9542 33.589L40.3817 33.0302ZM36.9181 35.3324C35.5967 35.8681 34.1577 36.1381 32.5967 36.1381V36.9381C34.2518 36.9381 35.7939 36.6514 37.2186 36.0738L36.9181 35.3324ZM32.5967 36.1381C29.8212 36.1381 27.5703 35.2507 25.8102 33.4906L25.2445 34.0563C27.1705 35.9823 29.6326 36.9381 32.5967 36.9381V36.1381ZM25.8111 33.4915C24.0501 31.7187 23.1627 29.461 23.1627 26.6855H22.3627C22.3627 29.6497 23.3184 32.1173 25.2436 34.0553L25.8111 33.4915ZM45.084 36L44.6913 35.924L44.5991 36.4H45.084V36ZM49.0361 15.5898V15.1898H48.7062L48.6434 15.5138L49.0361 15.5898ZM53.3779 15.5898L53.7703 15.6678L53.8652 15.1898H53.3779V15.5898ZM52.8398 18.2988L52.4475 18.2209L53.1582 18.541L52.8398 18.2988ZM55.8271 15.7939L55.998 16.1556L55.9997 16.1548L55.8271 15.7939ZM59.9834 14.9775L60.3764 15.0522L60.4665 14.5775H59.9834V14.9775ZM59.0742 19.7646L59.081 20.1646L59.4065 20.1591L59.4672 19.8393L59.0742 19.7646ZM54.25 21.1006L54.5035 21.41L54.5057 21.4082L54.25 21.1006ZM52.042 25.7021L51.6498 25.6237L51.6495 25.6251L52.042 25.7021ZM50.0195 36V36.4H50.3486L50.412 36.0771L50.0195 36ZM45.4767 36.076L49.4288 15.6659L48.6434 15.5138L44.6913 35.924L45.4767 36.076ZM49.0361 15.9898H53.3779V15.1898H49.0361V15.9898ZM52.9856 15.5119L52.4475 18.2209L53.2322 18.3768L53.7703 15.6678L52.9856 15.5119ZM53.1582 18.541C53.991 17.4465 54.9385 16.6563 55.998 16.1556L55.6563 15.4323C54.4645 15.9954 53.4204 16.8752 52.5215 18.0566L53.1582 18.541ZM55.9997 16.1548C57.0735 15.6413 58.3482 15.3775 59.835 15.3775V14.5775C58.2541 14.5775 56.8568 14.8581 55.6546 15.4331L55.9997 16.1548ZM59.835 15.3775H59.9834V14.5775H59.835V15.3775ZM59.5904 14.9029L58.6812 19.69L59.4672 19.8393L60.3764 15.0522L59.5904 14.9029ZM59.0674 19.3647C56.8408 19.4024 55.1235 19.8542 53.9943 20.793L54.5057 21.4082C55.4299 20.6399 56.9288 20.2011 59.081 20.1646L59.0674 19.3647ZM53.9965 20.7912C52.8627 21.7201 52.1015 23.3651 51.6498 25.6237L52.4342 25.7806C52.8731 23.5861 53.5839 22.1634 54.5035 21.41L53.9965 20.7912ZM51.6495 25.6251L49.627 35.9229L50.412 36.0771L52.4345 25.7792L51.6495 25.6251ZM50.0195 35.6H45.084V36.4H50.0195V35.6ZM60.8926 36L60.4998 35.9242L60.4079 36.4H60.8926V36ZM64.0098 19.8574L64.4025 19.9333L64.4944 19.4574H64.0098V19.8574ZM61.2637 19.8574L60.8711 19.7806L60.7778 20.2574H61.2637V19.8574ZM62.0986 15.5898V15.1898H61.7693L61.7061 15.513L62.0986 15.5898ZM64.8447 15.5898V15.9898H65.1743L65.2373 15.6663L64.8447 15.5898ZM66.0879 9.20703V8.80703H65.7583L65.6953 9.13056L66.0879 9.20703ZM71.0049 9.20703L71.3977 9.2824L71.4889 8.80703H71.0049V9.20703ZM69.7803 15.5898L69.3874 15.5145L69.2962 15.9898H69.7803V15.5898ZM72.7119 15.5898L73.1051 15.6634L73.1936 15.1898H72.7119V15.5898ZM71.9141 19.8574V20.2574H72.2462L72.3073 19.9309L71.9141 19.8574ZM68.9453 19.8574V19.4574H68.6159L68.5527 19.7807L68.9453 19.8574ZM65.791 36V36.4H66.1204L66.1836 36.0767L65.791 36ZM61.2853 36.0758L64.4025 19.9333L63.617 19.7816L60.4998 35.9242L61.2853 36.0758ZM64.0098 19.4574H61.2637V20.2574H64.0098V19.4574ZM61.6562 19.9342L62.4912 15.6666L61.7061 15.513L60.8711 19.7806L61.6562 19.9342ZM62.0986 15.9898H64.8447V15.1898H62.0986V15.9898ZM65.2373 15.6663L66.4805 9.2835L65.6953 9.13056L64.4521 15.5134L65.2373 15.6663ZM66.0879 9.60703H71.0049V8.80703H66.0879V9.60703ZM70.612 9.13166L69.3874 15.5145L70.1731 15.6652L71.3977 9.2824L70.612 9.13166ZM69.7803 15.9898H72.7119V15.1898H69.7803V15.9898ZM72.3187 15.5163L71.5209 19.7839L72.3073 19.9309L73.1051 15.6634L72.3187 15.5163ZM71.9141 19.4574H68.9453V20.2574H71.9141V19.4574ZM68.5527 19.7807L65.3984 35.9233L66.1836 36.0767L69.3379 19.9341L68.5527 19.7807ZM65.791 35.6H60.8926V36.4H65.791V35.6ZM73.1572 36L72.7645 35.924L72.6724 36.4H73.1572V36ZM76.2744 19.8945L76.6671 19.9705L76.7593 19.4945H76.2744V19.8945ZM73.3242 19.8945L72.9317 19.8177L72.8384 20.2945H73.3242V19.8945ZM74.1592 15.627V15.227H73.8299L73.7666 15.5501L74.1592 15.627ZM77.1094 15.627V16.027H77.4525L77.5047 15.6878L77.1094 15.627ZM86.9805 8.74316L87.037 8.34718L87.0215 8.34496L87.0058 8.34397L86.9805 8.74316ZM87.1104 8.76172L87.5032 8.83695L87.5821 8.42505L87.1669 8.36574L87.1104 8.76172ZM86.2754 13.1221V13.5221H86.6061L86.6683 13.1973L86.2754 13.1221ZM86.1641 13.1221L86.1301 13.5206L86.1471 13.5221H86.1641V13.1221ZM81.8223 15.627L81.427 15.5654L81.3551 16.027H81.8223V15.627ZM84.9023 15.627L85.2949 15.7038L85.3882 15.227H84.9023V15.627ZM84.0674 19.8945V20.2945H84.3967L84.4599 19.9713L84.0674 19.8945ZM80.9873 19.8945V19.4945H80.658L80.5948 19.8177L80.9873 19.8945ZM77.833 36V36.4H78.1623L78.2256 36.0769L77.833 36ZM73.5499 36.076L76.6671 19.9705L75.8817 19.8185L72.7645 35.924L73.5499 36.076ZM76.2744 19.4945H73.3242V20.2945H76.2744V19.4945ZM73.7168 19.9713L74.5517 15.7038L73.7666 15.5501L72.9317 19.8177L73.7168 19.9713ZM74.1592 16.027H77.1094V15.227H74.1592V16.027ZM77.5047 15.6878C77.8674 13.3304 78.6739 11.6717 79.8746 10.6426L79.3539 10.0352C77.9569 11.2326 77.0935 13.0993 76.714 15.5661L77.5047 15.6878ZM79.8746 10.6426C81.0742 9.61434 82.8588 9.06895 85.292 9.06895V8.26895C82.7525 8.26895 80.752 8.83683 79.3539 10.0352L79.8746 10.6426ZM85.292 9.06895C85.6246 9.06895 86.1765 9.09292 86.9551 9.14236L87.0058 8.34397C86.2258 8.29445 85.6521 8.26895 85.292 8.26895V9.06895ZM86.9239 9.13914L87.0538 9.1577L87.1669 8.36574L87.037 8.34718L86.9239 9.13914ZM86.7175 8.68649L85.8825 13.0468L86.6683 13.1973L87.5032 8.83695L86.7175 8.68649ZM86.2754 12.7221C86.2753 12.7221 86.2753 12.7221 86.2752 12.7221C86.2752 12.7221 86.2751 12.7221 86.2751 12.7221C86.2751 12.7221 86.275 12.7221 86.275 12.7221C86.2749 12.7221 86.2749 12.7221 86.2748 12.7221C86.2748 12.7221 86.2747 12.7221 86.2747 12.7221C86.2746 12.7221 86.2746 12.7221 86.2745 12.7221C86.2745 12.7221 86.2744 12.7221 86.2744 12.7221C86.2743 12.7221 86.2743 12.7221 86.2742 12.7221C86.2742 12.7221 86.2741 12.7221 86.2741 12.7221C86.274 12.7221 86.274 12.7221 86.2739 12.7221C86.2739 12.7221 86.2738 12.7221 86.2738 12.7221C86.2737 12.7221 86.2737 12.7221 86.2736 12.7221C86.2736 12.7221 86.2735 12.7221 86.2735 12.7221C86.2734 12.7221 86.2734 12.7221 86.2733 12.7221C86.2733 12.7221 86.2732 12.7221 86.2732 12.7221C86.2731 12.7221 86.2731 12.7221 86.273 12.7221C86.273 12.7221 86.2729 12.7221 86.2729 12.7221C86.2728 12.7221 86.2728 12.7221 86.2727 12.7221C86.2727 12.7221 86.2726 12.7221 86.2726 12.7221C86.2725 12.7221 86.2725 12.7221 86.2724 12.7221C86.2724 12.7221 86.2723 12.7221 86.2723 12.7221C86.2722 12.7221 86.2722 12.7221 86.2721 12.7221C86.2721 12.7221 86.272 12.7221 86.272 12.7221C86.2719 12.7221 86.2719 12.7221 86.2718 12.7221C86.2718 12.7221 86.2717 12.7221 86.2717 12.7221C86.2716 12.7221 86.2716 12.7221 86.2715 12.7221C86.2715 12.7221 86.2714 12.7221 86.2714 12.7221C86.2713 12.7221 86.2713 12.7221 86.2712 12.7221C86.2712 12.7221 86.2711 12.7221 86.2711 12.7221C86.271 12.7221 86.271 12.7221 86.2709 12.7221C86.2709 12.7221 86.2708 12.7221 86.2708 12.7221C86.2707 12.7221 86.2707 12.7221 86.2706 12.7221C86.2706 12.7221 86.2705 12.7221 86.2705 12.7221C86.2704 12.7221 86.2703 12.7221 86.2703 12.7221C86.2702 12.7221 86.2702 12.7221 86.2701 12.7221C86.2701 12.7221 86.27 12.7221 86.27 12.7221C86.2699 12.7221 86.2699 12.7221 86.2698 12.7221C86.2698 12.7221 86.2697 12.7221 86.2697 12.7221C86.2696 12.7221 86.2696 12.7221 86.2695 12.7221C86.2695 12.7221 86.2694 12.7221 86.2694 12.7221C86.2693 12.7221 86.2693 12.7221 86.2692 12.7221C86.2692 12.7221 86.2691 12.7221 86.2691 12.7221C86.269 12.7221 86.2689 12.7221 86.2689 12.7221C86.2688 12.7221 86.2688 12.7221 86.2687 12.7221C86.2687 12.7221 86.2686 12.7221 86.2686 12.7221C86.2685 12.7221 86.2685 12.7221 86.2684 12.7221C86.2684 12.7221 86.2683 12.7221 86.2683 12.7221C86.2682 12.7221 86.2682 12.7221 86.2681 12.7221C86.2681 12.7221 86.268 12.7221 86.2679 12.7221C86.2679 12.7221 86.2678 12.7221 86.2678 12.7221C86.2677 12.7221 86.2677 12.7221 86.2676 12.7221C86.2676 12.7221 86.2675 12.7221 86.2675 12.7221C86.2674 12.7221 86.2674 12.7221 86.2673 12.7221C86.2673 12.7221 86.2672 12.7221 86.2672 12.7221C86.2671 12.7221 86.267 12.7221 86.267 12.7221C86.2669 12.7221 86.2669 12.7221 86.2668 12.7221C86.2668 12.7221 86.2667 12.7221 86.2667 12.7221C86.2666 12.7221 86.2666 12.7221 86.2665 12.7221C86.2665 12.7221 86.2664 12.7221 86.2663 12.7221C86.2663 12.7221 86.2662 12.7221 86.2662 12.7221C86.2661 12.7221 86.2661 12.7221 86.266 12.7221C86.266 12.7221 86.2659 12.7221 86.2659 12.7221C86.2658 12.7221 86.2658 12.7221 86.2657 12.7221C86.2656 12.7221 86.2656 12.7221 86.2655 12.7221C86.2655 12.7221 86.2654 12.7221 86.2654 12.7221C86.2653 12.7221 86.2653 12.7221 86.2652 12.7221C86.2652 12.7221 86.2651 12.7221 86.265 12.7221C86.265 12.7221 86.2649 12.7221 86.2649 12.7221C86.2648 12.7221 86.2648 12.7221 86.2647 12.7221C86.2647 12.7221 86.2646 12.7221 86.2645 12.7221C86.2645 12.7221 86.2644 12.7221 86.2644 12.7221C86.2643 12.7221 86.2643 12.7221 86.2642 12.7221C86.2642 12.7221 86.2641 12.7221 86.2641 12.7221C86.264 12.7221 86.2639 12.7221 86.2639 12.7221C86.2638 12.7221 86.2638 12.7221 86.2637 12.7221C86.2637 12.7221 86.2636 12.7221 86.2636 12.7221C86.2635 12.7221 86.2634 12.7221 86.2634 12.7221C86.2633 12.7221 86.2633 12.7221 86.2632 12.7221C86.2632 12.7221 86.2631 12.7221 86.2631 12.7221C86.263 12.7221 86.2629 12.7221 86.2629 12.7221C86.2628 12.7221 86.2628 12.7221 86.2627 12.7221C86.2627 12.7221 86.2626 12.7221 86.2626 12.7221C86.2625 12.7221 86.2624 12.7221 86.2624 12.7221C86.2623 12.7221 86.2623 12.7221 86.2622 12.7221C86.2622 12.7221 86.2621 12.7221 86.262 12.7221C86.262 12.7221 86.2619 12.7221 86.2619 12.7221C86.2618 12.7221 86.2618 12.7221 86.2617 12.7221C86.2617 12.7221 86.2616 12.7221 86.2615 12.7221C86.2615 12.7221 86.2614 12.7221 86.2614 12.7221C86.2613 12.7221 86.2613 12.7221 86.2612 12.7221C86.2611 12.7221 86.2611 12.7221 86.261 12.7221C86.261 12.7221 86.2609 12.7221 86.2609 12.7221C86.2608 12.7221 86.2607 12.7221 86.2607 12.7221C86.2606 12.7221 86.2606 12.7221 86.2605 12.7221C86.2605 12.7221 86.2604 12.7221 86.2603 12.7221C86.2603 12.7221 86.2602 12.7221 86.2602 12.7221C86.2601 12.7221 86.2601 12.7221 86.26 12.7221C86.2599 12.7221 86.2599 12.7221 86.2598 12.7221C86.2598 12.7221 86.2597 12.7221 86.2597 12.7221C86.2596 12.7221 86.2595 12.7221 86.2595 12.7221C86.2594 12.7221 86.2594 12.7221 86.2593 12.7221C86.2592 12.7221 86.2592 12.7221 86.2591 12.7221C86.2591 12.7221 86.259 12.7221 86.259 12.7221C86.2589 12.7221 86.2588 12.7221 86.2588 12.7221C86.2587 12.7221 86.2587 12.7221 86.2586 12.7221C86.2586 12.7221 86.2585 12.7221 86.2584 12.7221C86.2584 12.7221 86.2583 12.7221 86.2583 12.7221C86.2582 12.7221 86.2581 12.7221 86.2581 12.7221C86.258 12.7221 86.258 12.7221 86.2579 12.7221C86.2578 12.7221 86.2578 12.7221 86.2577 12.7221C86.2577 12.7221 86.2576 12.7221 86.2576 12.7221C86.2575 12.7221 86.2574 12.7221 86.2574 12.7221C86.2573 12.7221 86.2573 12.7221 86.2572 12.7221C86.2571 12.7221 86.2571 12.7221 86.257 12.7221C86.257 12.7221 86.2569 12.7221 86.2568 12.7221C86.2568 12.7221 86.2567 12.7221 86.2567 12.7221C86.2566 12.7221 86.2566 12.7221 86.2565 12.7221C86.2564 12.7221 86.2564 12.7221 86.2563 12.7221C86.2563 12.7221 86.2562 12.7221 86.2561 12.7221C86.2561 12.7221 86.256 12.7221 86.256 12.7221C86.2559 12.7221 86.2558 12.7221 86.2558 12.7221C86.2557 12.7221 86.2557 12.7221 86.2556 12.7221C86.2555 12.7221 86.2555 12.7221 86.2554 12.7221C86.2554 12.7221 86.2553 12.7221 86.2552 12.7221C86.2552 12.7221 86.2551 12.7221 86.2551 12.7221C86.255 12.7221 86.2549 12.7221 86.2549 12.7221C86.2548 12.7221 86.2548 12.7221 86.2547 12.7221C86.2546 12.7221 86.2546 12.7221 86.2545 12.7221C86.2545 12.7221 86.2544 12.7221 86.2543 12.7221C86.2543 12.7221 86.2542 12.7221 86.2542 12.7221C86.2541 12.7221 86.254 12.7221 86.254 12.7221C86.2539 12.7221 86.2539 12.7221 86.2538 12.7221C86.2537 12.7221 86.2537 12.7221 86.2536 12.7221C86.2535 12.7221 86.2535 12.7221 86.2534 12.7221C86.2534 12.7221 86.2533 12.7221 86.2532 12.7221C86.2532 12.7221 86.2531 12.7221 86.2531 12.7221C86.253 12.7221 86.2529 12.7221 86.2529 12.7221C86.2528 12.7221 86.2528 12.7221 86.2527 12.7221C86.2526 12.7221 86.2526 12.7221 86.2525 12.7221C86.2524 12.7221 86.2524 12.7221 86.2523 12.7221C86.2523 12.7221 86.2522 12.7221 86.2521 12.7221C86.2521 12.7221 86.252 12.7221 86.252 12.7221C86.2519 12.7221 86.2518 12.7221 86.2518 12.7221C86.2517 12.7221 86.2516 12.7221 86.2516 12.7221C86.2515 12.7221 86.2515 12.7221 86.2514 12.7221C86.2513 12.7221 86.2513 12.7221 86.2512 12.7221C86.2511 12.7221 86.2511 12.7221 86.251 12.7221C86.251 12.7221 86.2509 12.7221 86.2508 12.7221C86.2508 12.7221 86.2507 12.7221 86.2506 12.7221C86.2506 12.7221 86.2505 12.7221 86.2505 12.7221C86.2504 12.7221 86.2503 12.7221 86.2503 12.7221C86.2502 12.7221 86.2501 12.7221 86.2501 12.7221C86.25 12.7221 86.25 12.7221 86.2499 12.7221C86.2498 12.7221 86.2498 12.7221 86.2497 12.7221C86.2496 12.7221 86.2496 12.7221 86.2495 12.7221C86.2495 12.7221 86.2494 12.7221 86.2493 12.7221C86.2493 12.7221 86.2492 12.7221 86.2491 12.7221C86.2491 12.7221 86.249 12.7221 86.249 12.7221C86.2489 12.7221 86.2488 12.7221 86.2488 12.7221C86.2487 12.7221 86.2486 12.7221 86.2486 12.7221C86.2485 12.7221 86.2484 12.7221 86.2484 12.7221C86.2483 12.7221 86.2483 12.7221 86.2482 12.7221C86.2481 12.7221 86.2481 12.7221 86.248 12.7221C86.2479 12.7221 86.2479 12.7221 86.2478 12.7221C86.2477 12.7221 86.2477 12.7221 86.2476 12.7221C86.2476 12.7221 86.2475 12.7221 86.2474 12.7221C86.2474 12.7221 86.2473 12.7221 86.2472 12.7221C86.2472 12.7221 86.2471 12.7221 86.247 12.7221C86.247 12.7221 86.2469 12.7221 86.2468 12.7221C86.2468 12.7221 86.2467 12.7221 86.2467 12.7221C86.2466 12.7221 86.2465 12.7221 86.2465 12.7221C86.2464 12.7221 86.2463 12.7221 86.2463 12.7221C86.2462 12.7221 86.2461 12.7221 86.2461 12.7221C86.246 12.7221 86.2459 12.7221 86.2459 12.7221C86.2458 12.7221 86.2458 12.7221 86.2457 12.7221C86.2456 12.7221 86.2456 12.7221 86.2455 12.7221C86.2454 12.7221 86.2454 12.7221 86.2453 12.7221C86.2452 12.7221 86.2452 12.7221 86.2451 12.7221C86.245 12.7221 86.245 12.7221 86.2449 12.7221C86.2448 12.7221 86.2448 12.7221 86.2447 12.7221C86.2446 12.7221 86.2446 12.7221 86.2445 12.7221C86.2445 12.7221 86.2444 12.7221 86.2443 12.7221C86.2443 12.7221 86.2442 12.7221 86.2441 12.7221C86.2441 12.7221 86.244 12.7221 86.2439 12.7221C86.2439 12.7221 86.2438 12.7221 86.2437 12.7221C86.2437 12.7221 86.2436 12.7221 86.2435 12.7221C86.2435 12.7221 86.2434 12.7221 86.2433 12.7221C86.2433 12.7221 86.2432 12.7221 86.2431 12.7221C86.2431 12.7221 86.243 12.7221 86.2429 12.7221C86.2429 12.7221 86.2428 12.7221 86.2427 12.7221C86.2427 12.7221 86.2426 12.7221 86.2425 12.7221C86.2425 12.7221 86.2424 12.7221 86.2423 12.7221C86.2423 12.7221 86.2422 12.7221 86.2421 12.7221C86.2421 12.7221 86.242 12.7221 86.2419 12.7221C86.2419 12.7221 86.2418 12.7221 86.2417 12.7221C86.2417 12.7221 86.2416 12.7221 86.2415 12.7221C86.2415 12.7221 86.2414 12.7221 86.2413 12.7221C86.2413 12.7221 86.2412 12.7221 86.2411 12.7221C86.2411 12.7221 86.241 12.7221 86.2409 12.7221C86.2409 12.7221 86.2408 12.7221 86.2407 12.7221C86.2407 12.7221 86.2406 12.7221 86.2405 12.7221C86.2405 12.7221 86.2404 12.7221 86.2403 12.7221C86.2403 12.7221 86.2402 12.7221 86.2401 12.7221C86.2401 12.7221 86.24 12.7221 86.2399 12.7221C86.2399 12.7221 86.2398 12.7221 86.2397 12.7221C86.2397 12.7221 86.2396 12.7221 86.2395 12.7221C86.2395 12.7221 86.2394 12.7221 86.2393 12.7221C86.2393 12.7221 86.2392 12.7221 86.2391 12.7221C86.239 12.7221 86.239 12.7221 86.2389 12.7221C86.2388 12.7221 86.2388 12.7221 86.2387 12.7221C86.2386 12.7221 86.2386 12.7221 86.2385 12.7221C86.2384 12.7221 86.2384 12.7221 86.2383 12.7221C86.2382 12.7221 86.2382 12.7221 86.2381 12.7221C86.238 12.7221 86.238 12.7221 86.2379 12.7221C86.2378 12.7221 86.2377 12.7221 86.2377 12.7221C86.2376 12.7221 86.2375 12.7221 86.2375 12.7221C86.2374 12.7221 86.2373 12.7221 86.2373 12.7221C86.2372 12.7221 86.2371 12.7221 86.2371 12.7221C86.237 12.7221 86.2369 12.7221 86.2369 12.7221C86.2368 12.7221 86.2367 12.7221 86.2366 12.7221C86.2366 12.7221 86.2365 12.7221 86.2364 12.7221C86.2364 12.7221 86.2363 12.7221 86.2362 12.7221C86.2362 12.7221 86.2361 12.7221 86.236 12.7221C86.236 12.7221 86.2359 12.7221 86.2358 12.7221C86.2357 12.7221 86.2357 12.7221 86.2356 12.7221C86.2355 12.7221 86.2355 12.7221 86.2354 12.7221C86.2353 12.7221 86.2353 12.7221 86.2352 12.7221C86.2351 12.7221 86.2351 12.7221 86.235 12.7221C86.2349 12.7221 86.2348 12.7221 86.2348 12.7221C86.2347 12.7221 86.2346 12.7221 86.2346 12.7221C86.2345 12.7221 86.2344 12.7221 86.2344 12.7221C86.2343 12.7221 86.2342 12.7221 86.2341 12.7221C86.2341 12.7221 86.234 12.7221 86.2339 12.7221C86.2339 12.7221 86.2338 12.7221 86.2337 12.7221C86.2336 12.7221 86.2336 12.7221 86.2335 12.7221C86.2334 12.7221 86.2334 12.7221 86.2333 12.7221C86.2332 12.7221 86.2332 12.7221 86.2331 12.7221C86.233 12.7221 86.2329 12.7221 86.2329 12.7221C86.2328 12.7221 86.2327 12.7221 86.2327 12.7221C86.2326 12.7221 86.2325 12.7221 86.2324 12.7221C86.2324 12.7221 86.2323 12.7221 86.2322 12.7221C86.2322 12.7221 86.2321 12.7221 86.232 12.7221C86.2319 12.7221 86.2319 12.7221 86.2318 12.7221C86.2317 12.7221 86.2317 12.7221 86.2316 12.7221C86.2315 12.7221 86.2315 12.7221 86.2314 12.7221C86.2313 12.7221 86.2312 12.7221 86.2312 12.7221C86.2311 12.7221 86.231 12.7221 86.2309 12.7221C86.2309 12.7221 86.2308 12.7221 86.2307 12.7221C86.2307 12.7221 86.2306 12.7221 86.2305 12.7221C86.2304 12.7221 86.2304 12.7221 86.2303 12.7221C86.2302 12.7221 86.2302 12.7221 86.2301 12.7221C86.23 12.7221 86.2299 12.7221 86.2299 12.7221C86.2298 12.7221 86.2297 12.7221 86.2297 12.7221C86.2296 12.7221 86.2295 12.7221 86.2294 12.7221C86.2294 12.7221 86.2293 12.7221 86.2292 12.7221C86.2291 12.7221 86.2291 12.7221 86.229 12.7221C86.2289 12.7221 86.2289 12.7221 86.2288 12.7221C86.2287 12.7221 86.2286 12.7221 86.2286 12.7221C86.2285 12.7221 86.2284 12.7221 86.2284 12.7221C86.2283 12.7221 86.2282 12.7221 86.2281 12.7221C86.2281 12.7221 86.228 12.7221 86.2279 12.7221C86.2278 12.7221 86.2278 12.7221 86.2277 12.7221C86.2276 12.7221 86.2275 12.7221 86.2275 12.7221C86.2274 12.7221 86.2273 12.7221 86.2273 12.7221C86.2272 12.7221 86.2271 12.7221 86.227 12.7221C86.227 12.7221 86.2269 12.7221 86.2268 12.7221C86.2267 12.7221 86.2267 12.7221 86.2266 12.7221C86.2265 12.7221 86.2264 12.7221 86.2264 12.7221C86.2263 12.7221 86.2262 12.7221 86.2262 12.7221C86.2261 12.7221 86.226 12.7221 86.2259 12.7221C86.2259 12.7221 86.2258 12.7221 86.2257 12.7221C86.2256 12.7221 86.2256 12.7221 86.2255 12.7221C86.2254 12.7221 86.2253 12.7221 86.2253 12.7221C86.2252 12.7221 86.2251 12.7221 86.225 12.7221C86.225 12.7221 86.2249 12.7221 86.2248 12.7221C86.2247 12.7221 86.2247 12.7221 86.2246 12.7221C86.2245 12.7221 86.2244 12.7221 86.2244 12.7221C86.2243 12.7221 86.2242 12.7221 86.2242 12.7221C86.2241 12.7221 86.224 12.7221 86.2239 12.7221C86.2239 12.7221 86.2238 12.7221 86.2237 12.7221C86.2236 12.7221 86.2236 12.7221 86.2235 12.7221C86.2234 12.7221 86.2233 12.7221 86.2233 12.7221C86.2232 12.7221 86.2231 12.7221 86.223 12.7221C86.223 12.7221 86.2229 12.7221 86.2228 12.7221C86.2227 12.7221 86.2227 12.7221 86.2226 12.7221C86.2225 12.7221 86.2224 12.7221 86.2224 12.7221C86.2223 12.7221 86.2222 12.7221 86.2221 12.7221C86.2221 12.7221 86.222 12.7221 86.2219 12.7221C86.2218 12.7221 86.2217 12.7221 86.2217 12.7221C86.2216 12.7221 86.2215 12.7221 86.2214 12.7221C86.2214 12.7221 86.2213 12.7221 86.2212 12.7221C86.2211 12.7221 86.2211 12.7221 86.221 12.7221C86.2209 12.7221 86.2208 12.7221 86.2208 12.7221C86.2207 12.7221 86.2206 12.7221 86.2205 12.7221C86.2205 12.7221 86.2204 12.7221 86.2203 12.7221C86.2202 12.7221 86.2202 12.7221 86.2201 12.7221C86.22 12.7221 86.2199 12.7221 86.2199 12.7221C86.2198 12.7221 86.2197 12.7221 86.2196 12.7221C86.2195 12.7221 86.2195 12.7221 86.2194 12.7221C86.2193 12.7221 86.2192 12.7221 86.2192 12.7221C86.2191 12.7221 86.219 12.7221 86.2189 12.7221C86.2189 12.7221 86.2188 12.7221 86.2187 12.7221C86.2186 12.7221 86.2185 12.7221 86.2185 12.7221C86.2184 12.7221 86.2183 12.7221 86.2182 12.7221C86.2182 12.7221 86.2181 12.7221 86.218 12.7221C86.2179 12.7221 86.2179 12.7221 86.2178 12.7221C86.2177 12.7221 86.2176 12.7221 86.2175 12.7221C86.2175 12.7221 86.2174 12.7221 86.2173 12.7221C86.2172 12.7221 86.2172 12.7221 86.2171 12.7221C86.217 12.7221 86.2169 12.7221 86.2168 12.7221C86.2168 12.7221 86.2167 12.7221 86.2166 12.7221C86.2165 12.7221 86.2165 12.7221 86.2164 12.7221C86.2163 12.7221 86.2162 12.7221 86.2162 12.7221C86.2161 12.7221 86.216 12.7221 86.2159 12.7221C86.2158 12.7221 86.2158 12.7221 86.2157 12.7221C86.2156 12.7221 86.2155 12.7221 86.2154 12.7221C86.2154 12.7221 86.2153 12.7221 86.2152 12.7221C86.2151 12.7221 86.2151 12.7221 86.215 12.7221C86.2149 12.7221 86.2148 12.7221 86.2147 12.7221C86.2147 12.7221 86.2146 12.7221 86.2145 12.7221C86.2144 12.7221 86.2144 12.7221 86.2143 12.7221C86.2142 12.7221 86.2141 12.7221 86.214 12.7221C86.214 12.7221 86.2139 12.7221 86.2138 12.7221C86.2137 12.7221 86.2136 12.7221 86.2136 12.7221C86.2135 12.7221 86.2134 12.7221 86.2133 12.7221C86.2132 12.7221 86.2132 12.7221 86.2131 12.7221C86.213 12.7221 86.2129 12.7221 86.2129 12.7221C86.2128 12.7221 86.2127 12.7221 86.2126 12.7221C86.2125 12.7221 86.2125 12.7221 86.2124 12.7221C86.2123 12.7221 86.2122 12.7221 86.2121 12.7221C86.2121 12.7221 86.212 12.7221 86.2119 12.7221C86.2118 12.7221 86.2117 12.7221 86.2117 12.7221C86.2116 12.7221 86.2115 12.7221 86.2114 12.7221C86.2113 12.7221 86.2113 12.7221 86.2112 12.7221C86.2111 12.7221 86.211 12.7221 86.2109 12.7221C86.2109 12.7221 86.2108 12.7221 86.2107 12.7221C86.2106 12.7221 86.2105 12.7221 86.2105 12.7221C86.2104 12.7221 86.2103 12.7221 86.2102 12.7221C86.2101 12.7221 86.2101 12.7221 86.21 12.7221C86.2099 12.7221 86.2098 12.7221 86.2097 12.7221C86.2097 12.7221 86.2096 12.7221 86.2095 12.7221C86.2094 12.7221 86.2093 12.7221 86.2093 12.7221C86.2092 12.7221 86.2091 12.7221 86.209 12.7221C86.2089 12.7221 86.2089 12.7221 86.2088 12.7221C86.2087 12.7221 86.2086 12.7221 86.2085 12.7221C86.2084 12.7221 86.2084 12.7221 86.2083 12.7221C86.2082 12.7221 86.2081 12.7221 86.208 12.7221C86.208 12.7221 86.2079 12.7221 86.2078 12.7221C86.2077 12.7221 86.2076 12.7221 86.2076 12.7221C86.2075 12.7221 86.2074 12.7221 86.2073 12.7221C86.2072 12.7221 86.2072 12.7221 86.2071 12.7221C86.207 12.7221 86.2069 12.7221 86.2068 12.7221C86.2067 12.7221 86.2067 12.7221 86.2066 12.7221C86.2065 12.7221 86.2064 12.7221 86.2063 12.7221C86.2063 12.7221 86.2062 12.7221 86.2061 12.7221C86.206 12.7221 86.2059 12.7221 86.2058 12.7221C86.2058 12.7221 86.2057 12.7221 86.2056 12.7221C86.2055 12.7221 86.2054 12.7221 86.2054 12.7221C86.2053 12.7221 86.2052 12.7221 86.2051 12.7221C86.205 12.7221 86.2049 12.7221 86.2049 12.7221C86.2048 12.7221 86.2047 12.7221 86.2046 12.7221C86.2045 12.7221 86.2044 12.7221 86.2044 12.7221C86.2043 12.7221 86.2042 12.7221 86.2041 12.7221C86.204 12.7221 86.204 12.7221 86.2039 12.7221C86.2038 12.7221 86.2037 12.7221 86.2036 12.7221C86.2035 12.7221 86.2035 12.7221 86.2034 12.7221C86.2033 12.7221 86.2032 12.7221 86.2031 12.7221C86.203 12.7221 86.203 12.7221 86.2029 12.7221C86.2028 12.7221 86.2027 12.7221 86.2026 12.7221C86.2025 12.7221 86.2025 12.7221 86.2024 12.7221C86.2023 12.7221 86.2022 12.7221 86.2021 12.7221C86.202 12.7221 86.202 12.7221 86.2019 12.7221C86.2018 12.7221 86.2017 12.7221 86.2016 12.7221C86.2015 12.7221 86.2015 12.7221 86.2014 12.7221C86.2013 12.7221 86.2012 12.7221 86.2011 12.7221C86.201 12.7221 86.201 12.7221 86.2009 12.7221C86.2008 12.7221 86.2007 12.7221 86.2006 12.7221C86.2005 12.7221 86.2005 12.7221 86.2004 12.7221C86.2003 12.7221 86.2002 12.7221 86.2001 12.7221C86.2 12.7221 86.1999 12.7221 86.1999 12.7221C86.1998 12.7221 86.1997 12.7221 86.1996 12.7221C86.1995 12.7221 86.1994 12.7221 86.1994 12.7221C86.1993 12.7221 86.1992 12.7221 86.1991 12.7221C86.199 12.7221 86.1989 12.7221 86.1989 12.7221C86.1988 12.7221 86.1987 12.7221 86.1986 12.7221C86.1985 12.7221 86.1984 12.7221 86.1983 12.7221C86.1983 12.7221 86.1982 12.7221 86.1981 12.7221C86.198 12.7221 86.1979 12.7221 86.1978 12.7221C86.1978 12.7221 86.1977 12.7221 86.1976 12.7221C86.1975 12.7221 86.1974 12.7221 86.1973 12.7221C86.1972 12.7221 86.1972 12.7221 86.1971 12.7221C86.197 12.7221 86.1969 12.7221 86.1968 12.7221C86.1967 12.7221 86.1966 12.7221 86.1966 12.7221C86.1965 12.7221 86.1964 12.7221 86.1963 12.7221C86.1962 12.7221 86.1961 12.7221 86.196 12.7221C86.196 12.7221 86.1959 12.7221 86.1958 12.7221C86.1957 12.7221 86.1956 12.7221 86.1955 12.7221C86.1954 12.7221 86.1954 12.7221 86.1953 12.7221C86.1952 12.7221 86.1951 12.7221 86.195 12.7221C86.1949 12.7221 86.1948 12.7221 86.1948 12.7221C86.1947 12.7221 86.1946 12.7221 86.1945 12.7221C86.1944 12.7221 86.1943 12.7221 86.1942 12.7221C86.1942 12.7221 86.1941 12.7221 86.194 12.7221C86.1939 12.7221 86.1938 12.7221 86.1937 12.7221C86.1936 12.7221 86.1935 12.7221 86.1935 12.7221C86.1934 12.7221 86.1933 12.7221 86.1932 12.7221C86.1931 12.7221 86.193 12.7221 86.1929 12.7221C86.1929 12.7221 86.1928 12.7221 86.1927 12.7221C86.1926 12.7221 86.1925 12.7221 86.1924 12.7221C86.1923 12.7221 86.1922 12.7221 86.1922 12.7221C86.1921 12.7221 86.192 12.7221 86.1919 12.7221C86.1918 12.7221 86.1917 12.7221 86.1916 12.7221C86.1916 12.7221 86.1915 12.7221 86.1914 12.7221C86.1913 12.7221 86.1912 12.7221 86.1911 12.7221C86.191 12.7221 86.1909 12.7221 86.1909 12.7221C86.1908 12.7221 86.1907 12.7221 86.1906 12.7221C86.1905 12.7221 86.1904 12.7221 86.1903 12.7221C86.1902 12.7221 86.1902 12.7221 86.1901 12.7221C86.19 12.7221 86.1899 12.7221 86.1898 12.7221C86.1897 12.7221 86.1896 12.7221 86.1895 12.7221C86.1894 12.7221 86.1894 12.7221 86.1893 12.7221C86.1892 12.7221 86.1891 12.7221 86.189 12.7221C86.1889 12.7221 86.1888 12.7221 86.1887 12.7221C86.1887 12.7221 86.1886 12.7221 86.1885 12.7221C86.1884 12.7221 86.1883 12.7221 86.1882 12.7221C86.1881 12.7221 86.188 12.7221 86.1879 12.7221C86.1879 12.7221 86.1878 12.7221 86.1877 12.7221C86.1876 12.7221 86.1875 12.7221 86.1874 12.7221C86.1873 12.7221 86.1872 12.7221 86.1872 12.7221C86.1871 12.7221 86.187 12.7221 86.1869 12.7221C86.1868 12.7221 86.1867 12.7221 86.1866 12.7221C86.1865 12.7221 86.1864 12.7221 86.1863 12.7221C86.1863 12.7221 86.1862 12.7221 86.1861 12.7221C86.186 12.7221 86.1859 12.7221 86.1858 12.7221C86.1857 12.7221 86.1856 12.7221 86.1855 12.7221C86.1855 12.7221 86.1854 12.7221 86.1853 12.7221C86.1852 12.7221 86.1851 12.7221 86.185 12.7221C86.1849 12.7221 86.1848 12.7221 86.1847 12.7221C86.1847 12.7221 86.1846 12.7221 86.1845 12.7221C86.1844 12.7221 86.1843 12.7221 86.1842 12.7221C86.1841 12.7221 86.184 12.7221 86.1839 12.7221C86.1838 12.7221 86.1838 12.7221 86.1837 12.7221C86.1836 12.7221 86.1835 12.7221 86.1834 12.7221C86.1833 12.7221 86.1832 12.7221 86.1831 12.7221C86.183 12.7221 86.1829 12.7221 86.1829 12.7221C86.1828 12.7221 86.1827 12.7221 86.1826 12.7221C86.1825 12.7221 86.1824 12.7221 86.1823 12.7221C86.1822 12.7221 86.1821 12.7221 86.182 12.7221C86.1819 12.7221 86.1819 12.7221 86.1818 12.7221C86.1817 12.7221 86.1816 12.7221 86.1815 12.7221C86.1814 12.7221 86.1813 12.7221 86.1812 12.7221C86.1811 12.7221 86.181 12.7221 86.1809 12.7221C86.1809 12.7221 86.1808 12.7221 86.1807 12.7221C86.1806 12.7221 86.1805 12.7221 86.1804 12.7221C86.1803 12.7221 86.1802 12.7221 86.1801 12.7221C86.18 12.7221 86.1799 12.7221 86.1799 12.7221C86.1798 12.7221 86.1797 12.7221 86.1796 12.7221C86.1795 12.7221 86.1794 12.7221 86.1793 12.7221C86.1792 12.7221 86.1791 12.7221 86.179 12.7221C86.1789 12.7221 86.1788 12.7221 86.1788 12.7221C86.1787 12.7221 86.1786 12.7221 86.1785 12.7221C86.1784 12.7221 86.1783 12.7221 86.1782 12.7221C86.1781 12.7221 86.178 12.7221 86.1779 12.7221C86.1778 12.7221 86.1777 12.7221 86.1777 12.7221C86.1776 12.7221 86.1775 12.7221 86.1774 12.7221C86.1773 12.7221 86.1772 12.7221 86.1771 12.7221C86.177 12.7221 86.1769 12.7221 86.1768 12.7221C86.1767 12.7221 86.1766 12.7221 86.1765 12.7221C86.1765 12.7221 86.1764 12.7221 86.1763 12.7221C86.1762 12.7221 86.1761 12.7221 86.176 12.7221C86.1759 12.7221 86.1758 12.7221 86.1757 12.7221C86.1756 12.7221 86.1755 12.7221 86.1754 12.7221C86.1753 12.7221 86.1752 12.7221 86.1752 12.7221C86.1751 12.7221 86.175 12.7221 86.1749 12.7221C86.1748 12.7221 86.1747 12.7221 86.1746 12.7221C86.1745 12.7221 86.1744 12.7221 86.1743 12.7221C86.1742 12.7221 86.1741 12.7221 86.174 12.7221C86.1739 12.7221 86.1738 12.7221 86.1738 12.7221C86.1737 12.7221 86.1736 12.7221 86.1735 12.7221C86.1734 12.7221 86.1733 12.7221 86.1732 12.7221C86.1731 12.7221 86.173 12.7221 86.1729 12.7221C86.1728 12.7221 86.1727 12.7221 86.1726 12.7221C86.1725 12.7221 86.1724 12.7221 86.1724 12.7221C86.1723 12.7221 86.1722 12.7221 86.1721 12.7221C86.172 12.7221 86.1719 12.7221 86.1718 12.7221C86.1717 12.7221 86.1716 12.7221 86.1715 12.7221C86.1714 12.7221 86.1713 12.7221 86.1712 12.7221C86.1711 12.7221 86.171 12.7221 86.1709 12.7221C86.1708 12.7221 86.1708 12.7221 86.1707 12.7221C86.1706 12.7221 86.1705 12.7221 86.1704 12.7221C86.1703 12.7221 86.1702 12.7221 86.1701 12.7221C86.17 12.7221 86.1699 12.7221 86.1698 12.7221C86.1697 12.7221 86.1696 12.7221 86.1695 12.7221C86.1694 12.7221 86.1693 12.7221 86.1692 12.7221C86.1691 12.7221 86.169 12.7221 86.169 12.7221C86.1689 12.7221 86.1688 12.7221 86.1687 12.7221C86.1686 12.7221 86.1685 12.7221 86.1684 12.7221C86.1683 12.7221 86.1682 12.7221 86.1681 12.7221C86.168 12.7221 86.1679 12.7221 86.1678 12.7221C86.1677 12.7221 86.1676 12.7221 86.1675 12.7221C86.1674 12.7221 86.1673 12.7221 86.1672 12.7221C86.1671 12.7221 86.167 12.7221 86.1669 12.7221C86.1669 12.7221 86.1668 12.7221 86.1667 12.7221C86.1666 12.7221 86.1665 12.7221 86.1664 12.7221C86.1663 12.7221 86.1662 12.7221 86.1661 12.7221C86.166 12.7221 86.1659 12.7221 86.1658 12.7221C86.1657 12.7221 86.1656 12.7221 86.1655 12.7221C86.1654 12.7221 86.1653 12.7221 86.1652 12.7221C86.1651 12.7221 86.165 12.7221 86.1649 12.7221C86.1648 12.7221 86.1647 12.7221 86.1646 12.7221C86.1645 12.7221 86.1644 12.7221 86.1644 12.7221C86.1643 12.7221 86.1642 12.7221 86.1641 12.7221V13.5221C86.1642 13.5221 86.1643 13.5221 86.1644 13.5221C86.1644 13.5221 86.1645 13.5221 86.1646 13.5221C86.1647 13.5221 86.1648 13.5221 86.1649 13.5221C86.165 13.5221 86.1651 13.5221 86.1652 13.5221C86.1653 13.5221 86.1654 13.5221 86.1655 13.5221C86.1656 13.5221 86.1657 13.5221 86.1658 13.5221C86.1659 13.5221 86.166 13.5221 86.1661 13.5221C86.1662 13.5221 86.1663 13.5221 86.1664 13.5221C86.1665 13.5221 86.1666 13.5221 86.1667 13.5221C86.1668 13.5221 86.1669 13.5221 86.1669 13.5221C86.167 13.5221 86.1671 13.5221 86.1672 13.5221C86.1673 13.5221 86.1674 13.5221 86.1675 13.5221C86.1676 13.5221 86.1677 13.5221 86.1678 13.5221C86.1679 13.5221 86.168 13.5221 86.1681 13.5221C86.1682 13.5221 86.1683 13.5221 86.1684 13.5221C86.1685 13.5221 86.1686 13.5221 86.1687 13.5221C86.1688 13.5221 86.1689 13.5221 86.169 13.5221C86.169 13.5221 86.1691 13.5221 86.1692 13.5221C86.1693 13.5221 86.1694 13.5221 86.1695 13.5221C86.1696 13.5221 86.1697 13.5221 86.1698 13.5221C86.1699 13.5221 86.17 13.5221 86.1701 13.5221C86.1702 13.5221 86.1703 13.5221 86.1704 13.5221C86.1705 13.5221 86.1706 13.5221 86.1707 13.5221C86.1708 13.5221 86.1708 13.5221 86.1709 13.5221C86.171 13.5221 86.1711 13.5221 86.1712 13.5221C86.1713 13.5221 86.1714 13.5221 86.1715 13.5221C86.1716 13.5221 86.1717 13.5221 86.1718 13.5221C86.1719 13.5221 86.172 13.5221 86.1721 13.5221C86.1722 13.5221 86.1723 13.5221 86.1724 13.5221C86.1724 13.5221 86.1725 13.5221 86.1726 13.5221C86.1727 13.5221 86.1728 13.5221 86.1729 13.5221C86.173 13.5221 86.1731 13.5221 86.1732 13.5221C86.1733 13.5221 86.1734 13.5221 86.1735 13.5221C86.1736 13.5221 86.1737 13.5221 86.1738 13.5221C86.1738 13.5221 86.1739 13.5221 86.174 13.5221C86.1741 13.5221 86.1742 13.5221 86.1743 13.5221C86.1744 13.5221 86.1745 13.5221 86.1746 13.5221C86.1747 13.5221 86.1748 13.5221 86.1749 13.5221C86.175 13.5221 86.1751 13.5221 86.1752 13.5221C86.1752 13.5221 86.1753 13.5221 86.1754 13.5221C86.1755 13.5221 86.1756 13.5221 86.1757 13.5221C86.1758 13.5221 86.1759 13.5221 86.176 13.5221C86.1761 13.5221 86.1762 13.5221 86.1763 13.5221C86.1764 13.5221 86.1765 13.5221 86.1765 13.5221C86.1766 13.5221 86.1767 13.5221 86.1768 13.5221C86.1769 13.5221 86.177 13.5221 86.1771 13.5221C86.1772 13.5221 86.1773 13.5221 86.1774 13.5221C86.1775 13.5221 86.1776 13.5221 86.1777 13.5221C86.1777 13.5221 86.1778 13.5221 86.1779 13.5221C86.178 13.5221 86.1781 13.5221 86.1782 13.5221C86.1783 13.5221 86.1784 13.5221 86.1785 13.5221C86.1786 13.5221 86.1787 13.5221 86.1788 13.5221C86.1788 13.5221 86.1789 13.5221 86.179 13.5221C86.1791 13.5221 86.1792 13.5221 86.1793 13.5221C86.1794 13.5221 86.1795 13.5221 86.1796 13.5221C86.1797 13.5221 86.1798 13.5221 86.1799 13.5221C86.1799 13.5221 86.18 13.5221 86.1801 13.5221C86.1802 13.5221 86.1803 13.5221 86.1804 13.5221C86.1805 13.5221 86.1806 13.5221 86.1807 13.5221C86.1808 13.5221 86.1809 13.5221 86.1809 13.5221C86.181 13.5221 86.1811 13.5221 86.1812 13.5221C86.1813 13.5221 86.1814 13.5221 86.1815 13.5221C86.1816 13.5221 86.1817 13.5221 86.1818 13.5221C86.1819 13.5221 86.1819 13.5221 86.182 13.5221C86.1821 13.5221 86.1822 13.5221 86.1823 13.5221C86.1824 13.5221 86.1825 13.5221 86.1826 13.5221C86.1827 13.5221 86.1828 13.5221 86.1829 13.5221C86.1829 13.5221 86.183 13.5221 86.1831 13.5221C86.1832 13.5221 86.1833 13.5221 86.1834 13.5221C86.1835 13.5221 86.1836 13.5221 86.1837 13.5221C86.1838 13.5221 86.1838 13.5221 86.1839 13.5221C86.184 13.5221 86.1841 13.5221 86.1842 13.5221C86.1843 13.5221 86.1844 13.5221 86.1845 13.5221C86.1846 13.5221 86.1847 13.5221 86.1847 13.5221C86.1848 13.5221 86.1849 13.5221 86.185 13.5221C86.1851 13.5221 86.1852 13.5221 86.1853 13.5221C86.1854 13.5221 86.1855 13.5221 86.1855 13.5221C86.1856 13.5221 86.1857 13.5221 86.1858 13.5221C86.1859 13.5221 86.186 13.5221 86.1861 13.5221C86.1862 13.5221 86.1863 13.5221 86.1863 13.5221C86.1864 13.5221 86.1865 13.5221 86.1866 13.5221C86.1867 13.5221 86.1868 13.5221 86.1869 13.5221C86.187 13.5221 86.1871 13.5221 86.1872 13.5221C86.1872 13.5221 86.1873 13.5221 86.1874 13.5221C86.1875 13.5221 86.1876 13.5221 86.1877 13.5221C86.1878 13.5221 86.1879 13.5221 86.1879 13.5221C86.188 13.5221 86.1881 13.5221 86.1882 13.5221C86.1883 13.5221 86.1884 13.5221 86.1885 13.5221C86.1886 13.5221 86.1887 13.5221 86.1887 13.5221C86.1888 13.5221 86.1889 13.5221 86.189 13.5221C86.1891 13.5221 86.1892 13.5221 86.1893 13.5221C86.1894 13.5221 86.1894 13.5221 86.1895 13.5221C86.1896 13.5221 86.1897 13.5221 86.1898 13.5221C86.1899 13.5221 86.19 13.5221 86.1901 13.5221C86.1902 13.5221 86.1902 13.5221 86.1903 13.5221C86.1904 13.5221 86.1905 13.5221 86.1906 13.5221C86.1907 13.5221 86.1908 13.5221 86.1909 13.5221C86.1909 13.5221 86.191 13.5221 86.1911 13.5221C86.1912 13.5221 86.1913 13.5221 86.1914 13.5221C86.1915 13.5221 86.1916 13.5221 86.1916 13.5221C86.1917 13.5221 86.1918 13.5221 86.1919 13.5221C86.192 13.5221 86.1921 13.5221 86.1922 13.5221C86.1922 13.5221 86.1923 13.5221 86.1924 13.5221C86.1925 13.5221 86.1926 13.5221 86.1927 13.5221C86.1928 13.5221 86.1929 13.5221 86.1929 13.5221C86.193 13.5221 86.1931 13.5221 86.1932 13.5221C86.1933 13.5221 86.1934 13.5221 86.1935 13.5221C86.1935 13.5221 86.1936 13.5221 86.1937 13.5221C86.1938 13.5221 86.1939 13.5221 86.194 13.5221C86.1941 13.5221 86.1942 13.5221 86.1942 13.5221C86.1943 13.5221 86.1944 13.5221 86.1945 13.5221C86.1946 13.5221 86.1947 13.5221 86.1948 13.5221C86.1948 13.5221 86.1949 13.5221 86.195 13.5221C86.1951 13.5221 86.1952 13.5221 86.1953 13.5221C86.1954 13.5221 86.1954 13.5221 86.1955 13.5221C86.1956 13.5221 86.1957 13.5221 86.1958 13.5221C86.1959 13.5221 86.196 13.5221 86.196 13.5221C86.1961 13.5221 86.1962 13.5221 86.1963 13.5221C86.1964 13.5221 86.1965 13.5221 86.1966 13.5221C86.1966 13.5221 86.1967 13.5221 86.1968 13.5221C86.1969 13.5221 86.197 13.5221 86.1971 13.5221C86.1972 13.5221 86.1972 13.5221 86.1973 13.5221C86.1974 13.5221 86.1975 13.5221 86.1976 13.5221C86.1977 13.5221 86.1978 13.5221 86.1978 13.5221C86.1979 13.5221 86.198 13.5221 86.1981 13.5221C86.1982 13.5221 86.1983 13.5221 86.1983 13.5221C86.1984 13.5221 86.1985 13.5221 86.1986 13.5221C86.1987 13.5221 86.1988 13.5221 86.1989 13.5221C86.1989 13.5221 86.199 13.5221 86.1991 13.5221C86.1992 13.5221 86.1993 13.5221 86.1994 13.5221C86.1994 13.5221 86.1995 13.5221 86.1996 13.5221C86.1997 13.5221 86.1998 13.5221 86.1999 13.5221C86.1999 13.5221 86.2 13.5221 86.2001 13.5221C86.2002 13.5221 86.2003 13.5221 86.2004 13.5221C86.2005 13.5221 86.2005 13.5221 86.2006 13.5221C86.2007 13.5221 86.2008 13.5221 86.2009 13.5221C86.201 13.5221 86.201 13.5221 86.2011 13.5221C86.2012 13.5221 86.2013 13.5221 86.2014 13.5221C86.2015 13.5221 86.2015 13.5221 86.2016 13.5221C86.2017 13.5221 86.2018 13.5221 86.2019 13.5221C86.202 13.5221 86.202 13.5221 86.2021 13.5221C86.2022 13.5221 86.2023 13.5221 86.2024 13.5221C86.2025 13.5221 86.2025 13.5221 86.2026 13.5221C86.2027 13.5221 86.2028 13.5221 86.2029 13.5221C86.203 13.5221 86.203 13.5221 86.2031 13.5221C86.2032 13.5221 86.2033 13.5221 86.2034 13.5221C86.2035 13.5221 86.2035 13.5221 86.2036 13.5221C86.2037 13.5221 86.2038 13.5221 86.2039 13.5221C86.204 13.5221 86.204 13.5221 86.2041 13.5221C86.2042 13.5221 86.2043 13.5221 86.2044 13.5221C86.2044 13.5221 86.2045 13.5221 86.2046 13.5221C86.2047 13.5221 86.2048 13.5221 86.2049 13.5221C86.2049 13.5221 86.205 13.5221 86.2051 13.5221C86.2052 13.5221 86.2053 13.5221 86.2054 13.5221C86.2054 13.5221 86.2055 13.5221 86.2056 13.5221C86.2057 13.5221 86.2058 13.5221 86.2058 13.5221C86.2059 13.5221 86.206 13.5221 86.2061 13.5221C86.2062 13.5221 86.2063 13.5221 86.2063 13.5221C86.2064 13.5221 86.2065 13.5221 86.2066 13.5221C86.2067 13.5221 86.2067 13.5221 86.2068 13.5221C86.2069 13.5221 86.207 13.5221 86.2071 13.5221C86.2072 13.5221 86.2072 13.5221 86.2073 13.5221C86.2074 13.5221 86.2075 13.5221 86.2076 13.5221C86.2076 13.5221 86.2077 13.5221 86.2078 13.5221C86.2079 13.5221 86.208 13.5221 86.208 13.5221C86.2081 13.5221 86.2082 13.5221 86.2083 13.5221C86.2084 13.5221 86.2084 13.5221 86.2085 13.5221C86.2086 13.5221 86.2087 13.5221 86.2088 13.5221C86.2089 13.5221 86.2089 13.5221 86.209 13.5221C86.2091 13.5221 86.2092 13.5221 86.2093 13.5221C86.2093 13.5221 86.2094 13.5221 86.2095 13.5221C86.2096 13.5221 86.2097 13.5221 86.2097 13.5221C86.2098 13.5221 86.2099 13.5221 86.21 13.5221C86.2101 13.5221 86.2101 13.5221 86.2102 13.5221C86.2103 13.5221 86.2104 13.5221 86.2105 13.5221C86.2105 13.5221 86.2106 13.5221 86.2107 13.5221C86.2108 13.5221 86.2109 13.5221 86.2109 13.5221C86.211 13.5221 86.2111 13.5221 86.2112 13.5221C86.2113 13.5221 86.2113 13.5221 86.2114 13.5221C86.2115 13.5221 86.2116 13.5221 86.2117 13.5221C86.2117 13.5221 86.2118 13.5221 86.2119 13.5221C86.212 13.5221 86.2121 13.5221 86.2121 13.5221C86.2122 13.5221 86.2123 13.5221 86.2124 13.5221C86.2125 13.5221 86.2125 13.5221 86.2126 13.5221C86.2127 13.5221 86.2128 13.5221 86.2129 13.5221C86.2129 13.5221 86.213 13.5221 86.2131 13.5221C86.2132 13.5221 86.2132 13.5221 86.2133 13.5221C86.2134 13.5221 86.2135 13.5221 86.2136 13.5221C86.2136 13.5221 86.2137 13.5221 86.2138 13.5221C86.2139 13.5221 86.214 13.5221 86.214 13.5221C86.2141 13.5221 86.2142 13.5221 86.2143 13.5221C86.2144 13.5221 86.2144 13.5221 86.2145 13.5221C86.2146 13.5221 86.2147 13.5221 86.2147 13.5221C86.2148 13.5221 86.2149 13.5221 86.215 13.5221C86.2151 13.5221 86.2151 13.5221 86.2152 13.5221C86.2153 13.5221 86.2154 13.5221 86.2154 13.5221C86.2155 13.5221 86.2156 13.5221 86.2157 13.5221C86.2158 13.5221 86.2158 13.5221 86.2159 13.5221C86.216 13.5221 86.2161 13.5221 86.2162 13.5221C86.2162 13.5221 86.2163 13.5221 86.2164 13.5221C86.2165 13.5221 86.2165 13.5221 86.2166 13.5221C86.2167 13.5221 86.2168 13.5221 86.2168 13.5221C86.2169 13.5221 86.217 13.5221 86.2171 13.5221C86.2172 13.5221 86.2172 13.5221 86.2173 13.5221C86.2174 13.5221 86.2175 13.5221 86.2175 13.5221C86.2176 13.5221 86.2177 13.5221 86.2178 13.5221C86.2179 13.5221 86.2179 13.5221 86.218 13.5221C86.2181 13.5221 86.2182 13.5221 86.2182 13.5221C86.2183 13.5221 86.2184 13.5221 86.2185 13.5221C86.2185 13.5221 86.2186 13.5221 86.2187 13.5221C86.2188 13.5221 86.2189 13.5221 86.2189 13.5221C86.219 13.5221 86.2191 13.5221 86.2192 13.5221C86.2192 13.5221 86.2193 13.5221 86.2194 13.5221C86.2195 13.5221 86.2195 13.5221 86.2196 13.5221C86.2197 13.5221 86.2198 13.5221 86.2199 13.5221C86.2199 13.5221 86.22 13.5221 86.2201 13.5221C86.2202 13.5221 86.2202 13.5221 86.2203 13.5221C86.2204 13.5221 86.2205 13.5221 86.2205 13.5221C86.2206 13.5221 86.2207 13.5221 86.2208 13.5221C86.2208 13.5221 86.2209 13.5221 86.221 13.5221C86.2211 13.5221 86.2211 13.5221 86.2212 13.5221C86.2213 13.5221 86.2214 13.5221 86.2214 13.5221C86.2215 13.5221 86.2216 13.5221 86.2217 13.5221C86.2217 13.5221 86.2218 13.5221 86.2219 13.5221C86.222 13.5221 86.2221 13.5221 86.2221 13.5221C86.2222 13.5221 86.2223 13.5221 86.2224 13.5221C86.2224 13.5221 86.2225 13.5221 86.2226 13.5221C86.2227 13.5221 86.2227 13.5221 86.2228 13.5221C86.2229 13.5221 86.223 13.5221 86.223 13.5221C86.2231 13.5221 86.2232 13.5221 86.2233 13.5221C86.2233 13.5221 86.2234 13.5221 86.2235 13.5221C86.2236 13.5221 86.2236 13.5221 86.2237 13.5221C86.2238 13.5221 86.2239 13.5221 86.2239 13.5221C86.224 13.5221 86.2241 13.5221 86.2242 13.5221C86.2242 13.5221 86.2243 13.5221 86.2244 13.5221C86.2244 13.5221 86.2245 13.5221 86.2246 13.5221C86.2247 13.5221 86.2247 13.5221 86.2248 13.5221C86.2249 13.5221 86.225 13.5221 86.225 13.5221C86.2251 13.5221 86.2252 13.5221 86.2253 13.5221C86.2253 13.5221 86.2254 13.5221 86.2255 13.5221C86.2256 13.5221 86.2256 13.5221 86.2257 13.5221C86.2258 13.5221 86.2259 13.5221 86.2259 13.5221C86.226 13.5221 86.2261 13.5221 86.2262 13.5221C86.2262 13.5221 86.2263 13.5221 86.2264 13.5221C86.2264 13.5221 86.2265 13.5221 86.2266 13.5221C86.2267 13.5221 86.2267 13.5221 86.2268 13.5221C86.2269 13.5221 86.227 13.5221 86.227 13.5221C86.2271 13.5221 86.2272 13.5221 86.2273 13.5221C86.2273 13.5221 86.2274 13.5221 86.2275 13.5221C86.2275 13.5221 86.2276 13.5221 86.2277 13.5221C86.2278 13.5221 86.2278 13.5221 86.2279 13.5221C86.228 13.5221 86.2281 13.5221 86.2281 13.5221C86.2282 13.5221 86.2283 13.5221 86.2284 13.5221C86.2284 13.5221 86.2285 13.5221 86.2286 13.5221C86.2286 13.5221 86.2287 13.5221 86.2288 13.5221C86.2289 13.5221 86.2289 13.5221 86.229 13.5221C86.2291 13.5221 86.2291 13.5221 86.2292 13.5221C86.2293 13.5221 86.2294 13.5221 86.2294 13.5221C86.2295 13.5221 86.2296 13.5221 86.2297 13.5221C86.2297 13.5221 86.2298 13.5221 86.2299 13.5221C86.2299 13.5221 86.23 13.5221 86.2301 13.5221C86.2302 13.5221 86.2302 13.5221 86.2303 13.5221C86.2304 13.5221 86.2304 13.5221 86.2305 13.5221C86.2306 13.5221 86.2307 13.5221 86.2307 13.5221C86.2308 13.5221 86.2309 13.5221 86.2309 13.5221C86.231 13.5221 86.2311 13.5221 86.2312 13.5221C86.2312 13.5221 86.2313 13.5221 86.2314 13.5221C86.2315 13.5221 86.2315 13.5221 86.2316 13.5221C86.2317 13.5221 86.2317 13.5221 86.2318 13.5221C86.2319 13.5221 86.2319 13.5221 86.232 13.5221C86.2321 13.5221 86.2322 13.5221 86.2322 13.5221C86.2323 13.5221 86.2324 13.5221 86.2324 13.5221C86.2325 13.5221 86.2326 13.5221 86.2327 13.5221C86.2327 13.5221 86.2328 13.5221 86.2329 13.5221C86.2329 13.5221 86.233 13.5221 86.2331 13.5221C86.2332 13.5221 86.2332 13.5221 86.2333 13.5221C86.2334 13.5221 86.2334 13.5221 86.2335 13.5221C86.2336 13.5221 86.2336 13.5221 86.2337 13.5221C86.2338 13.5221 86.2339 13.5221 86.2339 13.5221C86.234 13.5221 86.2341 13.5221 86.2341 13.5221C86.2342 13.5221 86.2343 13.5221 86.2344 13.5221C86.2344 13.5221 86.2345 13.5221 86.2346 13.5221C86.2346 13.5221 86.2347 13.5221 86.2348 13.5221C86.2348 13.5221 86.2349 13.5221 86.235 13.5221C86.2351 13.5221 86.2351 13.5221 86.2352 13.5221C86.2353 13.5221 86.2353 13.5221 86.2354 13.5221C86.2355 13.5221 86.2355 13.5221 86.2356 13.5221C86.2357 13.5221 86.2357 13.5221 86.2358 13.5221C86.2359 13.5221 86.236 13.5221 86.236 13.5221C86.2361 13.5221 86.2362 13.5221 86.2362 13.5221C86.2363 13.5221 86.2364 13.5221 86.2364 13.5221C86.2365 13.5221 86.2366 13.5221 86.2366 13.5221C86.2367 13.5221 86.2368 13.5221 86.2369 13.5221C86.2369 13.5221 86.237 13.5221 86.2371 13.5221C86.2371 13.5221 86.2372 13.5221 86.2373 13.5221C86.2373 13.5221 86.2374 13.5221 86.2375 13.5221C86.2375 13.5221 86.2376 13.5221 86.2377 13.5221C86.2377 13.5221 86.2378 13.5221 86.2379 13.5221C86.238 13.5221 86.238 13.5221 86.2381 13.5221C86.2382 13.5221 86.2382 13.5221 86.2383 13.5221C86.2384 13.5221 86.2384 13.5221 86.2385 13.5221C86.2386 13.5221 86.2386 13.5221 86.2387 13.5221C86.2388 13.5221 86.2388 13.5221 86.2389 13.5221C86.239 13.5221 86.239 13.5221 86.2391 13.5221C86.2392 13.5221 86.2393 13.5221 86.2393 13.5221C86.2394 13.5221 86.2395 13.5221 86.2395 13.5221C86.2396 13.5221 86.2397 13.5221 86.2397 13.5221C86.2398 13.5221 86.2399 13.5221 86.2399 13.5221C86.24 13.5221 86.2401 13.5221 86.2401 13.5221C86.2402 13.5221 86.2403 13.5221 86.2403 13.5221C86.2404 13.5221 86.2405 13.5221 86.2405 13.5221C86.2406 13.5221 86.2407 13.5221 86.2407 13.5221C86.2408 13.5221 86.2409 13.5221 86.2409 13.5221C86.241 13.5221 86.2411 13.5221 86.2411 13.5221C86.2412 13.5221 86.2413 13.5221 86.2413 13.5221C86.2414 13.5221 86.2415 13.5221 86.2415 13.5221C86.2416 13.5221 86.2417 13.5221 86.2417 13.5221C86.2418 13.5221 86.2419 13.5221 86.2419 13.5221C86.242 13.5221 86.2421 13.5221 86.2421 13.5221C86.2422 13.5221 86.2423 13.5221 86.2423 13.5221C86.2424 13.5221 86.2425 13.5221 86.2425 13.5221C86.2426 13.5221 86.2427 13.5221 86.2427 13.5221C86.2428 13.5221 86.2429 13.5221 86.2429 13.5221C86.243 13.5221 86.2431 13.5221 86.2431 13.5221C86.2432 13.5221 86.2433 13.5221 86.2433 13.5221C86.2434 13.5221 86.2435 13.5221 86.2435 13.5221C86.2436 13.5221 86.2437 13.5221 86.2437 13.5221C86.2438 13.5221 86.2439 13.5221 86.2439 13.5221C86.244 13.5221 86.2441 13.5221 86.2441 13.5221C86.2442 13.5221 86.2443 13.5221 86.2443 13.5221C86.2444 13.5221 86.2445 13.5221 86.2445 13.5221C86.2446 13.5221 86.2446 13.5221 86.2447 13.5221C86.2448 13.5221 86.2448 13.5221 86.2449 13.5221C86.245 13.5221 86.245 13.5221 86.2451 13.5221C86.2452 13.5221 86.2452 13.5221 86.2453 13.5221C86.2454 13.5221 86.2454 13.5221 86.2455 13.5221C86.2456 13.5221 86.2456 13.5221 86.2457 13.5221C86.2458 13.5221 86.2458 13.5221 86.2459 13.5221C86.2459 13.5221 86.246 13.5221 86.2461 13.5221C86.2461 13.5221 86.2462 13.5221 86.2463 13.5221C86.2463 13.5221 86.2464 13.5221 86.2465 13.5221C86.2465 13.5221 86.2466 13.5221 86.2467 13.5221C86.2467 13.5221 86.2468 13.5221 86.2468 13.5221C86.2469 13.5221 86.247 13.5221 86.247 13.5221C86.2471 13.5221 86.2472 13.5221 86.2472 13.5221C86.2473 13.5221 86.2474 13.5221 86.2474 13.5221C86.2475 13.5221 86.2476 13.5221 86.2476 13.5221C86.2477 13.5221 86.2477 13.5221 86.2478 13.5221C86.2479 13.5221 86.2479 13.5221 86.248 13.5221C86.2481 13.5221 86.2481 13.5221 86.2482 13.5221C86.2483 13.5221 86.2483 13.5221 86.2484 13.5221C86.2484 13.5221 86.2485 13.5221 86.2486 13.5221C86.2486 13.5221 86.2487 13.5221 86.2488 13.5221C86.2488 13.5221 86.2489 13.5221 86.249 13.5221C86.249 13.5221 86.2491 13.5221 86.2491 13.5221C86.2492 13.5221 86.2493 13.5221 86.2493 13.5221C86.2494 13.5221 86.2495 13.5221 86.2495 13.5221C86.2496 13.5221 86.2496 13.5221 86.2497 13.5221C86.2498 13.5221 86.2498 13.5221 86.2499 13.5221C86.25 13.5221 86.25 13.5221 86.2501 13.5221C86.2501 13.5221 86.2502 13.5221 86.2503 13.5221C86.2503 13.5221 86.2504 13.5221 86.2505 13.5221C86.2505 13.5221 86.2506 13.5221 86.2506 13.5221C86.2507 13.5221 86.2508 13.5221 86.2508 13.5221C86.2509 13.5221 86.251 13.5221 86.251 13.5221C86.2511 13.5221 86.2511 13.5221 86.2512 13.5221C86.2513 13.5221 86.2513 13.5221 86.2514 13.5221C86.2515 13.5221 86.2515 13.5221 86.2516 13.5221C86.2516 13.5221 86.2517 13.5221 86.2518 13.5221C86.2518 13.5221 86.2519 13.5221 86.252 13.5221C86.252 13.5221 86.2521 13.5221 86.2521 13.5221C86.2522 13.5221 86.2523 13.5221 86.2523 13.5221C86.2524 13.5221 86.2524 13.5221 86.2525 13.5221C86.2526 13.5221 86.2526 13.5221 86.2527 13.5221C86.2528 13.5221 86.2528 13.5221 86.2529 13.5221C86.2529 13.5221 86.253 13.5221 86.2531 13.5221C86.2531 13.5221 86.2532 13.5221 86.2532 13.5221C86.2533 13.5221 86.2534 13.5221 86.2534 13.5221C86.2535 13.5221 86.2535 13.5221 86.2536 13.5221C86.2537 13.5221 86.2537 13.5221 86.2538 13.5221C86.2539 13.5221 86.2539 13.5221 86.254 13.5221C86.254 13.5221 86.2541 13.5221 86.2542 13.5221C86.2542 13.5221 86.2543 13.5221 86.2543 13.5221C86.2544 13.5221 86.2545 13.5221 86.2545 13.5221C86.2546 13.5221 86.2546 13.5221 86.2547 13.5221C86.2548 13.5221 86.2548 13.5221 86.2549 13.5221C86.2549 13.5221 86.255 13.5221 86.2551 13.5221C86.2551 13.5221 86.2552 13.5221 86.2552 13.5221C86.2553 13.5221 86.2554 13.5221 86.2554 13.5221C86.2555 13.5221 86.2555 13.5221 86.2556 13.5221C86.2557 13.5221 86.2557 13.5221 86.2558 13.5221C86.2558 13.5221 86.2559 13.5221 86.256 13.5221C86.256 13.5221 86.2561 13.5221 86.2561 13.5221C86.2562 13.5221 86.2563 13.5221 86.2563 13.5221C86.2564 13.5221 86.2564 13.5221 86.2565 13.5221C86.2566 13.5221 86.2566 13.5221 86.2567 13.5221C86.2567 13.5221 86.2568 13.5221 86.2568 13.5221C86.2569 13.5221 86.257 13.5221 86.257 13.5221C86.2571 13.5221 86.2571 13.5221 86.2572 13.5221C86.2573 13.5221 86.2573 13.5221 86.2574 13.5221C86.2574 13.5221 86.2575 13.5221 86.2576 13.5221C86.2576 13.5221 86.2577 13.5221 86.2577 13.5221C86.2578 13.5221 86.2578 13.5221 86.2579 13.5221C86.258 13.5221 86.258 13.5221 86.2581 13.5221C86.2581 13.5221 86.2582 13.5221 86.2583 13.5221C86.2583 13.5221 86.2584 13.5221 86.2584 13.5221C86.2585 13.5221 86.2586 13.5221 86.2586 13.5221C86.2587 13.5221 86.2587 13.5221 86.2588 13.5221C86.2588 13.5221 86.2589 13.5221 86.259 13.5221C86.259 13.5221 86.2591 13.5221 86.2591 13.5221C86.2592 13.5221 86.2592 13.5221 86.2593 13.5221C86.2594 13.5221 86.2594 13.5221 86.2595 13.5221C86.2595 13.5221 86.2596 13.5221 86.2597 13.5221C86.2597 13.5221 86.2598 13.5221 86.2598 13.5221C86.2599 13.5221 86.2599 13.5221 86.26 13.5221C86.2601 13.5221 86.2601 13.5221 86.2602 13.5221C86.2602 13.5221 86.2603 13.5221 86.2603 13.5221C86.2604 13.5221 86.2605 13.5221 86.2605 13.5221C86.2606 13.5221 86.2606 13.5221 86.2607 13.5221C86.2607 13.5221 86.2608 13.5221 86.2609 13.5221C86.2609 13.5221 86.261 13.5221 86.261 13.5221C86.2611 13.5221 86.2611 13.5221 86.2612 13.5221C86.2613 13.5221 86.2613 13.5221 86.2614 13.5221C86.2614 13.5221 86.2615 13.5221 86.2615 13.5221C86.2616 13.5221 86.2617 13.5221 86.2617 13.5221C86.2618 13.5221 86.2618 13.5221 86.2619 13.5221C86.2619 13.5221 86.262 13.5221 86.262 13.5221C86.2621 13.5221 86.2622 13.5221 86.2622 13.5221C86.2623 13.5221 86.2623 13.5221 86.2624 13.5221C86.2624 13.5221 86.2625 13.5221 86.2626 13.5221C86.2626 13.5221 86.2627 13.5221 86.2627 13.5221C86.2628 13.5221 86.2628 13.5221 86.2629 13.5221C86.2629 13.5221 86.263 13.5221 86.2631 13.5221C86.2631 13.5221 86.2632 13.5221 86.2632 13.5221C86.2633 13.5221 86.2633 13.5221 86.2634 13.5221C86.2634 13.5221 86.2635 13.5221 86.2636 13.5221C86.2636 13.5221 86.2637 13.5221 86.2637 13.5221C86.2638 13.5221 86.2638 13.5221 86.2639 13.5221C86.2639 13.5221 86.264 13.5221 86.2641 13.5221C86.2641 13.5221 86.2642 13.5221 86.2642 13.5221C86.2643 13.5221 86.2643 13.5221 86.2644 13.5221C86.2644 13.5221 86.2645 13.5221 86.2645 13.5221C86.2646 13.5221 86.2647 13.5221 86.2647 13.5221C86.2648 13.5221 86.2648 13.5221 86.2649 13.5221C86.2649 13.5221 86.265 13.5221 86.265 13.5221C86.2651 13.5221 86.2652 13.5221 86.2652 13.5221C86.2653 13.5221 86.2653 13.5221 86.2654 13.5221C86.2654 13.5221 86.2655 13.5221 86.2655 13.5221C86.2656 13.5221 86.2656 13.5221 86.2657 13.5221C86.2658 13.5221 86.2658 13.5221 86.2659 13.5221C86.2659 13.5221 86.266 13.5221 86.266 13.5221C86.2661 13.5221 86.2661 13.5221 86.2662 13.5221C86.2662 13.5221 86.2663 13.5221 86.2663 13.5221C86.2664 13.5221 86.2665 13.5221 86.2665 13.5221C86.2666 13.5221 86.2666 13.5221 86.2667 13.5221C86.2667 13.5221 86.2668 13.5221 86.2668 13.5221C86.2669 13.5221 86.2669 13.5221 86.267 13.5221C86.267 13.5221 86.2671 13.5221 86.2672 13.5221C86.2672 13.5221 86.2673 13.5221 86.2673 13.5221C86.2674 13.5221 86.2674 13.5221 86.2675 13.5221C86.2675 13.5221 86.2676 13.5221 86.2676 13.5221C86.2677 13.5221 86.2677 13.5221 86.2678 13.5221C86.2678 13.5221 86.2679 13.5221 86.2679 13.5221C86.268 13.5221 86.2681 13.5221 86.2681 13.5221C86.2682 13.5221 86.2682 13.5221 86.2683 13.5221C86.2683 13.5221 86.2684 13.5221 86.2684 13.5221C86.2685 13.5221 86.2685 13.5221 86.2686 13.5221C86.2686 13.5221 86.2687 13.5221 86.2687 13.5221C86.2688 13.5221 86.2688 13.5221 86.2689 13.5221C86.2689 13.5221 86.269 13.5221 86.2691 13.5221C86.2691 13.5221 86.2692 13.5221 86.2692 13.5221C86.2693 13.5221 86.2693 13.5221 86.2694 13.5221C86.2694 13.5221 86.2695 13.5221 86.2695 13.5221C86.2696 13.5221 86.2696 13.5221 86.2697 13.5221C86.2697 13.5221 86.2698 13.5221 86.2698 13.5221C86.2699 13.5221 86.2699 13.5221 86.27 13.5221C86.27 13.5221 86.2701 13.5221 86.2701 13.5221C86.2702 13.5221 86.2702 13.5221 86.2703 13.5221C86.2703 13.5221 86.2704 13.5221 86.2705 13.5221C86.2705 13.5221 86.2706 13.5221 86.2706 13.5221C86.2707 13.5221 86.2707 13.5221 86.2708 13.5221C86.2708 13.5221 86.2709 13.5221 86.2709 13.5221C86.271 13.5221 86.271 13.5221 86.2711 13.5221C86.2711 13.5221 86.2712 13.5221 86.2712 13.5221C86.2713 13.5221 86.2713 13.5221 86.2714 13.5221C86.2714 13.5221 86.2715 13.5221 86.2715 13.5221C86.2716 13.5221 86.2716 13.5221 86.2717 13.5221C86.2717 13.5221 86.2718 13.5221 86.2718 13.5221C86.2719 13.5221 86.2719 13.5221 86.272 13.5221C86.272 13.5221 86.2721 13.5221 86.2721 13.5221C86.2722 13.5221 86.2722 13.5221 86.2723 13.5221C86.2723 13.5221 86.2724 13.5221 86.2724 13.5221C86.2725 13.5221 86.2725 13.5221 86.2726 13.5221C86.2726 13.5221 86.2727 13.5221 86.2727 13.5221C86.2728 13.5221 86.2728 13.5221 86.2729 13.5221C86.2729 13.5221 86.273 13.5221 86.273 13.5221C86.2731 13.5221 86.2731 13.5221 86.2732 13.5221C86.2732 13.5221 86.2733 13.5221 86.2733 13.5221C86.2734 13.5221 86.2734 13.5221 86.2735 13.5221C86.2735 13.5221 86.2736 13.5221 86.2736 13.5221C86.2737 13.5221 86.2737 13.5221 86.2738 13.5221C86.2738 13.5221 86.2739 13.5221 86.2739 13.5221C86.274 13.5221 86.274 13.5221 86.2741 13.5221C86.2741 13.5221 86.2742 13.5221 86.2742 13.5221C86.2743 13.5221 86.2743 13.5221 86.2744 13.5221C86.2744 13.5221 86.2745 13.5221 86.2745 13.5221C86.2746 13.5221 86.2746 13.5221 86.2747 13.5221C86.2747 13.5221 86.2748 13.5221 86.2748 13.5221C86.2749 13.5221 86.2749 13.5221 86.275 13.5221C86.275 13.5221 86.2751 13.5221 86.2751 13.5221C86.2751 13.5221 86.2752 13.5221 86.2752 13.5221C86.2753 13.5221 86.2753 13.5221 86.2754 13.5221V12.7221ZM86.198 12.7235C85.617 12.6741 85.1934 12.6479 84.9395 12.6479V13.4479C85.1556 13.4479 85.5484 13.4711 86.1301 13.5206L86.198 12.7235ZM84.9395 12.6479C83.8912 12.6479 83.0397 12.8429 82.4746 13.3164L82.9883 13.9297C83.3385 13.6363 83.959 13.4479 84.9395 13.4479V12.6479ZM82.4746 13.3164C81.9087 13.7905 81.5818 14.5725 81.427 15.5654L82.2175 15.6885C82.3596 14.7765 82.6388 14.2225 82.9883 13.9297L82.4746 13.3164ZM81.8223 16.027H84.9023V15.227H81.8223V16.027ZM84.5098 15.5501L83.6748 19.8177L84.4599 19.9713L85.2949 15.7038L84.5098 15.5501ZM84.0674 19.4945H80.9873V20.2945H84.0674V19.4945ZM80.5948 19.8177L77.4405 35.9231L78.2256 36.0769L81.3798 19.9714L80.5948 19.8177ZM77.833 35.6H73.1572V36.4H77.833V35.6ZM91.1553 30.5449L90.8673 30.8225L90.869 30.8243L91.1553 30.5449ZM99.5977 30.0439L99.3043 29.772L99.303 29.7734L99.5977 30.0439ZM99.9873 20.9707L99.701 21.2501L99.7027 21.2518L99.9873 20.9707ZM85.9971 21.7129L86.3621 21.8764L86.3626 21.8753L85.9971 21.7129ZM88.9844 17.6494L89.2496 17.9488L89.2499 17.9486L88.9844 17.6494ZM92.3242 15.6641L92.4597 16.0404L92.463 16.0392L92.3242 15.6641ZM103.42 17.7422L103.137 18.025L103.138 18.026L103.42 17.7422ZM105.331 29.4502L104.959 29.3022L104.959 29.3038L105.331 29.4502ZM102.863 33.3096L103.15 33.589L103.152 33.586L102.863 33.3096ZM99.2637 35.7031L99.1145 35.332L99.1134 35.3324L99.2637 35.7031ZM87.7227 33.7734L87.4389 34.0553L87.4398 34.0563L87.7227 33.7734ZM96.0166 19.0307C94.0953 19.0307 92.4779 19.7606 91.1906 21.2056L91.7879 21.7378C92.9251 20.4614 94.3259 19.8307 96.0166 19.8307V19.0307ZM91.1906 21.2056C89.9043 22.6494 89.2709 24.4615 89.2709 26.6113H90.0709C90.0709 24.6297 90.6497 23.0153 91.7879 21.7378L91.1906 21.2056ZM89.2709 26.6113C89.2709 28.2972 89.797 29.7122 90.8673 30.8225L91.4433 30.2673C90.5343 29.3243 90.0709 28.1169 90.0709 26.6113H89.2709ZM90.869 30.8243C91.9531 31.9352 93.34 32.485 94.9961 32.485V31.685C93.535 31.685 92.3613 31.208 91.4415 30.2655L90.869 30.8243ZM94.9961 32.485C96.9285 32.485 98.5686 31.7562 99.8923 30.3145L99.303 29.7734C98.1281 31.0531 96.7004 31.685 94.9961 31.685V32.485ZM99.891 30.3159C101.227 28.8756 101.89 27.1 101.89 25.0156H101.09C101.09 26.9144 100.492 28.491 99.3043 29.772L99.891 30.3159ZM101.89 25.0156C101.89 23.2484 101.361 21.7921 100.272 20.6896L99.7027 21.2518C100.618 22.1779 101.09 23.4182 101.09 25.0156H101.89ZM100.274 20.6913C99.1851 19.576 97.7523 19.0307 96.0166 19.0307V19.8307C97.5712 19.8307 98.7856 20.312 99.701 21.2501L100.274 20.6913ZM85.358 26.6855C85.358 24.9705 85.6935 23.3689 86.3621 21.8764L85.632 21.5494C84.9153 23.1493 84.558 24.8628 84.558 26.6855H85.358ZM86.3626 21.8753C87.0316 20.37 87.9929 19.062 89.2496 17.9488L88.7192 17.35C87.3782 18.5377 86.3479 19.9386 85.6315 21.5504L86.3626 21.8753ZM89.2499 17.9486C90.2017 17.1039 91.2709 16.4684 92.4597 16.0404L92.1887 15.2877C90.9036 15.7504 89.7462 16.4384 88.7189 17.3502L89.2499 17.9486ZM92.463 16.0392C93.6522 15.5992 94.9346 15.3775 96.3135 15.3775V14.5775C94.8473 14.5775 93.4702 14.8135 92.1854 15.2889L92.463 16.0392ZM96.3135 15.3775C99.1148 15.3775 101.378 16.2656 103.137 18.025L103.703 17.4593C101.776 15.5326 99.3013 14.5775 96.3135 14.5775V15.3775ZM103.138 18.026C104.91 19.786 105.803 22.0425 105.803 24.8301H106.603C106.603 21.8533 105.641 19.3846 103.702 17.4584L103.138 18.026ZM105.803 24.8301C105.803 26.4015 105.521 27.8911 104.959 29.3022L105.703 29.5982C106.303 28.09 106.603 26.4996 106.603 24.8301H105.803ZM104.959 29.3038C104.409 30.7027 103.614 31.945 102.574 33.0332L103.152 33.586C104.264 32.4228 105.115 31.0922 105.703 29.5966L104.959 29.3038ZM102.577 33.0302C101.603 34.0283 100.45 34.7954 99.1145 35.332L99.4128 36.0743C100.848 35.4975 102.095 34.669 103.15 33.589L102.577 33.0302ZM99.1134 35.3324C97.792 35.8681 96.353 36.1381 94.792 36.1381V36.9381C96.4472 36.9381 97.9892 36.6514 99.414 36.0738L99.1134 35.3324ZM94.792 36.1381C92.0165 36.1381 89.7657 35.2507 88.0055 33.4906L87.4398 34.0563C89.3659 35.9823 91.8279 36.9381 94.792 36.9381V36.1381ZM88.0064 33.4915C86.2454 31.7187 85.358 29.461 85.358 26.6855H84.558C84.558 29.6497 85.5137 32.1173 87.4389 34.0553L88.0064 33.4915ZM107.168 36L106.775 35.9237L106.683 36.4H107.168V36ZM112.419 8.98438V8.58437H112.089L112.026 8.90806L112.419 8.98438ZM117.169 8.98438L117.562 9.06069L117.654 8.58437H117.169V8.98438ZM111.918 36V36.4H112.248L112.311 36.0763L111.918 36ZM107.561 36.0763L112.812 9.06069L112.026 8.90806L106.775 35.9237L107.561 36.0763ZM112.419 9.38438H117.169V8.58437H112.419V9.38438ZM116.776 8.90806L111.525 35.9237L112.311 36.0763L117.562 9.06069L116.776 8.90806ZM111.918 35.6H107.168V36.4H111.918V35.6ZM116.111 36L115.719 35.924L115.626 36.4H116.111V36ZM120.063 15.5898V15.1898H119.734L119.671 15.5138L120.063 15.5898ZM124.776 15.5898L125.169 15.6659L125.261 15.1898H124.776V15.5898ZM120.824 36V36.4H121.154L121.217 36.076L120.824 36ZM120.49 13.4189L120.098 13.3418L120.004 13.8189H120.49V13.4189ZM121.362 8.98438V8.58437H121.033L120.97 8.90719L121.362 8.98438ZM126.075 8.98438L126.468 9.06156L126.562 8.58437H126.075V8.98438ZM125.203 13.4189V13.8189H125.532L125.596 13.4961L125.203 13.4189ZM116.504 36.076L120.456 15.6659L119.671 15.5138L115.719 35.924L116.504 36.076ZM120.063 15.9898H124.776V15.1898H120.063V15.9898ZM124.384 15.5138L120.432 35.924L121.217 36.076L125.169 15.6659L124.384 15.5138ZM120.824 35.6H116.111V36.4H120.824V35.6ZM120.883 13.4961L121.755 9.06156L120.97 8.90719L120.098 13.3418L120.883 13.4961ZM121.362 9.38438H126.075V8.58437H121.362V9.38438ZM125.683 8.90719L124.811 13.3418L125.596 13.4961L126.468 9.06156L125.683 8.90719ZM125.203 13.0189H120.49V13.8189H125.203V13.0189ZM132.013 30.5449L131.725 30.8225L131.726 30.8243L132.013 30.5449ZM140.455 30.0439L140.162 29.772L140.16 29.7734L140.455 30.0439ZM140.845 20.9707L140.558 21.2501L140.56 21.2518L140.845 20.9707ZM126.854 21.7129L127.22 21.8764L127.22 21.8753L126.854 21.7129ZM129.842 17.6494L130.107 17.9488L130.107 17.9486L129.842 17.6494ZM133.182 15.6641L133.317 16.0404L133.32 16.0392L133.182 15.6641ZM144.277 17.7422L143.994 18.025L143.995 18.026L144.277 17.7422ZM146.188 29.4502L145.817 29.3022L145.816 29.3038L146.188 29.4502ZM143.721 33.3096L144.007 33.589L144.01 33.586L143.721 33.3096ZM140.121 35.7031L139.972 35.332L139.971 35.3324L140.121 35.7031ZM128.58 33.7734L128.296 34.0553L128.297 34.0563L128.58 33.7734ZM136.874 19.0307C134.953 19.0307 133.335 19.7606 132.048 21.2056L132.645 21.7378C133.782 20.4614 135.183 19.8307 136.874 19.8307V19.0307ZM132.048 21.2056C130.762 22.6494 130.128 24.4615 130.128 26.6113H130.928C130.928 24.6297 131.507 23.0153 132.645 21.7378L132.048 21.2056ZM130.128 26.6113C130.128 28.2972 130.654 29.7122 131.725 30.8225L132.301 30.2673C131.392 29.3243 130.928 28.1169 130.928 26.6113H130.128ZM131.726 30.8243C132.811 31.9352 134.197 32.485 135.854 32.485V31.685C134.392 31.685 133.219 31.208 132.299 30.2655L131.726 30.8243ZM135.854 32.485C137.786 32.485 139.426 31.7562 140.75 30.3145L140.16 29.7734C138.985 31.0531 137.558 31.685 135.854 31.685V32.485ZM140.748 30.3159C142.084 28.8756 142.748 27.1 142.748 25.0156H141.948C141.948 26.9144 141.35 28.491 140.162 29.772L140.748 30.3159ZM142.748 25.0156C142.748 23.2484 142.218 21.7921 141.129 20.6896L140.56 21.2518C141.475 22.1779 141.948 23.4182 141.948 25.0156H142.748ZM141.131 20.6913C140.043 19.576 138.61 19.0307 136.874 19.0307V19.8307C138.429 19.8307 139.643 20.312 140.558 21.2501L141.131 20.6913ZM126.215 26.6855C126.215 24.9705 126.551 23.3689 127.22 21.8764L126.489 21.5494C125.773 23.1493 125.415 24.8628 125.415 26.6855H126.215ZM127.22 21.8753C127.889 20.37 128.85 19.062 130.107 17.9488L129.577 17.35C128.236 18.5377 127.205 19.9386 126.489 21.5504L127.22 21.8753ZM130.107 17.9486C131.059 17.1039 132.128 16.4684 133.317 16.0404L133.046 15.2877C131.761 15.7504 130.604 16.4384 129.576 17.3502L130.107 17.9486ZM133.32 16.0392C134.51 15.5992 135.792 15.3775 137.171 15.3775V14.5775C135.705 14.5775 134.328 14.8135 133.043 15.2889L133.32 16.0392ZM137.171 15.3775C139.972 15.3775 142.235 16.2656 143.995 18.025L144.56 17.4593C142.633 15.5326 140.159 14.5775 137.171 14.5775V15.3775ZM143.995 18.026C145.767 19.786 146.661 22.0425 146.661 24.8301H147.461C147.461 21.8533 146.498 19.3846 144.559 17.4584L143.995 18.026ZM146.661 24.8301C146.661 26.4015 146.379 27.8911 145.817 29.3022L146.56 29.5982C147.161 28.09 147.461 26.4996 147.461 24.8301H146.661ZM145.816 29.3038C145.266 30.7027 144.472 31.945 143.432 33.0332L144.01 33.586C145.122 32.4228 145.973 31.0922 146.561 29.5966L145.816 29.3038ZM143.434 33.0302C142.46 34.0283 141.307 34.7954 139.972 35.332L140.27 36.0743C141.706 35.4975 142.953 34.669 144.007 33.589L143.434 33.0302ZM139.971 35.3324C138.649 35.8681 137.21 36.1381 135.649 36.1381V36.9381C137.305 36.9381 138.847 36.6514 140.271 36.0738L139.971 35.3324ZM135.649 36.1381C132.874 36.1381 130.623 35.2507 128.863 33.4906L128.297 34.0563C130.223 35.9823 132.685 36.9381 135.649 36.9381V36.1381ZM128.864 33.4915C127.103 31.7187 126.215 29.461 126.215 26.6855H125.415C125.415 29.6497 126.371 32.1173 128.296 34.0553L128.864 33.4915Z" fill="white" mask="url(#path-1-outside-1_6_238)"/>
<path d="M159.124 11.6701H153.149L153 40.5H158.378L169.581 23.9191V40.5H174.959L194.228 11.6701H197.066L194.975 4.5L183.174 11.6701H186.759L175.407 28.1017V11.6701H170.178L159.124 28.1017V11.6701Z" fill="#05AC4E" stroke="#05AC4E" stroke-width="0.298755"/>
<mask id="path-4-outside-2_6_238" maskUnits="userSpaceOnUse" x="186" y="12" width="81" height="29" fill="black">
<rect fill="white" x="186" y="12" width="81" height="29"/>
<path d="M201.66 40L201.92 38.5898C201.215 39.2454 200.429 39.734 199.563 40.0557C198.698 40.3773 197.733 40.5381 196.669 40.5381C193.849 40.5381 191.56 39.6165 189.804 37.7734C188.047 35.918 187.169 33.4935 187.169 30.5C187.169 29.2383 187.354 28.0322 187.726 26.8818C188.109 25.7314 188.684 24.6182 189.451 23.542C190.478 22.1195 191.74 21.0309 193.236 20.2764C194.745 19.5218 196.397 19.1445 198.19 19.1445C199.551 19.1445 200.807 19.4043 201.957 19.9238C203.107 20.4434 204.122 21.2103 205 22.2246L205.501 19.5898H210.362L206.299 40H201.66ZM198.395 23.4307C196.626 23.4307 195.098 24.1172 193.812 25.4902C192.525 26.8509 191.882 28.4961 191.882 30.4258C191.882 32.1204 192.37 33.4873 193.348 34.5264C194.337 35.5654 195.636 36.085 197.244 36.085C199.038 36.085 200.553 35.4046 201.79 34.0439C203.039 32.6709 203.664 30.9824 203.664 28.9785C203.664 27.3581 203.163 26.0283 202.161 24.9893C201.172 23.9502 199.916 23.4307 198.395 23.4307ZM211.902 40L215.02 23.8574H212.273L213.108 19.5898H215.854L217.098 13.207H222.015L220.79 19.5898H223.722L222.924 23.8574H219.955L216.801 40H211.902ZM244.354 32.8564C243.538 35.2809 242.196 37.1673 240.328 38.5156C238.473 39.8639 236.271 40.5381 233.723 40.5381C230.816 40.5381 228.441 39.6227 226.598 37.792C224.755 35.9489 223.833 33.5801 223.833 30.6855C223.833 28.9538 224.173 27.321 224.854 25.7871C225.534 24.2409 226.511 22.8988 227.785 21.7607C228.75 20.8949 229.845 20.2393 231.069 19.7939C232.294 19.3363 233.605 19.1074 235.003 19.1074C237.551 19.1074 239.697 19.8001 241.441 21.1855C243.198 22.5586 244.324 24.445 244.818 26.8447H239.976C239.506 25.7686 238.838 24.9521 237.972 24.3955C237.118 23.8265 236.104 23.542 234.929 23.542C233.061 23.542 231.527 24.2038 230.327 25.5273C229.14 26.8385 228.546 28.5332 228.546 30.6113C228.546 32.2318 229.047 33.5492 230.049 34.5635C231.051 35.5778 232.35 36.085 233.945 36.085C235.083 36.085 236.104 35.8128 237.007 35.2686C237.91 34.7243 238.677 33.9202 239.308 32.8564H244.354ZM245.301 40L250.552 12.9844H255.302L253.706 21.0371C254.436 20.4434 255.197 19.998 255.988 19.7012C256.792 19.4043 257.64 19.2559 258.53 19.2559C260.918 19.2559 262.73 19.8187 263.967 20.9443C265.204 22.07 265.822 23.7214 265.822 25.8984C265.822 26.3066 265.76 26.9375 265.637 27.791C265.525 28.6322 265.358 29.6094 265.136 30.7227L263.354 40H258.456L260.534 29.2197C260.621 28.7992 260.689 28.3786 260.738 27.958C260.788 27.5374 260.812 27.1292 260.812 26.7334C260.812 25.6572 260.54 24.8408 259.996 24.2842C259.452 23.7152 258.66 23.4307 257.621 23.4307C256.124 23.4307 254.924 23.9378 254.021 24.9521C253.118 25.9665 252.457 27.5622 252.036 29.7393L250.051 40H245.301Z"/>
</mask>
<path d="M201.66 40L201.92 38.5898C201.215 39.2454 200.429 39.734 199.563 40.0557C198.698 40.3773 197.733 40.5381 196.669 40.5381C193.849 40.5381 191.56 39.6165 189.804 37.7734C188.047 35.918 187.169 33.4935 187.169 30.5C187.169 29.2383 187.354 28.0322 187.726 26.8818C188.109 25.7314 188.684 24.6182 189.451 23.542C190.478 22.1195 191.74 21.0309 193.236 20.2764C194.745 19.5218 196.397 19.1445 198.19 19.1445C199.551 19.1445 200.807 19.4043 201.957 19.9238C203.107 20.4434 204.122 21.2103 205 22.2246L205.501 19.5898H210.362L206.299 40H201.66ZM198.395 23.4307C196.626 23.4307 195.098 24.1172 193.812 25.4902C192.525 26.8509 191.882 28.4961 191.882 30.4258C191.882 32.1204 192.37 33.4873 193.348 34.5264C194.337 35.5654 195.636 36.085 197.244 36.085C199.038 36.085 200.553 35.4046 201.79 34.0439C203.039 32.6709 203.664 30.9824 203.664 28.9785C203.664 27.3581 203.163 26.0283 202.161 24.9893C201.172 23.9502 199.916 23.4307 198.395 23.4307ZM211.902 40L215.02 23.8574H212.273L213.108 19.5898H215.854L217.098 13.207H222.015L220.79 19.5898H223.722L222.924 23.8574H219.955L216.801 40H211.902ZM244.354 32.8564C243.538 35.2809 242.196 37.1673 240.328 38.5156C238.473 39.8639 236.271 40.5381 233.723 40.5381C230.816 40.5381 228.441 39.6227 226.598 37.792C224.755 35.9489 223.833 33.5801 223.833 30.6855C223.833 28.9538 224.173 27.321 224.854 25.7871C225.534 24.2409 226.511 22.8988 227.785 21.7607C228.75 20.8949 229.845 20.2393 231.069 19.7939C232.294 19.3363 233.605 19.1074 235.003 19.1074C237.551 19.1074 239.697 19.8001 241.441 21.1855C243.198 22.5586 244.324 24.445 244.818 26.8447H239.976C239.506 25.7686 238.838 24.9521 237.972 24.3955C237.118 23.8265 236.104 23.542 234.929 23.542C233.061 23.542 231.527 24.2038 230.327 25.5273C229.14 26.8385 228.546 28.5332 228.546 30.6113C228.546 32.2318 229.047 33.5492 230.049 34.5635C231.051 35.5778 232.35 36.085 233.945 36.085C235.083 36.085 236.104 35.8128 237.007 35.2686C237.91 34.7243 238.677 33.9202 239.308 32.8564H244.354ZM245.301 40L250.552 12.9844H255.302L253.706 21.0371C254.436 20.4434 255.197 19.998 255.988 19.7012C256.792 19.4043 257.64 19.2559 258.53 19.2559C260.918 19.2559 262.73 19.8187 263.967 20.9443C265.204 22.07 265.822 23.7214 265.822 25.8984C265.822 26.3066 265.76 26.9375 265.637 27.791C265.525 28.6322 265.358 29.6094 265.136 30.7227L263.354 40H258.456L260.534 29.2197C260.621 28.7992 260.689 28.3786 260.738 27.958C260.788 27.5374 260.812 27.1292 260.812 26.7334C260.812 25.6572 260.54 24.8408 259.996 24.2842C259.452 23.7152 258.66 23.4307 257.621 23.4307C256.124 23.4307 254.924 23.9378 254.021 24.9521C253.118 25.9665 252.457 27.5622 252.036 29.7393L250.051 40H245.301Z" fill="#05AC4E"/>
<path d="M201.66 40L201.267 39.9275L201.18 40.4H201.66V40ZM201.92 38.5898L202.313 38.6623L202.532 37.4744L201.648 38.2969L201.92 38.5898ZM189.804 37.7734L189.513 38.0484L189.514 38.0494L189.804 37.7734ZM187.726 26.8818L187.346 26.7553L187.345 26.759L187.726 26.8818ZM189.451 23.542L189.127 23.3079L189.125 23.3099L189.451 23.542ZM193.236 20.2764L193.057 19.9186L193.056 19.9192L193.236 20.2764ZM205 22.2246L204.698 22.4864L205.239 23.1112L205.393 22.2993L205 22.2246ZM205.501 19.5898V19.1898H205.17L205.108 19.5151L205.501 19.5898ZM210.362 19.5898L210.755 19.6679L210.85 19.1898H210.362V19.5898ZM206.299 40V40.4H206.627L206.691 40.0781L206.299 40ZM193.812 25.4902L194.102 25.765L194.103 25.7637L193.812 25.4902ZM193.348 34.5264L193.056 34.8004L193.058 34.8022L193.348 34.5264ZM201.79 34.0439L201.494 33.7747L201.494 33.7749L201.79 34.0439ZM202.161 24.9893L201.871 25.2651L201.873 25.2669L202.161 24.9893ZM202.054 40.0725L202.313 38.6623L201.527 38.5174L201.267 39.9275L202.054 40.0725ZM201.648 38.2969C200.979 38.9182 200.239 39.3782 199.424 39.6807L199.703 40.4306C200.62 40.0899 201.45 39.5727 202.192 38.8828L201.648 38.2969ZM199.424 39.6807C198.609 39.9834 197.692 40.1381 196.669 40.1381V40.9381C197.773 40.9381 198.786 40.7711 199.703 40.4306L199.424 39.6807ZM196.669 40.1381C193.945 40.1381 191.766 39.2524 190.093 37.4975L189.514 38.0494C191.355 39.9807 193.752 40.9381 196.669 40.9381V40.1381ZM190.094 37.4984C188.42 35.7299 187.569 33.41 187.569 30.5H186.769C186.769 33.577 187.674 36.1061 189.513 38.0484L190.094 37.4984ZM187.569 30.5C187.569 29.2781 187.749 28.1136 188.106 27.0046L187.345 26.759C186.96 27.9508 186.769 29.1984 186.769 30.5H187.569ZM188.105 27.0083C188.475 25.8988 189.031 24.8208 189.777 23.7741L189.125 23.3099C188.337 24.4155 187.743 25.564 187.346 26.7553L188.105 27.0083ZM189.776 23.7761C190.766 22.4031 191.98 21.3579 193.416 20.6335L193.056 19.9192C191.5 20.704 190.189 21.8359 189.127 23.3079L189.776 23.7761ZM193.415 20.6341C194.865 19.9091 196.455 19.5445 198.19 19.5445V18.7445C196.339 18.7445 194.626 19.1345 193.057 19.9186L193.415 20.6341ZM198.19 19.5445C199.499 19.5445 200.698 19.794 201.792 20.2884L202.122 19.5593C200.916 19.0146 199.603 18.7445 198.19 18.7445V19.5445ZM201.792 20.2884C202.887 20.7826 203.855 21.5131 204.698 22.4864L205.302 21.9628C204.389 20.9075 203.328 20.1042 202.122 19.5593L201.792 20.2884ZM205.393 22.2993L205.894 19.6646L205.108 19.5151L204.607 22.1499L205.393 22.2993ZM205.501 19.9898H210.362V19.1898H205.501V19.9898ZM209.97 19.5117L205.907 39.9219L206.691 40.0781L210.755 19.6679L209.97 19.5117ZM206.299 39.6H201.66V40.4H206.299V39.6ZM198.395 23.0307C196.507 23.0307 194.876 23.7687 193.52 25.2167L194.103 25.7637C195.32 24.4656 196.744 23.8307 198.395 23.8307V23.0307ZM193.521 25.2154C192.162 26.6529 191.482 28.3973 191.482 30.4258H192.282C192.282 28.5948 192.888 27.049 194.102 25.765L193.521 25.2154ZM191.482 30.4258C191.482 32.2019 191.996 33.6735 193.056 34.8004L193.639 34.2523C192.744 33.3011 192.282 32.039 192.282 30.4258H191.482ZM193.058 34.8022C194.133 35.9305 195.541 36.485 197.244 36.485V35.685C195.731 35.685 194.542 35.2003 193.637 34.2505L193.058 34.8022ZM197.244 36.485C199.154 36.485 200.775 35.7547 202.086 34.313L201.494 33.7749C200.331 35.0546 198.922 35.685 197.244 35.685V36.485ZM202.086 34.3131C203.408 32.8603 204.064 31.0734 204.064 28.9785H203.264C203.264 30.8915 202.671 32.4815 201.494 33.7747L202.086 34.3131ZM204.064 28.9785C204.064 27.2683 203.532 25.8346 202.449 24.7116L201.873 25.2669C202.794 26.222 203.264 27.4478 203.264 28.9785H204.064ZM202.451 24.7134C201.381 23.5899 200.018 23.0307 198.395 23.0307V23.8307C199.814 23.8307 200.962 24.3105 201.871 25.2651L202.451 24.7134ZM211.902 40L211.51 39.9242L211.418 40.4H211.902V40ZM215.02 23.8574L215.412 23.9333L215.504 23.4574H215.02V23.8574ZM212.273 23.8574L211.881 23.7806L211.788 24.2574H212.273V23.8574ZM213.108 19.5898V19.1898H212.779L212.716 19.513L213.108 19.5898ZM215.854 19.5898V19.9898H216.184L216.247 19.6663L215.854 19.5898ZM217.098 13.207V12.807H216.768L216.705 13.1306L217.098 13.207ZM222.015 13.207L222.407 13.2824L222.499 12.807H222.015V13.207ZM220.79 19.5898L220.397 19.5145L220.306 19.9898H220.79V19.5898ZM223.722 19.5898L224.115 19.6634L224.203 19.1898H223.722V19.5898ZM222.924 23.8574V24.2574H223.256L223.317 23.9309L222.924 23.8574ZM219.955 23.8574V23.4574H219.626L219.563 23.7807L219.955 23.8574ZM216.801 40V40.4H217.13L217.193 40.0767L216.801 40ZM212.295 40.0758L215.412 23.9333L214.627 23.7816L211.51 39.9242L212.295 40.0758ZM215.02 23.4574H212.273V24.2574H215.02V23.4574ZM212.666 23.9342L213.501 19.6666L212.716 19.513L211.881 23.7806L212.666 23.9342ZM213.108 19.9898H215.854V19.1898H213.108V19.9898ZM216.247 19.6663L217.49 13.2835L216.705 13.1306L215.462 19.5134L216.247 19.6663ZM217.098 13.607H222.015V12.807H217.098V13.607ZM221.622 13.1317L220.397 19.5145L221.183 19.6652L222.407 13.2824L221.622 13.1317ZM220.79 19.9898H223.722V19.1898H220.79V19.9898ZM223.328 19.5163L222.531 23.7839L223.317 23.9309L224.115 19.6634L223.328 19.5163ZM222.924 23.4574H219.955V24.2574H222.924V23.4574ZM219.563 23.7807L216.408 39.9233L217.193 40.0767L220.348 23.9341L219.563 23.7807ZM216.801 39.6H211.902V40.4H216.801V39.6ZM244.354 32.8564L244.734 32.9841L244.911 32.4564H244.354V32.8564ZM240.328 38.5156L240.094 38.1913L240.093 38.192L240.328 38.5156ZM226.598 37.792L226.315 38.0748L226.316 38.0758L226.598 37.792ZM224.854 25.7871L225.219 25.9493L225.22 25.9482L224.854 25.7871ZM227.785 21.7607L228.052 22.0591L228.052 22.0584L227.785 21.7607ZM231.069 19.7939L231.206 20.1699L231.209 20.1686L231.069 19.7939ZM241.441 21.1855L241.193 21.4988L241.195 21.5007L241.441 21.1855ZM244.818 26.8447V27.2447H245.309L245.21 26.764L244.818 26.8447ZM239.976 26.8447L239.609 27.0048L239.714 27.2447H239.976V26.8447ZM237.972 24.3955L237.75 24.7284L237.755 24.732L237.972 24.3955ZM230.327 25.5273L230.031 25.2587L230.031 25.2588L230.327 25.5273ZM230.049 34.5635L229.764 34.8446L230.049 34.5635ZM237.007 35.2686L236.8 34.926L237.007 35.2686ZM239.308 32.8564V32.4564H239.08L238.964 32.6524L239.308 32.8564ZM243.975 32.7288C243.183 35.0833 241.887 36.8972 240.094 38.1913L240.562 38.84C242.505 37.4374 243.894 35.4785 244.734 32.9841L243.975 32.7288ZM240.093 38.192C238.313 39.4852 236.196 40.1381 233.723 40.1381V40.9381C236.345 40.9381 238.632 40.2427 240.563 38.8392L240.093 38.192ZM233.723 40.1381C230.908 40.1381 228.639 39.2554 226.88 37.5082L226.316 38.0758C228.243 39.9901 230.724 40.9381 233.723 40.9381V40.1381ZM226.88 37.5091C225.121 35.7497 224.233 33.4868 224.233 30.6855H223.433C223.433 33.6733 224.388 36.1481 226.315 38.0748L226.88 37.5091ZM224.233 30.6855C224.233 29.0078 224.562 27.4304 225.219 25.9493L224.488 25.6249C223.784 27.2115 223.433 28.8997 223.433 30.6855H224.233ZM225.22 25.9482C225.877 24.4549 226.82 23.1594 228.052 22.0591L227.519 21.4624C226.202 22.6381 225.191 24.0268 224.487 25.626L225.22 25.9482ZM228.052 22.0584C228.979 21.2269 230.029 20.5978 231.206 20.1699L230.933 19.418C229.66 19.8807 228.521 20.5628 227.518 21.463L228.052 22.0584ZM231.209 20.1686C232.386 19.7288 233.65 19.5074 235.003 19.5074V18.7074C233.561 18.7074 232.202 18.9437 230.929 19.4193L231.209 20.1686ZM235.003 19.5074C237.474 19.5074 239.529 20.1775 241.193 21.4988L241.69 20.8723C239.865 19.4228 237.628 18.7074 235.003 18.7074V19.5074ZM241.195 21.5007C242.869 22.8094 243.949 24.6088 244.427 26.9255L245.21 26.764C244.698 24.2812 243.527 22.3078 241.688 20.8704L241.195 21.5007ZM244.818 26.4447H239.976V27.2447H244.818V26.4447ZM240.342 26.6846C239.845 25.5466 239.129 24.6642 238.188 24.059L237.755 24.732C238.546 25.2401 239.166 25.9905 239.609 27.0048L240.342 26.6846ZM238.194 24.0627C237.265 23.4437 236.171 23.142 234.929 23.142V23.942C236.037 23.942 236.971 24.2093 237.75 24.7283L238.194 24.0627ZM234.929 23.142C232.954 23.142 231.31 23.8473 230.031 25.2587L230.624 25.796C231.744 24.5603 233.168 23.942 234.929 23.942V23.142ZM230.031 25.2588C228.765 26.6562 228.146 28.4524 228.146 30.6113H228.946C228.946 28.614 229.514 27.0209 230.624 25.7959L230.031 25.2588ZM228.146 30.6113C228.146 32.3214 228.678 33.745 229.764 34.8446L230.333 34.2824C229.416 33.3533 228.946 32.1421 228.946 30.6113H228.146ZM229.764 34.8446C230.851 35.9444 232.257 36.485 233.945 36.485V35.685C232.443 35.685 231.251 35.2112 230.333 34.2824L229.764 34.8446ZM233.945 36.485C235.15 36.485 236.243 36.1959 237.213 35.6111L236.8 34.926C235.965 35.4297 235.017 35.685 233.945 35.685V36.485ZM237.213 35.6111C238.182 35.0273 238.993 34.1713 239.652 33.0605L238.964 32.6524C238.361 33.6692 237.638 34.4213 236.8 34.926L237.213 35.6111ZM239.308 33.2564H244.354V32.4564H239.308V33.2564ZM245.301 40L244.908 39.9237L244.816 40.4H245.301V40ZM250.552 12.9844V12.5844H250.222L250.159 12.9081L250.552 12.9844ZM255.302 12.9844L255.694 13.0621L255.789 12.5844H255.302V12.9844ZM253.706 21.0371L253.314 20.9594L253.098 22.0474L253.958 21.3474L253.706 21.0371ZM255.988 19.7012L255.85 19.3259L255.848 19.3266L255.988 19.7012ZM263.967 20.9443L263.698 21.2402L263.967 20.9443ZM265.637 27.791L265.241 27.7336L265.24 27.7385L265.637 27.791ZM265.136 30.7227L264.743 30.6442L264.743 30.6472L265.136 30.7227ZM263.354 40V40.4H263.685L263.747 40.0754L263.354 40ZM258.456 40L258.063 39.9243L257.972 40.4H258.456V40ZM260.534 29.2197L260.142 29.1391L260.141 29.144L260.534 29.2197ZM259.996 24.2842L259.707 24.5607L259.71 24.5638L259.996 24.2842ZM254.021 24.9521L253.723 24.6862L254.021 24.9521ZM252.036 29.7393L252.429 29.8152L252.429 29.8151L252.036 29.7393ZM250.051 40V40.4H250.381L250.443 40.076L250.051 40ZM245.693 40.0763L250.944 13.0607L250.159 12.9081L244.908 39.9237L245.693 40.0763ZM250.552 13.3844H255.302V12.5844H250.552V13.3844ZM254.909 12.9066L253.314 20.9594L254.098 21.1149L255.694 13.0621L254.909 12.9066ZM253.958 21.3474C254.658 20.7779 255.382 20.3558 256.129 20.0757L255.848 19.3266C255.011 19.6403 254.213 20.1088 253.454 20.7268L253.958 21.3474ZM256.127 20.0764C256.885 19.7966 257.685 19.6559 258.53 19.6559V18.8559C257.594 18.8559 256.7 19.012 255.85 19.3259L256.127 20.0764ZM258.53 19.6559C260.86 19.6559 262.56 20.2054 263.698 21.2402L264.236 20.6485C262.899 19.432 260.975 18.8559 258.53 18.8559V19.6559ZM263.698 21.2402C264.828 22.2688 265.422 23.798 265.422 25.8984H266.222C266.222 23.6447 265.58 21.8712 264.236 20.6485L263.698 21.2402ZM265.422 25.8984C265.422 26.2761 265.364 26.8831 265.241 27.7336L266.033 27.8484C266.157 26.9919 266.222 26.3372 266.222 25.8984H265.422ZM265.24 27.7385C265.13 28.5686 264.965 29.5369 264.744 30.6442L265.528 30.8011C265.752 29.6819 265.92 28.6957 266.033 27.8435L265.24 27.7385ZM264.743 30.6472L262.962 39.9246L263.747 40.0754L265.529 30.7981L264.743 30.6472ZM263.354 39.6H258.456V40.4H263.354V39.6ZM258.849 40.0757L260.927 29.2954L260.141 29.144L258.063 39.9243L258.849 40.0757ZM260.926 29.3004C261.015 28.8687 261.085 28.4369 261.136 28.0047L260.341 27.9113C260.293 28.3203 260.227 28.7296 260.142 29.1391L260.926 29.3004ZM261.136 28.0047C261.187 27.5697 261.213 27.1459 261.213 26.7334H260.412C260.412 27.1126 260.389 27.5051 260.341 27.9113L261.136 28.0047ZM261.213 26.7334C261.213 25.5933 260.924 24.6606 260.282 24.0045L259.71 24.5638C260.157 25.021 260.412 25.7211 260.412 26.7334H261.213ZM260.285 24.0077C259.643 23.3369 258.733 23.0307 257.621 23.0307V23.8307C258.587 23.8307 259.26 24.0935 259.707 24.5607L260.285 24.0077ZM257.621 23.0307C256.023 23.0307 254.71 23.5773 253.723 24.6862L254.32 25.2181C255.139 24.2983 256.225 23.8307 257.621 23.8307V23.0307ZM253.723 24.6862C252.751 25.7782 252.07 27.4557 251.643 29.6634L252.429 29.8151C252.844 27.6686 253.486 26.1547 254.32 25.2181L253.723 24.6862ZM251.643 29.6633L249.658 39.924L250.443 40.076L252.429 29.8152L251.643 29.6633ZM250.051 39.6H245.301V40.4H250.051V39.6Z" fill="#05AC4E" mask="url(#path-4-outside-2_6_238)"/>
</svg>
