<svg width="32" height="33" viewBox="0 0 32 33" fill="none" xmlns="http://www.w3.org/2000/svg">
<path fill-rule="evenodd" clip-rule="evenodd" d="M32 16.4999C32 25.3364 24.8365 32.4999 16 32.4999C7.16352 32.4999 0 25.3364 0 16.4999C0 7.6634 7.16352 0.499878 16 0.499878C24.8365 0.499878 32 7.6634 32 16.4999ZM20.8 11.6999C20.8 14.3509 18.651 16.4999 16 16.4999C13.349 16.4999 11.2 14.3509 11.2 11.6999C11.2 9.04884 13.349 6.89988 16 6.89988C18.651 6.89988 20.8 9.04884 20.8 11.6999ZM16 30.0999C18.8544 30.0999 21.5035 29.2205 23.691 27.7178C24.6573 27.0541 25.0701 25.7898 24.5085 24.761C23.344 22.6284 20.9443 21.2999 15.9998 21.2999C11.0555 21.2999 8.656 22.6282 7.49136 24.761C6.9296 25.7898 7.34256 27.054 8.3088 27.7176C10.4963 29.2204 13.1454 30.0999 16 30.0999Z" fill="white"/>
</svg>
